<?xml version="1.0" encoding="UTF-8"?>
<svg version="1.1" xmlns="http://www.w3.org/2000/svg" width="678" height="678">
<path d="M0 0 C1.09911209 -0.0065712 2.19822418 -0.0131424 3.3306427 -0.01991272 C6.95040984 -0.0395359 10.57013546 -0.05129102 14.18994141 -0.0612793 C15.43879749 -0.06535482 16.68765358 -0.06943035 17.97435379 -0.07362938 C23.91868482 -0.09231469 29.86300302 -0.10688131 35.80735624 -0.11524135 C42.58708619 -0.12494165 49.36648337 -0.15107959 56.14609659 -0.19174224 C62.08072667 -0.22606746 68.0152501 -0.23742924 73.94997025 -0.24144554 C76.43965518 -0.24624735 78.92933826 -0.25767195 81.41895676 -0.27648354 C105.71518871 -0.44848637 129.31034356 2.34178059 152.66650391 9.17700195 C153.41657715 9.39582031 154.16665039 9.61463867 154.93945312 9.84008789 C167.32561153 13.53688804 179.03666249 18.56365884 190.66650391 24.17700195 C191.40255859 24.53133301 192.13861328 24.88566406 192.89697266 25.25073242 C247.62276756 51.97815275 291.69370484 102.94605761 311.95947266 160.13012695 C312.53399383 161.81054462 313.10304841 163.49284163 313.66650391 165.17700195 C313.94574707 166.01038086 314.22499023 166.84375977 314.51269531 167.70239258 C321.83190103 189.94864234 325.63968039 212.80454294 326.66650391 236.17700195 C326.72064453 237.2237207 326.77478516 238.27043945 326.83056641 239.34887695 C327.05197412 246.63520368 325.80485607 251.85886928 321.85400391 257.98950195 C316.58160025 263.26190561 310.67940282 264.28532599 303.51113504 264.31379175 C302.68164852 264.31202228 301.852162 264.31025281 300.99753952 264.30842972 C300.10892473 264.31048235 299.22030994 264.31253499 298.30476743 264.31464982 C295.3059274 264.32033628 292.30713306 264.31886054 289.30828857 264.31744385 C287.14501716 264.32002654 284.98174623 264.32303943 282.81847596 264.32644725 C276.85712964 264.33453175 270.89579535 264.33630763 264.93444419 264.33704472 C258.51166697 264.33889274 252.08889603 264.34643878 245.66612244 264.35317993 C230.88168238 264.36748289 216.09724479 264.37329101 201.31279902 264.37787188 C194.00821469 264.38020727 186.70363114 264.38380985 179.39904743 264.38756725 C154.39869119 264.40040281 129.39833539 264.41112226 104.39797592 264.41456985 C102.82843761 264.41479149 101.2588993 264.41501327 99.68936099 264.41523521 C98.11601592 264.41545585 96.54267085 264.41567633 94.96932578 264.41589665 C91.81288385 264.41633921 88.65644193 264.41678632 85.5 264.41723633 C84.7173852 264.41734572 83.93477041 264.41745511 83.12844001 264.41756782 C57.74762733 264.42119909 32.3668432 264.43712175 6.98604145 264.46042669 C-19.84302994 264.48501645 -46.67208502 264.49874229 -73.50116801 264.49993777 C-76.44567156 264.50010923 -79.39017511 264.50032466 -82.33467865 264.5005722 C-83.05970727 264.50062797 -83.78473588 264.50068374 -84.53173506 264.5007412 C-96.20493313 264.50189236 -107.87810191 264.51291979 -119.55129008 264.52745926 C-131.28176426 264.54181757 -143.01219765 264.54481226 -154.74267825 264.53701928 C-161.0990204 264.53310458 -167.45526392 264.53408242 -173.81159401 264.54807663 C-179.62840689 264.56076617 -185.44504655 264.55966159 -191.26185903 264.54748592 C-193.36819522 264.54552033 -195.47454347 264.54864686 -197.58086267 264.55733028 C-200.44117537 264.56837719 -203.30087179 264.56096648 -206.16116714 264.54893875 C-207.39134993 264.56033154 -207.39134993 264.56033154 -208.64638489 264.57195449 C-216.16006899 264.50362217 -222.86549875 262.64499929 -228.33349609 257.17700195 C-239.40568805 238.19610146 -230.11525134 203.80011348 -224.98583984 183.7355957 C-223.57729222 178.50309502 -222.00271245 173.33178561 -220.33349609 168.17700195 C-220.0826123 167.39969727 -219.83172852 166.62239258 -219.57324219 165.8215332 C-212.86954355 145.50781747 -203.41531203 125.83541463 -191.33349609 108.17700195 C-190.92921387 107.57887695 -190.52493164 106.98075195 -190.10839844 106.36450195 C-184.07351094 97.48558702 -177.45080037 89.20827699 -170.33349609 81.17700195 C-169.85654297 80.63688477 -169.37958984 80.09676758 -168.88818359 79.5402832 C-126.78978184 32.15144059 -64.02753899 0.16891056 0 0 Z M-40.20849609 43.98950195 C-41.16353027 44.24957031 -42.11856445 44.50963867 -43.10253906 44.77758789 C-95.31281066 59.33850131 -140.31226421 94.43416798 -166.97753906 141.70043945 C-180.84684494 167.03177522 -192.33349609 195.94321479 -192.33349609 225.17700195 C-34.26349609 225.17700195 123.80650391 225.17700195 286.66650391 225.17700195 C286.66650391 179.35542547 261.73886991 133.59652049 230.66650391 101.17700195 C229.83723389 100.29890869 229.83723389 100.29890869 228.99121094 99.40307617 C199.31141044 68.09133996 159.35594293 46.95432163 116.66650391 40.17700195 C115.63510284 40.01068771 114.60370178 39.84437347 113.54104614 39.67301941 C101.18675816 37.89911017 88.9341437 37.8674129 76.47119141 37.8762207 C74.14779587 37.87232174 71.82440103 37.86798466 69.50100708 37.86323547 C64.65152671 37.85581598 59.80211919 37.85603265 54.95263672 37.86132812 C48.80084112 37.86710693 42.64934816 37.85020882 36.49760246 37.82698345 C31.70313839 37.81210158 26.90874471 37.81139402 22.11426163 37.81449318 C19.84932991 37.81398686 17.58439351 37.80888218 15.31948471 37.79868126 C-3.45535623 37.72449948 -22.03995077 38.90272226 -40.20849609 43.98950195 Z " fill="#000000" transform="translate(292.33349609375,393.822998046875)"/>
<path d="M0 0 C29.04284926 26.59235885 48.4744413 61.39353326 54 100.625 C54.0928125 101.26058838 54.185625 101.89617676 54.28125 102.55102539 C59.84913038 145.25965071 49.04510499 190.70315659 22.94116211 225.17285156 C-1.3497179 256.26448973 -32.70639843 278.50914098 -71.125 288.375 C-71.89980713 288.57399902 -72.67461426 288.77299805 -73.47290039 288.97802734 C-86.33710527 292.09540616 -99.01416986 293.00404815 -112.1875 292.9375 C-112.95757385 292.93534485 -113.72764771 292.9331897 -114.52105713 292.93096924 C-126.2427133 292.87840031 -137.56753018 292.4283353 -149 289.625 C-150.24595947 289.32698486 -150.24595947 289.32698486 -151.51708984 289.02294922 C-196.48712573 277.96474367 -233.63450224 249.66018964 -257.703125 210.26953125 C-266.01896674 196.17587098 -271.82484961 181.08505896 -275.875 165.25 C-276.06618408 164.50314941 -276.25736816 163.75629883 -276.4543457 162.98681641 C-279.40086977 150.60419279 -280.36868338 138.13654833 -280.3125 125.4375 C-280.30926727 124.43061127 -280.30926727 124.43061127 -280.30596924 123.40338135 C-280.11841359 86.75847656 -268.26483828 51.73987075 -246 22.625 C-245.29230469 21.69171875 -244.58460938 20.7584375 -243.85546875 19.796875 C-217.12314464 -14.12689066 -177.78488455 -36.31532439 -134.96484375 -42.0390625 C-133.98644531 -42.14992188 -133.00804687 -42.26078125 -132 -42.375 C-130.54787109 -42.54128906 -130.54787109 -42.54128906 -129.06640625 -42.7109375 C-81.58752642 -47.37685663 -35.50436261 -31.42466877 0 0 Z M-147 -0.375 C-148.88912109 0.11613281 -148.88912109 0.11613281 -150.81640625 0.6171875 C-167.37657242 5.5119939 -182.96294125 14.37383971 -196 25.625 C-196.96164063 26.43710938 -197.92328125 27.24921875 -198.9140625 28.0859375 C-223.52340717 49.57674263 -239.08634805 81.12183539 -242 113.625 C-243.55850923 143.2034514 -237.42944477 173.18126648 -220 197.625 C-219.28328125 198.63820313 -218.5665625 199.65140625 -217.828125 200.6953125 C-197.08140677 229.20797348 -167.55001845 247.24720073 -133 253.625 C-116.56610554 256.20722483 -99.14189109 255.62796835 -83 251.625 C-82.30503418 251.45871094 -81.61006836 251.29242188 -80.89404297 251.12109375 C-69.79535169 248.39625025 -60.00267742 244.09107683 -50 238.625 C-48.94039062 238.06941406 -47.88078125 237.51382813 -46.7890625 236.94140625 C-38.63886651 232.48125963 -31.8148152 226.87450237 -25 220.625 C-24.47873535 220.14901367 -23.9574707 219.67302734 -23.42041016 219.18261719 C0.39554902 197.15154802 15.51628366 165.65470796 17.12231445 133.14941406 C18.13778304 100.69123384 9.42290629 66.73639067 -12.75 42.0625 C-14.16583292 40.58253527 -15.58240164 39.10327378 -17 37.625 C-17.96602401 36.44374785 -18.9250529 35.25671921 -19.875 34.0625 C-23.97637539 29.24734933 -29.01331365 25.47521777 -34 21.625 C-34.74765625 21.03847656 -35.4953125 20.45195313 -36.265625 19.84765625 C-49.59649996 9.94272293 -65.00013181 2.88895208 -81 -1.375 C-81.97525635 -1.63966064 -81.97525635 -1.63966064 -82.97021484 -1.90966797 C-103.52301921 -7.1931787 -126.67753508 -5.96144797 -147 -0.375 Z " fill="#000000" transform="translate(452,64.375)"/>
</svg>
