<?xml version="1.0" encoding="UTF-8"?>
<svg xmlns="http://www.w3.org/2000/svg" xmlns:xlink="http://www.w3.org/1999/xlink" version="1.1" id="Capa_1" x="0px" y="0px" viewBox="0 0 512 512" style="enable-background:new 0 0 512 512;" xml:space="preserve" width="512" height="512">
<g>
	<g>
		
			<path id="XMLID_60_" style="fill:none;stroke:#000000;stroke-width:20;stroke-linecap:round;stroke-linejoin:round;stroke-miterlimit:10;" d="&#10;&#9;&#9;&#9;M210.204,209.812c-6.426-2.098-11.527-7.38-13.234-14.208c-0.743-2.982-1.094-5.944-1.094-8.856&#10;&#9;&#9;&#9;c0-19.419,15.754-36.177,36.257-36.177h47.734c23.576,0,40.876,22.16,35.163,45.033c-1.115,4.468-3.685,8.274-7.129,10.954&#10;&#9;&#9;&#9;c-1.817,1.426-3.886,2.53-6.105,3.253"/>
		
			<path id="XMLID_59_" style="fill:none;stroke:#000000;stroke-width:20;stroke-linecap:round;stroke-linejoin:round;stroke-miterlimit:10;" d="&#10;&#9;&#9;&#9;M230.898,150.571v-19.368c0-45.46-18.059-89.058-50.204-121.203h0"/>
		
			<path id="XMLID_58_" style="fill:none;stroke:#000000;stroke-width:20;stroke-linecap:round;stroke-linejoin:round;stroke-miterlimit:10;" d="&#10;&#9;&#9;&#9;M281.102,150.571v-19.368c0-45.46,18.059-89.058,50.204-121.203v0"/>
		
			<polyline id="XMLID_57_" style="fill:none;stroke:#000000;stroke-width:20;stroke-linecap:round;stroke-linejoin:round;stroke-miterlimit:10;" points="&#10;&#9;&#9;&#9;100.367,170.653 130.49,190.735 140.531,230.898 180.644,250.949 &#9;&#9;"/>
		
			<polyline id="XMLID_55_" style="fill:none;stroke:#000000;stroke-width:20;stroke-linecap:round;stroke-linejoin:round;stroke-miterlimit:10;" points="&#10;&#9;&#9;&#9;50.163,371.469 90.326,351.388 110.408,301.184 164.699,301.184 &#9;&#9;"/>
		
			<polyline id="XMLID_53_" style="fill:none;stroke:#000000;stroke-width:20;stroke-linecap:round;stroke-linejoin:round;stroke-miterlimit:10;" points="&#10;&#9;&#9;&#9;90.326,502 134.506,471.878 120.449,401.592 163.635,385.396 &#9;&#9;"/>
		
			<polyline id="XMLID_51_" style="fill:none;stroke:#000000;stroke-width:20;stroke-linecap:round;stroke-linejoin:round;stroke-miterlimit:10;" points="&#10;&#9;&#9;&#9;331.356,250.949 371.469,230.898 381.51,190.735 411.633,170.653 &#9;&#9;"/>
		
			<polyline id="XMLID_47_" style="fill:none;stroke:#000000;stroke-width:20;stroke-linecap:round;stroke-linejoin:round;stroke-miterlimit:10;" points="&#10;&#9;&#9;&#9;347.301,301.184 401.592,301.184 421.673,351.388 461.837,371.469 &#9;&#9;"/>
		
			<polyline id="XMLID_46_" style="fill:none;stroke:#000000;stroke-width:20;stroke-linecap:round;stroke-linejoin:round;stroke-miterlimit:10;" points="&#10;&#9;&#9;&#9;348.366,385.396 391.551,401.592 377.494,471.878 421.673,502 &#9;&#9;"/>
		
			<ellipse id="XMLID_45_" style="fill:none;stroke:#000000;stroke-width:20;stroke-linecap:round;stroke-linejoin:round;stroke-miterlimit:10;" cx="256" cy="346.367" rx="95.388" ry="155.633"/>
		
			<path id="XMLID_44_" style="fill:none;stroke:#000000;stroke-width:20;stroke-linecap:round;stroke-linejoin:round;stroke-miterlimit:10;" d="&#10;&#9;&#9;&#9;M256,281.102c29.354,0,55.765-12.599,74.124-32.681c-17.488-35.188-44.194-57.686-74.124-57.686s-56.636,22.497-74.124,57.686&#10;&#9;&#9;&#9;C200.235,268.503,226.646,281.102,256,281.102z"/>
	</g>
</g>















</svg>
