<svg id="line" viewBox="0 0 64 64" xmlns="http://www.w3.org/2000/svg"><path d="m59.14258 13.73682c1.27851-.19081 1.03229-2.14614-.28522-1.97947-4.18103.60263-7.02014 5.64969-7.99347 7.65622-.95911-.242-1.91339-.3703-2.84692-.39886.46753-2.47699 2.08307-8.59979 6.98254-11.59479 1.09527-.67408.10366-2.38799-1.04302-1.70601-5.9643 3.64564-7.60627 11.00569-7.99354 13.40663-3.30273.45251-6.05945 2.245-7.20758 4.97736-4.02216-2.22533-10.70022-.81782-13.7197 2.72901-3.08076-4.05914-8.87036-4.38778-13.62937-2.26837-7.32232 3.28716-7.4063 12.21392-7.4063 12.59234-.34057.72959 5.04763 5.01561 10.20255 5.02499 4.06458.0877 8.48404-3.25436 10.52073-6.3222.65049.67075 1.46592 1.23289 2.41154 1.65342l-1.69147 7.83276-7.80713-1.44043c-.41455-.07715-.82764.11279-1.04199.47314l-7.44238 12.55029c-.64441 1.10958 1.02755 2.15639 1.72075 1.02044-.00005.00007 7.08638-11.95061 7.08638-11.95061l8.0752 1.48975c.53271.09424 1.04443-.24414 1.15918-.77246 0 0 1.85455-8.58679 1.85455-8.58679 1.1415.25097 2.37215.3192 3.55792.19427 0 0 1.49377 6.13618 1.49377 6.13618.10938.44824.51074.76367.97168.76367h7.85596l5.56592 11.32568c.59316 1.16149 2.35867.31425 1.79489-.88188.00003.00005-5.84079-11.88472-5.84079-11.88472-.16797-.34229-.51611-.55908-.89746-.55908h-7.69287l-1.27759-5.24866c1.46027-.37476 2.80511-.98566 3.95972-1.77252l2.72119 3.41522c.18994.23828.47754.37695.78223.37695h5.46533s2.56592 5.95557 2.56592 5.95557c.0752.17383.19775.32324.354.43018l5.84082 3.99316c1.07706.71745 2.21385-.88007 1.12886-1.6514.00005.00003-5.60151-3.82956-5.60151-3.82956s-2.71143-6.29346-2.71143-6.29346c-.1582-.3667-.51904-.60449-.91846-.60449h-5.6416l-2.43805-3.05975c.45215-.45111.83661-.93311 1.16541-1.43353 4.67901 4.56413 9.65064 3.964 15.14476.96531 1.84908-1.04625 2.88668-2.06383 3.08345-3.02379.45093-2.20093-2.89807-9.1405-6.73236-11.31293.90466-1.81824 3.27582-5.93707 6.39496-6.38678zm-41.52686 25.63037c-4.89648 2.46338-10.22363-1.51416-11.59521-2.6543.11865-1.71289.9126-7.9541 6.20508-10.33008 4.0478-1.79535 9.36405-1.63039 11.54426 2.23296-.91691 1.79299-1.06002 3.68435-.27962 5.41047-1.11712 2.08435-3.22393 4.01428-5.8745 5.34094zm10.99365-3.42676c-3.2527-.96116-4.59415-4.20977-2.85338-6.78373 2.11922-3.68619 8.93292-5.39213 12.48098-3.05631-.21885 1.99043.38949 4.01467 1.6437 5.79531-1.97846 3.66909-7.39121 5.34076-11.2713 4.04474zm28.9126-4.91064c-.08594.25879-.88477 1.09863-2.83154 2.07373-2.96338 1.48486-6.16602 2.12402-7.79199 1.55127-4.78125-1.68311-7.62012-5.80322-6.46191-9.37939 1.14484-3.87592 6.79005-5.1383 10.67582-3.71861 3.38522 1.09117 6.63326 8.2523 6.40963 9.473z"/><path d="m48.99249 23.51709c-1.62005.02763-1.61976 2.46047.00005 2.48785 1.61994-.02761 1.61977-2.46046-.00005-2.48785z"/></svg>