<?xml version="1.0" encoding="UTF-8"?>
<svg id="svg3561" xmlns="http://www.w3.org/2000/svg" xmlns:xlink="http://www.w3.org/1999/xlink" xmlns:svg="http://www.w3.org/2000/svg" version="1.1" viewBox="0 0 682.7 682.7">
  <!-- Generator: Adobe Illustrator 29.1.0, SVG Export Plug-In . SVG Version: 2.1.0 Build 142)  -->
  <defs>
    <style>
      .st0, .st1 {
        fill: none;
      }

      .st1 {
        stroke: #000;
        stroke-linecap: round;
        stroke-linejoin: round;
        stroke-width: 25px;
      }

      .st2 {
        clip-path: url(#clippath);
      }
    </style>
    <clipPath id="clippath">
      <rect class="st0" width="682.7" height="682.7"/>
    </clipPath>
  </defs>
  <g id="g3567">
    <g id="g3569">
      <g class="st2">
        <g id="g3571">
          <g id="g3577">
            <path id="path3579" class="st1" d="M461.3,302.7v166.8c0,67.6-43.2,127.6-107.4,148.9-8.2,2.7-17.1,2.7-25.3,0-64.1-21.4-107.4-81.4-107.4-148.9v-166.8h240Z"/>
          </g>
          <g id="g3581">
            <path id="path3583" class="st1" d="M101.3,182.7l40,80,80,40"/>
          </g>
          <g id="g3585">
            <path id="path3587" class="st1" d="M61.3,422.7h40l40-40h80"/>
          </g>
          <g id="g3589">
            <path id="path3591" class="st1" d="M221.3,449.3l-80,53.3v120l-40,40"/>
          </g>
          <g id="g3593">
            <path id="path3595" class="st1" d="M581.3,182.7l-40,80-80,40"/>
          </g>
          <g id="g3597">
            <path id="path3599" class="st1" d="M621.3,422.7h-40l-40-40h-80"/>
          </g>
          <g id="g3601">
            <path id="path3603" class="st1" d="M461.3,449.3l80,53.3v120l40,40"/>
          </g>
          <g id="g3605">
            <path id="path3607" class="st1" d="M421.3,262.7c0,44.2-35.8,40-80,40s-80,4.2-80-40,80-120,80-120c0,0,80,75.8,80,120Z"/>
          </g>
          <g id="g3609">
            <path id="path3611" class="st1" d="M341.3,20v122.7"/>
          </g>
          <g id="g3613">
            <path id="path3615" class="st1" d="M281.3,162.7l21.5,21.5"/>
          </g>
          <g id="g3617">
            <path id="path3619" class="st1" d="M379.8,184.2l21.5-21.5"/>
          </g>
          <g id="g3621">
            <path id="path3623" class="st1" d="M381.3,302.1v40.5c0,22.1-17.9,40-40,40s-40-17.9-40-40v-40.5"/>
          </g>
          <g id="g3625">
            <path id="path3627" class="st1" d="M341.3,382.7v237.8"/>
          </g>
        </g>
      </g>
    </g>
  </g>
</svg>