<?xml version="1.0" encoding="UTF-8"?>
<svg id="Layer_1" xmlns="http://www.w3.org/2000/svg" version="1.1" viewBox="0 0 512 512">
  <!-- Generator: Adobe Illustrator 29.1.0, SVG Export Plug-In . SVG Version: 2.1.0 Build 142)  -->
  <path d="M467.8,369.9l-104.7-104.9c-3.6-3.4-9.3-3.4-12.9,0l-20.8,20.8-24.5-24.4,59-59.3c24.7-1.3,57.5-1.2,59-1.4,6.1-.9,17.9-10.4,57.6-63.8,1.1-1.5,1.7-3.3,1.8-5.2v-24c0-3.3-1.7-6.3-4.6-7.9-2.8-1.7-6.3-1.7-9.1,0l-42,24.9c-3.6,1.1-19.3,4.8-32.8-14.3-14.5-20.8-8-30.7,1.1-38.6,13.7-9.8,28-18.9,42.7-27.1,2.7-1.6,4.4-4.4,4.6-7.5.1-3.1-1.4-6.1-3.9-7.8-1.3-.9-32.9-22-87.2-1-41.9,16.2-47.8,37.5-48.3,39.9l-8.9,63.1-59.4,59.4-53.1-53.2c2.3-5.8,3.5-11.9,3.5-18.2,0-13.1-5.2-25.6-14.4-34.8-.4-.5-.9-.9-1.5-1.2L79.1,24.9c-3.6-2.4-8.3-1.9-11.4,1.1L30.4,63.4c-3,3-3.5,7.8-1.1,11.4l58.6,89.7c.4.5.8,1,1.2,1.5,9.2,9.3,21.7,14.4,34.7,14.4,6.2,0,12.4-1.2,18.2-3.5l53.1,53.2-65,65-62.3,8.8h-.7c-2.4.6-23.7,6.4-39.9,48.4-20.8,54.3,0,85.9,1,87.2,1.7,2.5,4.6,4,7.7,4,3.1-.1,5.9-1.8,7.5-4.5,8.3-14.7,17.3-28.9,27.1-42.7,7.8-9.2,18-15.6,38.6-1.2,19.2,13.6,15.6,29.4,14.3,32.8l-24.9,42c-2.6,4.3-1.2,9.8,3.1,12.4,1.4.9,3.1,1.3,4.7,1.3h24c1.9,0,3.7-.7,5.2-1.8,54.5-40.3,63.2-51.9,63.9-57.8,0-1.2,0-34.1,1.3-58.7l64.8-64.5,24.7,24.3-20.8,20.8c-3.5,3.6-3.5,9.3,0,12.9l104.9,104.8c24.5,24.5,64.3,24.5,88.8,0l4.7-4.7c24.5-24.4,24.6-64.1.2-88.6,0,0-.1-.1-.2-.2h-.2ZM308.8,142.1c1.4-1.4,2.3-3.2,2.5-5.2l9.2-64.6c.6-1.5,6.6-15,37.1-26.8,17.2-7.5,36.2-9.9,54.7-6.9-10.1,5.8-19.8,12.3-29.1,19.4-25,21.4-16,45.9-4.2,62.8,18.5,26.3,44.1,25,54.9,20.8.4,0,30.3-17.8,30.3-17.8v5.2c-17,22.8-37.5,48.2-44.5,53.8-11.9-.6-45.2,1-60.1,1.8-2.3.1-4.4,1.1-6,2.6l-61.5,61.2-15.6-15.6,59.3-59.5c3.8-3.2,4.3-9,1.1-12.8-3.2-3.8-9-4.3-12.8-1.1-.4.3-.8.7-1.1,1.1l-59.4,59.4-16.3-16.4,61.5-61.5ZM123.7,162.1c-7.9,0-15.5-3-21.2-8.4l-53.9-82.7,26.9-26.9,82.7,54.1c11.4,12.2,11.2,31.3-.6,43.2l-11.9,11.9c-5.8,5.8-13.7,9.1-21.9,9v-.2ZM185.7,354.9c-1.6,1.6-2.5,3.7-2.6,5.9-.8,15-2.4,48.1-1.8,60.1-5.6,7-31.2,27.5-53.9,44.5h-5.2s17.7-29.7,18-30.3c4.4-10.9,5.8-36.3-20.8-54.9-16.9-11.8-41.5-20.8-62.9,4.2-7,9.3-13.5,19-19.4,29.1-3-18.5-.6-37.5,6.9-54.7,11.8-30.7,25.4-36.3,26.8-37.1l64.8-9.2c2-.3,3.8-1.1,5.2-2.5l67.1-67.2,16.4,16.3-65.6,65.6c-3.5,3.5-3.6,9.2-.1,12.7,0,0,0,0,.1.1,3.5,3.5,9.2,3.6,12.7.1,0,0,0,0,.1-.1l65.6-65.6,15.6,15.6-67,67.3ZM157.5,166.8l.9-.8,11.8-11.8.8-.9,145.4,145.4-13.6,13.6-145.4-145.4ZM455,446.1l-4.7,4.8c-17.5,17.4-45.7,17.4-63.1,0l-98.4-98.6,20.8-20.8,26.5-26.4,20.8-20.8,98.6,98.6c17.3,17.5,17.2,45.7-.2,63,0,0-.1.1-.2.2h0Z"/>
  <path d="M351,333.8c-3.5-3.5-9.2-3.6-12.7-.1,0,0,0,0-.1.1-3.5,3.5-3.5,9.3,0,12.8l77.9,77.9c3.6,3.6,9.3,3.6,12.9,0s3.6-9.3,0-12.9h0l-77.9-77.8Z"/>
</svg>