<svg id="Image" height="512" viewBox="0 0 64 64" width="512" xmlns="http://www.w3.org/2000/svg"><path d="m38.76 47.718c.701.832 1.45 1.623 2.237 2.364l1.032 4.159c.035.14.1.271.189.384l4 5c.822 1.024 2.396-.207 1.563-1.249l-3.863-4.829-.339-1.367c5.55 3.832 13.421 4.345 13.421-2.18 0-4.312-7.994-16.383-11.72-20.866l3.134-3.134h5.586c.127 0 .253-.024.371-.071l5-2c1.226-.492.488-2.346-.742-1.857l-4.821 1.928h-5.808c-.266 0-.52.105-.707.293l-3.329 3.329c-1.508-1.653-2.896-2.873-3.99-3.37-.014-.26-.037-.507-.065-.747l3.798-3.798c.188-.187.293-.442.293-.707v-5.586l7.707-7.707c.936-.936-.479-2.349-1.414-1.414l-8 8c-.188.187-.293.442-.293.707v5.586l-2.627 2.626c-.375-.993-.861-1.703-1.313-2.194 1.434-1.711 1.479-5.487-1.481-6.024-.41-.541-1.128-1.006-1.916-1.35l1.209-2.155c.649-1.154-1.1-2.133-1.744-.979l-1.43 2.549c-.512-.08-.883-.08-1.395 0l-1.43-2.549c-.644-1.155-2.393-.176-1.744.979l1.209 2.155c-.788.344-1.506.809-1.916 1.35-2.96.536-2.915 4.312-1.481 6.024-.452.491-.938 1.201-1.313 2.194l-2.628-2.626v-5.586c0-.265-.105-.52-.293-.707l-8-8c-.935-.935-2.35.478-1.414 1.414l7.707 7.707v5.586c0 .265.105.52.293.707l3.798 3.798c-.028.24-.051.487-.065.747-1.095.498-2.482 1.717-3.99 3.37l-3.329-3.329c-.187-.188-.441-.293-.707-.293h-5.808l-4.821-1.929c-1.231-.489-1.968 1.366-.742 1.857l5 2c.118.048.244.072.371.072h5.586l3.134 3.134c-3.726 4.483-11.72 16.554-11.72 20.866 0 6.525 7.871 6.012 13.421 2.179l-.339 1.367-3.863 4.829c-.833 1.042.741 2.273 1.563 1.249l4-5c.09-.113.154-.244.189-.384l1.032-4.159c.787-.741 1.536-1.532 2.237-2.364 1.615 9.731 11.906 9.728 13.52.001zm-2.129-2.816c.113.165.23.328.346.492-.019.601-.064 1.167-.139 1.693-1.684 1.617-2.885 1.913-4.838 1.913s-3.154-.296-4.837-1.912c-.075-.526-.12-1.092-.139-1.693.116-.164.233-.327.346-.492 2.117 1.488 7.128 1.499 9.261-.001zm-2.547-4.271c.443.853.934 1.724 1.468 2.596-1.391 1.052-5.702 1.059-7.103 0 .533-.872 1.024-1.743 1.468-2.596 1.291.49 2.86.496 4.167 0zm-.184-21.631c.54.662 1.283 1.041 2.275.98.472.344 1.628 1.466 1.803 4.282-1.757.709-4.525 2.785-5.977 4.974-1.453-2.189-4.22-4.265-5.977-4.974.175-2.816 1.331-3.937 1.803-4.282.992.061 1.735-.318 2.275-.98zm-1.9 16.941c.324.885.721 1.857 1.197 2.886-.733.228-1.638.235-2.393 0 .475-1.029.872-2.001 1.196-2.886zm1-3.941c0-1.252 1.53-2.92 3.069-4.18 1.043 2.001 1.924 4.071 2.635 6.195-1.853-.424-4.124-.437-5.381-.401-.212-.725-.323-1.286-.323-1.614zm-2.323 1.614c-1.257-.035-3.528-.022-5.381.401.711-2.124 1.592-4.194 2.635-6.195 1.539 1.26 3.069 2.928 3.069 4.18 0 .328-.111.889-.323 1.614zm11.838 8.035c1.574.086 3.158.32 3.825.643.523 3.184.826 6.404.909 9.649-1.561-.696-3.015-1.696-4.353-2.889.081-2.484-.055-4.958-.381-7.403zm-21.41 7.404c-1.338 1.193-2.792 2.193-4.353 2.889.083-3.245.386-6.466.909-9.649.666-.323 2.25-.557 3.825-.643-.327 2.444-.463 4.918-.381 7.403zm25.471-14.928c2.959 4.088 5.943 8.895 7.439 12.379-1.772-.486-3.874-.397-5.13-.275-.425-4.094-1.195-8.137-2.309-12.104zm-31.461 12.104c-1.256-.122-3.358-.212-5.13.275 1.495-3.484 4.48-8.291 7.439-12.379-1.114 3.967-1.884 8.01-2.309 12.104zm27.897-16.677c1.255 3.443 2.223 6.96 2.926 10.527-1.26-.306-2.732-.414-3.733-.45-.776-4.302-2.245-8.744-4.499-12.999.575-.362 1.051-.597 1.301-.629.729.062 2.219 1.456 4.005 3.551zm-18.019-3.551c.25.033.726.267 1.301.629-2.254 4.255-3.723 8.697-4.499 12.999-1.001.036-2.473.143-3.733.45.704-3.567 1.672-7.084 2.926-10.527 1.786-2.095 3.276-3.489 4.005-3.551zm11.007-8.001c-.972 0-1-1.795-1-2 0-.697.834-1.003 1.015-1.061.466.02.985.229.985 1.061 0 .02-.012 2-1 2zm-9-2c0-.832.519-1.041.985-1.061.181.058 1.015.364 1.015 1.061 0 .205-.028 2-1 2-.988 0-1-1.98-1-2zm7.218-2.344c-1.199.915-1.343 2-1.137 3.344h-2.161c.206-1.344.062-2.428-1.137-3.344 1.621-.86 2.811-.861 4.435 0zm-2.218 37.344c1.58 0 2.784-.226 3.894-.769-1.893 3.691-5.892 3.698-7.788 0 1.11.543 2.314.769 3.894.769zm2.011-15.397c2.014-.008 4.392.191 5.394.733.952 3.493 1.468 7.098 1.51 10.742-3.274-3.661-5.651-8.258-6.904-11.475zm-10.927 11.475c.042-3.644.558-7.249 1.51-10.742 1.002-.542 3.38-.741 5.394-.733-1.252 3.217-3.629 7.814-6.904 11.475zm26.183 5.566c-.023-1.479-.093-2.954-.205-4.423 2.006-.191 5.047-.137 5.852 1.01.489 2.685-1.01 4.587-5.647 3.413zm-40.181-3.412c.805-1.147 3.846-1.201 5.852-1.01-.112 1.469-.182 2.943-.205 4.423-4.637 1.173-6.136-.729-5.647-3.413z"/></svg>