<?xml version="1.0" encoding="UTF-8"?>
<svg id="Layer_1" xmlns="http://www.w3.org/2000/svg" version="1.1" viewBox="0 0 512 512">
  <!-- Generator: Adobe Illustrator 29.1.0, SVG Export Plug-In . SVG Version: 2.1.0 Build 142)  -->
  <path d="M493.5,419.6l-38.9-19.8-13.7-53.4c2.3-4.6,3.8-9.1,3.8-15.2,0-16.8-13-29.7-29-31.3,5.3-21.3-29.7-79.3-77.8-83.1,3-44.2-122-202.8-178.4-202.8s-26.7,4.6-29.7,36.6c-3,33.5,40.4,77,86.9,112.1-43.5-16-89.2-27.4-109-16.8-7.6,3.8-18.3,13.7-8.4,38.1,15.2,35.8,104.4,49.6,158.6,54.9-48,15.2-186,62.5-173.8,112.1,1.5,14.5,14.5,23.6,37.4,12.2,32-16.8,140.3-68.6,174.6-69.4,2.3,4.6,6.9,13,13.7,20.6l-46.5-6.9c-2.3,0-4.6.8-6.1,2.3s-2.3,3.8-2.3,6.1l4.6,37.4-16,6.9c-108.3,22.1-105.2,21.3-106.7,22.1l-109,38.9c-3.8,1.5-6.1,6.1-4.6,9.9s5.3,6.1,9.9,4.6l109-38.9c112.8-22.9,106-21.3,107.5-22.1l12.2-5.3,5.3,41.9-38.9,83.9c-1.5,3.8,0,8.4,3.8,9.9s8.4,0,9.9-3.8l39.6-85.4c.8-1.5.8-3,.8-3.8l-6.1-48,61.8-26.7,28.2,45-6.9,63.3c0,2.3.8,4.6,2.3,6.1l45.7,47.3c3,3,7.6,3,10.7,0s3-7.6,0-10.7l-42.7-45,6.1-63.3c0-1.5,0-3-.8-4.6l-25.2-38.9c8.4,0,16.8-2.3,25.9-6.1v.8c0,17.5,13.7,31.3,31.3,31.3s5.3-.8,7.6-.8l-17.5,59.5c-.8,2.3,0,4.6,1.5,6.9l42.7,57.9c2.3,3,7.6,3.8,10.7,1.5s3.8-7.6,1.5-10.7l-40.4-54.9,13.7-46.5,8.4,31.3c.8,2.3,2.3,3.8,3.8,4.6l41.9,21.3c3.8,1.5,8.4.8,9.9-3,2.3-3,.8-7.6-3-9.9h0ZM145.1,52.9c.8-13,4.6-20.6,10.7-22.1,32.8-9.1,110.5,86.1,131.1,115.1,30.5,42.7,37.4,65.6,35.8,71.7-36.6-21.3-182.2-115.1-177.6-164.7h0ZM136.7,306.8c12.2-6.9,26.7-14.5,41.9-21.3,10.7,6.1,14.5,14.5,12.2,28.2-14.5,6.9-29,13-41.2,19.1-.8-10.7-5.3-19.8-13-25.9ZM194.6,278.6c13.7-5.3,28.2-10.7,42.7-16,11.4,5.3,16,13.7,13.7,26.7-14.5,4.6-29.7,10.7-45,17.5.8-11.4-3-21.3-11.4-28.2ZM255.6,256.5c9.9-3,19.1-6.1,29-9.1,0,9.1.8,21.3,4.6,32-6.1.8-13.7,2.3-22.1,4.6,0-11.4-3.8-20.6-11.4-27.4h0ZM113.8,178c-2.3-4.6-4.6-13-1.5-16.8,19.8-21.3,163.1,37.4,181.4,65.6-37.4-1.5-165.4-13.7-179.9-48.8ZM114.6,349.5c-16,8.4-14.5.8-15.2-2.3-2.3-9.9,6.9-20.6,23.6-32.8,9.1,5.3,13,13,11.4,24.4-9.9,6.1-17.5,9.1-19.8,10.7h0ZM270.8,324.3l41.9,6.1-38.9,16.8-3-22.9ZM341,319c-21.3-8.4-41.9-38.1-41.2-77,3,0,6.9-6.1,24.4-8.4,49.6-7.6,80,54.1,76.2,64.8-3.8,10.7-36.6,29.7-59.5,20.6ZM396.6,332c0-9.1,7.6-16,16-16s16,7.6,16,16-7.6,16-16,16-16-6.9-16-16Z"/>
</svg>