<?xml version="1.0" encoding="UTF-8" standalone="no"?>
<!-- Created with Inkscape (http://www.inkscape.org/) -->

<svg
   version="1.1"
   id="svg2865"
   xml:space="preserve"
   width="682.66669"
   height="682.66669"
   viewBox="0 0 682.66669 682.66669"
   xmlns="http://www.w3.org/2000/svg"
   xmlns:svg="http://www.w3.org/2000/svg"><defs
     id="defs2869"><clipPath
       clipPathUnits="userSpaceOnUse"
       id="clipPath2879"><path
         d="M 0,512 H 512 V 0 H 0 Z"
         id="path2877" /></clipPath></defs><g
     id="g2871"
     transform="matrix(1.3333333,0,0,-1.3333333,0,682.66667)"><g
       id="g2873"><g
         id="g2875"
         clip-path="url(#clipPath2879)"><g
           id="g2881"
           transform="translate(296.5293,264.4986)"><path
             d="m 0,0 c 0,-74.535 -18.146,-184.93 -40.529,-184.93 -22.384,0 -40.53,110.395 -40.53,184.93 0,74.535 18.146,84.986 40.53,84.986 C -18.146,84.986 0,74.535 0,0 Z"
             style="fill:none;stroke:#000000;stroke-width:15;stroke-linecap:round;stroke-linejoin:round;stroke-miterlimit:10;stroke-dasharray:none;stroke-opacity:1"
             id="path2883" /></g><g
           id="g2885"
           transform="translate(256,349.4849)"><path
             d="M 0,0 C 8.24,0 15.904,-1.422 22.302,-6.93 27.244,8.239 15.914,23.796 0,23.796 -15.916,23.796 -27.244,8.24 -22.302,-6.93 -15.904,-1.422 -8.24,0 0,0 Z"
             style="fill:none;stroke:#000000;stroke-width:15;stroke-linecap:round;stroke-linejoin:round;stroke-miterlimit:10;stroke-dasharray:none;stroke-opacity:1"
             id="path2887" /></g><g
           id="g2889"
           transform="translate(256,311.5811)"><path
             d="m 0,0 c -14.082,0 -27.214,-1.744 -38.293,-8.388 -1.374,-9.915 -2.151,-21.897 -2.228,-36.358 11.529,7.824 25.482,9.816 40.521,9.816 15.039,0 28.992,-1.989 40.52,-9.813 -0.076,14.459 -0.853,26.441 -2.227,36.355 C 27.214,-1.744 14.082,0 0,0 Z"
             style="fill:none;stroke:#000000;stroke-width:15;stroke-linecap:round;stroke-linejoin:round;stroke-miterlimit:10;stroke-dasharray:none;stroke-opacity:1"
             id="path2891" /></g><g
           id="g2893"
           transform="translate(282.4638,133.7007)"><path
             d="m 0,0 c 2.275,10.121 4.328,21.17 6.12,32.704 -9.776,4.248 -20.849,5.458 -32.584,5.458 -11.734,0 -22.806,-1.213 -32.584,-5.46 1.792,-11.534 3.846,-22.582 6.12,-32.702 8.189,2.459 17.116,3.232 26.464,3.232 C -17.115,3.232 -8.188,2.459 0,0 Z"
             style="fill:none;stroke:#000000;stroke-width:15;stroke-linecap:round;stroke-linejoin:round;stroke-miterlimit:10;stroke-dasharray:none;stroke-opacity:1"
             id="path2895" /></g><g
           id="g2897"
           transform="translate(289.3125,436.8506)"><path
             d="M 0,0 C 0,0 -18.697,-27.536 -23.239,-65.836"
             style="fill:none;stroke:#000000;stroke-width:15;stroke-linecap:round;stroke-linejoin:round;stroke-miterlimit:10;stroke-dasharray:none;stroke-opacity:1"
             id="path2899" /></g><g
           id="g2901"
           transform="translate(400.8144,504.4995)"><path
             d="M 0,0 C 0,0 -76.986,-47.724 -122.8,-146.582"
             style="fill:none;stroke:#000000;stroke-width:15;stroke-linecap:round;stroke-linejoin:round;stroke-miterlimit:10;stroke-dasharray:none;stroke-opacity:1"
             id="path2903" /></g><g
           id="g2905"
           transform="translate(292.9004,311.5811)"><path
             d="m 0,0 31.936,7.648 39.263,46.913 v 37.79"
             style="fill:none;stroke:#000000;stroke-width:15;stroke-linecap:round;stroke-linejoin:round;stroke-miterlimit:10;stroke-dasharray:none;stroke-opacity:1"
             id="path2907" /></g><g
           id="g2909"
           transform="translate(296.1474,282.0078)"><path
             d="M 0,0 27.159,-9.181 76.111,-57.623 90.898,-94.337"
             style="fill:none;stroke:#000000;stroke-width:15;stroke-linecap:round;stroke-linejoin:round;stroke-miterlimit:10;stroke-dasharray:none;stroke-opacity:1"
             id="path2911" /></g><g
           id="g2913"
           transform="translate(296.1474,244.9444)"><path
             d="m 0,0 24.609,-21.069 37.735,-67.819 -7.65,-33.145"
             style="fill:none;stroke:#000000;stroke-width:15;stroke-linecap:round;stroke-linejoin:round;stroke-miterlimit:10;stroke-dasharray:none;stroke-opacity:1"
             id="path2915" /></g><g
           id="g2917"
           transform="translate(256,79.5689)"><path
             d="M 0,0 V -72.068"
             style="fill:none;stroke:#000000;stroke-width:15;stroke-linecap:round;stroke-linejoin:round;stroke-miterlimit:10;stroke-dasharray:none;stroke-opacity:1"
             id="path2919" /></g><g
           id="g2921"
           transform="translate(265.3554,85.9917)"><path
             d="M 0,0 C 0,0 6.619,-29.709 23.229,-53.675"
             style="fill:none;stroke:#000000;stroke-width:15;stroke-linecap:round;stroke-linejoin:round;stroke-miterlimit:10;stroke-dasharray:none;stroke-opacity:1"
             id="path2923" /></g><g
           id="g2925"
           transform="translate(271.5488,97.4605)"><path
             d="M 0,0 C 0,0 37.48,-59.96 91.021,-78.062"
             style="fill:none;stroke:#000000;stroke-width:15;stroke-linecap:round;stroke-linejoin:round;stroke-miterlimit:10;stroke-dasharray:none;stroke-opacity:1"
             id="path2927" /></g><g
           id="g2929"
           transform="translate(222.6875,436.8506)"><path
             d="M 0,0 C 0,0 18.697,-27.536 23.239,-65.836"
             style="fill:none;stroke:#000000;stroke-width:15;stroke-linecap:round;stroke-linejoin:round;stroke-miterlimit:10;stroke-dasharray:none;stroke-opacity:1"
             id="path2931" /></g><g
           id="g2933"
           transform="translate(111.1865,504.4995)"><path
             d="M 0,0 C 0,0 76.985,-47.724 122.799,-146.582"
             style="fill:none;stroke:#000000;stroke-width:15;stroke-linecap:round;stroke-linejoin:round;stroke-miterlimit:10;stroke-dasharray:none;stroke-opacity:1"
             id="path2935" /></g><g
           id="g2937"
           transform="translate(219.1006,311.5811)"><path
             d="M 0,0 -31.937,7.648 -71.2,54.561 v 37.79"
             style="fill:none;stroke:#000000;stroke-width:15;stroke-linecap:round;stroke-linejoin:round;stroke-miterlimit:10;stroke-dasharray:none;stroke-opacity:1"
             id="path2939" /></g><g
           id="g2941"
           transform="translate(215.8525,282.0078)"><path
             d="M 0,0 -27.159,-9.181 -76.111,-57.623 -90.898,-94.337"
             style="fill:none;stroke:#000000;stroke-width:15;stroke-linecap:round;stroke-linejoin:round;stroke-miterlimit:10;stroke-dasharray:none;stroke-opacity:1"
             id="path2943" /></g><g
           id="g2945"
           transform="translate(215.8525,244.9444)"><path
             d="m 0,0 -24.609,-21.069 -37.735,-67.819 7.65,-33.145"
             style="fill:none;stroke:#000000;stroke-width:15;stroke-linecap:round;stroke-linejoin:round;stroke-miterlimit:10;stroke-dasharray:none;stroke-opacity:1"
             id="path2947" /></g><g
           id="g2949"
           transform="translate(246.6445,85.9917)"><path
             d="M 0,0 C 0,0 -6.619,-29.709 -23.229,-53.675"
             style="fill:none;stroke:#000000;stroke-width:15;stroke-linecap:round;stroke-linejoin:round;stroke-miterlimit:10;stroke-dasharray:none;stroke-opacity:1"
             id="path2951" /></g><g
           id="g2953"
           transform="translate(240.4512,97.4605)"><path
             d="M 0,0 C 0,0 -37.48,-59.96 -91.021,-78.062"
             style="fill:none;stroke:#000000;stroke-width:15;stroke-linecap:round;stroke-linejoin:round;stroke-miterlimit:10;stroke-dasharray:none;stroke-opacity:1"
             id="path2955" /></g><g
           id="g2957"
           transform="translate(238.5,240.5005)"><path
             d="m 0,0 c -7.964,-1.266 -15.402,-3.674 -22.06,-7.958 0.626,-10.931 1.543,-22.146 2.719,-33.3 10.767,5.955 23.369,7.55 36.841,7.55 13.472,0 26.074,-1.595 36.841,-7.551 1.176,11.156 2.093,22.373 2.719,33.306 C 50.403,-3.67 42.964,-1.263 35,0.002"
             style="fill:none;stroke:#000000;stroke-width:15;stroke-linecap:round;stroke-linejoin:round;stroke-miterlimit:10;stroke-dasharray:none;stroke-opacity:1"
             id="path2959" /></g></g></g></g></svg>
