<?xml version="1.0" encoding="UTF-8"?>
<svg id="Layer_1" xmlns="http://www.w3.org/2000/svg" version="1.1" viewBox="0 0 512 512">
  <!-- Generator: Adobe Illustrator 29.1.0, SVG Export Plug-In . SVG Version: 2.1.0 Build 142)  -->
  <defs>
    <style>
      .st0 {
        stroke: #000;
        stroke-miterlimit: 10;
        stroke-width: 4px;
      }
    </style>
  </defs>
  <path class="st0" d="M26,242.2c.2,0,.5,0,.7,0l45.6-5.4c1.7-.2,3.1-1.1,4.1-2.4l55.1-74.9,41.4,23.1c-2.2,3.9-3.4,8.3-3.4,12.8,0,.7,0,1.3,0,1.9-15.1,15.6-26.8,34.2-34.4,54.6l-32.9-5.4c-3.3-.5-6.4,1.7-6.9,4.9,0,0,0,.2,0,.2l-19.7,159.4-28.3,20.1c-2.7,1.9-3.3,5.7-1.4,8.4,1.9,2.7,5.7,3.3,8.4,1.4h0l30.5-21.6c1.4-1,2.3-2.5,2.5-4.2l19.3-155.8,24.8,4.1c-5.1,17-7.6,34.6-7.6,52.3,0,47.9,22.5,92.7,65.2,129.4,31.9,27.5,63.4,40.6,64.7,41.2,1.4.6,3,.6,4.4,0,1.3-.5,32.9-12.7,64.8-39.7,42.7-36,65.2-81.3,65.2-130.9,0-17.7-2.5-35.3-7.6-52.3l24.8-4.1,19.3,155.8c.2,1.7,1.1,3.2,2.5,4.2l30.5,21.6c2.7,1.9,6.4,1.3,8.4-1.4,1.9-2.7,1.3-6.4-1.4-8.4l-28.3-20-19.7-159.4c-.4-3.3-3.4-5.6-6.7-5.2,0,0-.2,0-.2,0l-32.9,5.4c-7.6-20.4-19.3-39-34.4-54.6,0-.6,0-1.3,0-1.9,0-4.1-1-8.1-2.9-11.8l41.8-23.3,54.1,75.8c1,1.4,2.5,2.3,4.2,2.5l45.6,5.4c.2,0,.5,0,.7,0,3.3,0,6-2.7,6-6,0-3-2.3-5.6-5.3-6l-43-5.1-55.7-78.1c-1.8-2.5-5.1-3.2-7.8-1.8l-47.8,26.7c-5.8-5.7-13.9-10.8-24-14.7.2-1.1.3-2.2.3-3.2,0-3.6-.5-7.2-1.6-10.6,1-1.6,1.8-3.3,2.4-5l34.2-11.5c1.4-.5,2.6-1.4,3.3-2.7l23.6-41.1,38.1-25.6c2.8-1.8,3.5-5.5,1.7-8.3-1.8-2.8-5.5-3.5-8.3-1.7,0,0,0,0-.1,0l-39.2,26.4c-.8.5-1.4,1.2-1.9,2l-23.2,40.3-26.5,8.9v-1.1c0-12.8-8.2-24.1-20.4-27.9,1.9-3.1,3-6.8,3-10.5,0-6.6-3.6-12.5-10.7-17.5l6.1-7.1,68.2-26.2c3.1-1.1,4.7-4.6,3.6-7.7-1.1-3.1-4.6-4.7-7.7-3.6,0,0-.2,0-.2,0l-69.6,26.7c-.9.4-1.8.9-2.4,1.7l-8.7,10.2c-4.8-2.1-9.8-3.7-14.9-4.9-.8-.2-1.7-.2-2.5,0-5.2,1.1-10.2,2.7-15.1,4.8l-8.5-10c-.6-.8-1.5-1.3-2.4-1.7l-69.6-26.7c-3.1-1.3-6.6.2-7.8,3.3-1.3,3.1.2,6.6,3.3,7.8,0,0,.2,0,.2,0l68.2,26.2,5.9,7c-6,4.3-10.6,10.1-10.6,17.7,0,3.7,1.1,7.3,3.1,10.5-12.2,3.8-20.5,15.1-20.4,27.9v2.7l-26.5-10.4-23.3-40.5c-.5-.8-1.1-1.5-1.9-2l-39.3-26.4c-2.7-1.9-6.5-1.1-8.3,1.6s-1.1,6.5,1.6,8.3l38.1,25.6,23.6,41.1c.7,1.2,1.7,2.1,3,2.6l35.5,14c.4.9.9,1.8,1.4,2.6-1.1,3.4-1.6,7-1.6,10.6,0,1.1,0,2.2.3,3.2-9.6,3.7-17.4,8.5-23.1,13.8l-47.7-26.6c-2.6-1.5-6-.8-7.8,1.7l-56.7,77.1-43,5.1c-3.3.4-5.6,3.4-5.3,6.7.4,3,2.9,5.3,6,5.3h0ZM362.1,379.1c-14.7,8.3-56.5,13.9-105.7,13.9h-.1c-49.1,0-90.8-5.7-105.4-13.9-7.1-14.1-11.8-29.4-13.9-45.1,30.8,11.5,102.4,12,119.2,12h.4c16,0,87.8-.5,118.5-12.1-1.9,15.7-6.3,30.9-13.1,45.1ZM376.2,315.7c0,1.5,0,3.1,0,4.6-3.7,2.3-13.7,6.3-40.4,9.6-21.8,2.7-49.9,4.1-79.2,4.1h-.6c-29,0-57-1.3-78.9-4-27.4-3.3-37.6-7.5-41.3-9.7,0-1.5,0-3,0-4.6,0-11.2,1.1-22.4,3.3-33.4,6.9,3.6,17.8,6.4,33.4,8.6,22.1,3.3,51.8,5,83.6,5h0c31.8,0,61.5-1.8,83.6-5,15.5-2.3,26.4-5,33.3-8.6,2.2,11,3.2,22.1,3.2,33.3h0ZM256.1,474.3c-14.4-6.7-28.1-14.7-41.1-24,13.9,1.6,27.9,2.3,41.9,2.3,13.9,0,27.8-.7,41.6-2.2-13.3,9.4-27.6,17.4-42.5,23.9ZM319.1,434.1c-26,8.6-99.4,8.5-124.7-.1-13.7-12.1-25.1-24.9-34.2-38.6,24.4,6.8,63,9.6,96,9.6h.1c33.2,0,72.2-2.8,96.6-9.7-8.8,13.8-20.1,26.6-33.9,38.8h0ZM370,270.1c-1.8,1.5-9.2,6.1-36.3,9.7-21,2.8-48.6,4.3-77.7,4.3s-56.6-1.5-77.7-4.3c-27.8-3.7-34.9-8.4-36.4-9.8,6.3-22.6,17.3-43.2,32.1-59.8,11.4,17.9,43.3,30.5,81.9,30.5s70.4-12.6,81.9-30.5c14.9,16.6,25.9,37.2,32.2,59.9h0ZM296.6,156c0,12.7-26.8,32.3-40.6,32.6-6.6-.1-16.8-4.8-25.7-11.8-9.1-7.1-14.9-15.3-14.9-20.8s0-.5,0-.7c4.5,2.5,9.5,3.8,14.6,3.7h52c5.1,0,10.1-1.2,14.6-3.7,0,.1,0,.5,0,.7h0ZM255.9,71.3c4.6,1.2,9,2.8,13.4,4.8,7.9,3.7,12.4,8,12.4,11.7s-2.2,6.2-6.1,9.2h-39.2c-3.9-3-6.1-6-6.1-9.2,0-7.8,16.7-14.3,25.6-16.4ZM299,130.8c0,9.5-7.7,17.2-17.2,17.2h-51.6c-9.5,0-17.2-7.7-17.2-17.2h0v-4.6c0-9.5,7.7-17.2,17.2-17.2h51.6c9.5,0,17.2,7.7,17.2,17.2h0v4.6ZM208.1,170.4c4.5,7.2,11.2,13,14.8,15.8,8.5,6.7,21.3,14,32.2,14.5.2,0,.4.3.6.3h.6c.2,0,.4-.2.6-.3,10.9-.5,23.7-7.7,32.2-14.4,3.6-2.9,10.3-8.7,14.8-15.9,16.5,6.4,26.5,15.8,26.5,25s-7.4,16.1-20.2,22.3c-14.4,7-33.7,10.9-54.3,10.9s-39.9-3.9-54.3-10.9c-12.8-6.3-20.2-14.4-20.2-22.3s10-18.7,26.5-25.1h0Z"/>
</svg>