<?xml version="1.0" encoding="UTF-8"?>
<svg id="Layer_1" xmlns="http://www.w3.org/2000/svg" version="1.1" viewBox="0 0 103 90.4">
  <!-- Generator: Adobe Illustrator 29.1.0, SVG Export Plug-In . SVG Version: 2.1.0 Build 142)  -->
  <path d="M3.4,62c-.7,0-1.4-.5-1.6-1.2-1.9-6.2-.2-11.3,4.9-14.8.8-1.8,2.8-3.9,7.8-3.2.9-1.4,2-2.3,3.3-2.8,1.4-.5,2.9-.4,4.6.2,2.1-2.1,5.7-3.7,11.5-1.9,3.9-2.2,8.2-2.6,12.6-1,4.2-1.6,7.9-1.5,11,0,3.2-1.7,6.3-1.7,9.2,0,1.5-1.2,3-1.8,4.4-1.8h0c1.1,0,2.2.4,3.3,1.1,2.9-2,5.8-1.8,8.4.6.7.6,1.1,0,.5.8-.6.7-2.1,2.4-2.8,1.7-.6-1.9-3-2.8-5.3-.6-.7.6-1.4.1-2-.5-.7-.7-1.4-.8-2.1-.7-1.1,0-1.7.6-2.5,1.4-.6.6-1.7,1.3-2.4.8-2.4-1.8-4.1-2.5-6.9-.7-.6.3-1.6,1.1-2.2.7-2.6-1.6-5.9-1.9-9.7-.3-.4.2-.9.2-1.3,0-3.9-1.6-7-2.1-10.4,0-.4.3-2.8,1.2-3.3,1.1-4.2-1.5-5.9-1.1-8,1.4-.5.6-1.7,2-2.4,1.6-1.3-.7-2.2-1.9-3-1.6-.8.3-2,1.1-2.5,2.3-.3.7-.7.9-1.5.7-4.6-1-5.6.8-5.8,1.4-.1.4-1,1.6-1.3,1.8-4.2,2.7-5.5,6.2-4,11.2.3.9.8,2-.1,2.3-.2,0-.3,0-.5,0Z"/>
  <path d="M92.2,57.1c-.4,0-.8-.1-1.1-.4-.5-.4-.7-.9-.6-1.5.7-5.9,1.9-8.9,4.2-9.7,1.5-.6,3.1,0,4.7,1.5.2.1.3.3.4.5.7,1.5.8,3,.2,4.3-.9,2.1-3.3,3.8-7.2,5.2-.2,0-.4,0-.6,0ZM96.9,47.8l-.8-.5c-.4-1.9-2.8,2.8-3.5,6.4,2.3,1.4,5.3-2.5,5.5-3,.1-.3.2-1.7,0-2.3-.6-.5-1.3-.7-1.3-.7Z"/>
  <path d="M96.8,47.4c0,0-.6-.6-.7-.6-.9-.2-.2.9,0,0,.1-.8.3-2.1-1.1-2.9-.6-.3-1.3-1-1.2-1.7,0-.5-.3-1.8-.7-2.1-.3-.2-1.1-.6-3.9-.1-.6,0-.8,0-1.2-.4-.8-.9-2-1.7-4.5-1.6-.8.5-2.7,2.1-3.1,1.3-.5-.8-.2-1.9.6-2.3,3.8-2.2,6.4-1,7.9.3,2.7-.3,4.6,0,5.9,1.3.9.8,1.4,2,1.4,3.4,1.7,1.3,2.5,3.2,2.1,5.3-.1.8-.6.1-1.4.1Z"/>
  <path d="M50.8,61.5c-1.9,0-3.9-.5-5.8-1.4-.9-.4-1.4-.6-1-1.5,2.2.3,1.7-1.3,2.5-.9,3.1,1.5,5.1,1.7,8.2,0,.4-.2,2-.2,2.4,0,3,1,5.2.7,9.1-.7.4-.2.5-.1.9,0,2.2.6,3.6.4,5.1-.3.3-.1,0,0,2.6-.7,1.8.4,2.4.9,4.1.4.3,0,1.2,0,1.5.2,2.6.8,3.3-.2,4-.7.4-.3,1.6,0,2.1,0,1.6.2,2.8,0,3.9-1.4.3-.3,1.4-1.4,1.8-1.4.4,0-.3-.3,0,0,.2.2.6.4,1.1.6.9.3,1.4,1.2,1.1,2.1-.3.9-1.2,1.4-2.1,1.1-.4-.1-.8-.3-1.2-.5-1.5,1.2-3.3,1.8-5.2,1.7-1.8,1.1-4,1.4-6.6.8-1.9.5-4,.6-6,.3-1.9.7-4.1.7-6.6.1-3.5,1.5-6.9,1.7-10.4.7-1.9.9-3.8,1.4-5.7,1.4Z"/>
  <path d="M5.2,62.2c-.6,0-1.3,0-2-.1-.9-.1-1.6-1-1.5-1.9.1-.9,1.4-.6,2.3-.5,3,.4,5.2,0,7.3-1.8.4-.4,1.2-.7,1.8-.5.8.2,2.5.1,2.9-.5.2-.4.3-1.6.8-1.7.4-.1,1.7,1.9,2.1,2.2,3.5,2,5.3.1,6.3-.6.6-.5,1,0,1.6.5,2,1.7,4,1.5,6.3.2.4-.2,1.8.4,2.2.5,2.2.6,2.8,0,3.8-.5.5-.3,1.1-.3,1.7,0,1.5.9,3,.9,4.6.5.9-.2,1.7-.6,1.9.3.2.9-.3,1.8-1.3,2.1-2.2.5-4.4.3-6.4-.6-1.6.6-3.5.7-5.8.1-3,1.4-5.9,1.2-8.6-.6-2.2,1.2-4.8,1.1-7.7-.3-1.1.9-2.7,1.1-4.9.7-2.2,1.7-4.8,2.6-7.6,2.6Z"/>
  <path d="M17.1,58.5c-.1,0-.3,0-.4,0-.6-.3-1-1.3-.8-2.2.8-3.2.3-6.8-1.3-10.7-.3-.8-.1-1.9.5-2.3.6-.5,1.3-.2,1.7.6,1.9,4.7,2.4,9.2,1.5,13.4-.2.7-.7,1.2-1.2,1.2Z"/>
  <path d="M33.3,59.7c-.1,0-.2,0-.4,0-.6-.3-.9-1.3-.8-2.2,1.3-6.1,1.4-11.6.3-16.6-.2-.9.1-1.9.7-2.2.6-.3,1.3.2,1.5,1.1,1.3,5.7,1.2,12-.3,18.7-.2.7-.6,1.2-1.1,1.2Z"/>
  <path d="M41.1,59.4c-.2,0-.5,0-.7-.3-.6-.5-.8-1.6-.4-2.4,5.4-10.8,5.5-15.2,5-16.9-.2-.9,0-1.9.8-2.2.7-.3,1.4.1,1.7,1,1.2,4.1-.6,10.7-5.3,20-.2.5-.7.8-1.1.8Z"/>
  <path d="M55.9,59.9c-.1,0-.2,0-.3,0-.6-.3-.9-1.3-.7-2.2,1.3-4.8,2-10.9,2-18.1,0-.9.5-1.7,1.2-1.8.7,0,1.2.7,1.2,1.6,0,7.6-.7,14.2-2.2,19.4-.2.7-.7,1.2-1.2,1.1Z"/>
  <path d="M67.5,59.3c0,0-.1,0-.2,0-.7-.1-1.1-1-1-1.9.7-7.6.7-13.3.2-17.5-.1-.9.3-1.8.9-2,.6-.2,1.3.4,1.4,1.4.6,4.6.6,10.7-.1,18.6,0,.9-.6,1.5-1.2,1.5Z"/>
  <path d="M79.6,58.9c-.2,0-.4,0-.6-.2-.6-.5-.8-1.5-.5-2.3,2.3-5.6,2.8-11.5,1.6-17.5-.2-.9.2-1.9.9-2.1.7-.3,1.3.3,1.5,1.2,1.4,6.9.8,13.7-1.8,20.1-.2.6-.6.9-1.1.9Z"/>
  <path d="M89.1,62.8c0,0-.2,0-.3,0-.7-.2-1.2-1.1-1-2,0,0,0-.5-.6-1.9-.4-.8-.2-1.9.5-2.3.6-.5,1.5-.2,1.9.6.8,1.7,1.1,3.1.9,4.3-.1.8-.7,1.4-1.3,1.4Z"/>
  <path d="M82.3,63.7c-.1,0-.2,0-.3,0-.7-.2-1.1-1.2-1-2.1.2-.7.1-1.4-.1-2.1-.3-.9,0-1.9.7-2.3.7-.4,1.5,0,1.8.9.5,1.3.6,2.8.3,4.3-.2.8-.7,1.3-1.3,1.3Z"/>
  <path d="M75.2,64.4c-.2,0-.5,0-.7-.2-.7-.5-.9-1.5-.5-2.3.4-.7.4-1.4.2-2.1-.2-.9.2-1.9.9-2.2.7-.3,1.5.2,1.7,1.1.4,1.7.3,3.4-.5,4.9-.3.5-.7.8-1.2.8Z"/>
  <path d="M68.8,65.1c-.2,0-.5,0-.7-.3-.6-.5-.8-1.6-.4-2.4.3-.7.5-1.7.6-3,0-.9.6-1.7,1.4-1.7.7,0,1.3.8,1.3,1.8,0,2-.4,3.5-1,4.7-.3.5-.7.8-1.1.8Z"/>
  <path d="M61.4,65.6c-.2,0-.4,0-.6-.3-.6-.5-.8-1.5-.4-2.4.3-.7.4-1.5.4-2.6,0-.9.4-1.8,1.1-1.8.7,0,1.3.6,1.3,1.6.1,1.8-.1,3.4-.7,4.7-.2.5-.6.8-1,.8Z"/>
  <path d="M53.4,65.9c-.2,0-.5,0-.7-.2-.6-.5-.9-1.5-.5-2.3.4-.9.5-1.8.4-2.9-.1-.9.4-1.8,1.1-2,.7-.1,1.4.5,1.5,1.4.2,1.9,0,3.6-.7,5.1-.2.6-.7.9-1.2.9Z"/>
  <path d="M45.2,66.1c-.3,0-.5,0-.7-.3-.6-.5-.8-1.6-.4-2.4.4-.8.6-1.8.7-2.9,0-.9.7-1.6,1.4-1.6.7,0,1.3.9,1.2,1.8-.1,1.8-.5,3.3-1.2,4.6-.3.5-.7.8-1.1.8Z"/>
  <path d="M38.4,65c-.3,0-.7-.2-.9-.7-.4-.8-.3-1.8.2-2.4.5-.6.7-1.2.7-2.1,0-.9.5-1.7,1.1-1.8.6,0,1.1.7,1.2,1.6,0,2-.5,3.7-1.6,5-.2.2-.4.3-.7.3Z"/>
  <path d="M31.7,65.6c-.2,0-.5,0-.7-.3-.6-.5-.8-1.6-.4-2.4.5-.9.7-1.8.6-2.7,0-.9.5-1.7,1.3-1.8.8,0,1.4.7,1.4,1.6,0,1.6-.3,3.2-1,4.7-.3.5-.7.8-1.1.8Z"/>
  <path d="M24.2,64.3c-.2,0-.4,0-.6-.2-.6-.5-.8-1.5-.4-2.3.4-1,.6-1.9.7-2.8,0-.9.6-1.6,1.3-1.5.6,0,1.1.9,1,1.9,0,1.3-.4,2.7-1,4.1-.2.6-.6.9-1,.9Z"/>
  <path d="M17.7,64.2c-.1,0-.3,0-.4-.1-.6-.4-.8-1.4-.6-2.3.2-.7.3-1.5.3-2.6s.5-1.7,1.1-1.7,1.1.8,1.1,1.7c0,1.6-.2,2.8-.5,3.9-.2.6-.6,1-1,1Z"/>
  <path d="M11.7,65.2c-.1,0-.2,0-.4,0-.7-.3-1-1.2-.8-2.1,0-.4,0-1-.3-1.5-.4-.8-.3-1.8.3-2.4.6-.5,1.3-.4,1.7.4.7,1.4,1,3,.6,4.4-.2.7-.7,1.2-1.2,1.2Z"/>
</svg>