<svg id="Image" height="512" viewBox="0 0 64 64" width="512" xmlns="http://www.w3.org/2000/svg"><g><circle cx="12" cy="19" r="1.5"/><path d="m57.968 25.031c.304-3.736-3.588-6.394-7.037-7.855-.515-1.954-1.589-3.176-2.931-3.176-1.41 0-2.497.138-3.223.27-.521-1.448-1.509-2.269-2.777-2.269-1.498 0-2.674.178-3.485.361-.403-2.17-1.983-2.362-2.515-2.362-2.43 0-4.579.417-5.766.703-.443-1.17-1.279-1.703-2.234-1.703-3.243 0-6.101 1.194-7.599 1.957-.301-.562-.744-.957-1.401-.957-3.342 0-13 3.928-13 10 0 .409.037.775.091 1.12-.927.618-2.468 1.584-3.437 1.942-1.246.459-.543 2.339.691 1.876 1.067-.393 2.514-1.277 3.463-1.895.027.039.051.082.08.12-.528.87-1.657 2.438-3.167 2.876-1.267.369-.716 2.286.559 1.921 2.03-.59 3.462-2.408 4.193-3.555.146.065.295.123.447.175-.17 1.002-.699 2.737-2.346 3.515-1.197.565-.342 2.372.854 1.809 2.443-1.154 3.215-3.53 3.46-4.946 1.235.095 2.343.042 3.518-.269.015 2.107.167 6.495 2.014 7.202l2.464 3.285c-.551 1.47-2.601 6.034-7.06 6.84-1.299.234-.949 2.214.355 1.968 6.535-1.181 8.694-8.399 8.783-8.706.087-.302.027-.627-.161-.878l-2.339-3.118c.266-.291.557-.71.866-1.288.963.824 2.415 2.017 3.502 2.699l.179 1.43c.027.221.128.426.285.583l4.551 4.551c-.731 1.913-3.423 8.065-7.992 8.753-1.304.196-1.017 2.184.297 1.978 6.621-.997 9.677-10.288 9.804-10.683.114-.357.02-.748-.245-1.013l-3.062-3.062.164-.492c.986.632 2.891 1.792 4.3 2.286l.929 3.25c.03.102.136.261.193.365l4.57 5.483c-.974 1.722-4.347 6.878-9.803 6.878-1.324 0-1.323 2 0 2 7.796 0 11.741-8.226 11.905-8.576.165-.352.111-.767-.137-1.064l-4.644-5.571.41-1.23c4.318 3.01 9.024 5.441 14.466 5.441 2.204 0 4.858-1.009 7.102-2.701.184-.138.404-.295.648-.47 1.964-1.406 5.25-3.759 5.25-6.829 0-2.82-2.407-7.389-4.032-8.969zm-21.968-13.031c1.971 0-.936 11-6 11-1.724 0-2.82-.464-3.467-.877 2.488-2.284 4.049-6.466 4.024-9.439 1.04-.256 3.121-.684 5.443-.684zm-8-1c1.8 0-.37 11-5.999 11-.943-.002-2.28-.196-3.042-.559 1.687-2.44 2.294-5.816 1.982-8.505 1.147-.622 3.942-1.936 7.059-1.936zm-20 9c0-4.425 7.825-7.752 10.698-7.987.446.982.606 4.351-.715 7.149-1.202 2.547-3.215 3.838-5.983 3.838-3.279 0-4-.994-4-3zm9.618 2.97c.529.347 1.17.575 1.8.728-.941 3.648-1.853 5.59-2.353 6.162-.413-.814-.692-3.367-.654-6.009.427-.253.831-.546 1.207-.881zm37.968 16.233c-.26.186-.493.353-.688.5-1.869 1.408-4.092 2.373-6.495 2.275 3.131-2.173 4.458-5.435 4.528-5.611.484-1.232-1.375-1.963-1.861-.732-.018.046-1.81 4.464-6.106 5.84-1.433-.356-2.748-.847-3.858-1.347 2.938-1.04 4.433-3.423 4.854-4.842.372-1.255-1.526-1.839-1.916-.574-.049.157-1.232 3.776-5.777 3.918-.465-.286-2.556-1.688-3.076-2.036l1.758-5.275c.418-1.253-1.478-1.892-1.896-.633l-1.978 5.934-1.112-3.893c-.364-1.269-2.287-.725-1.924.55l.355 1.242c-1.012-.526-2.141-1.217-2.931-1.74l1.486-4.462c.42-1.257-1.482-1.887-1.896-.632l-1.988 5.965-.113-.113-.958-7.659c-.167-1.319-2.148-1.06-1.984.248l.485 3.876c-.834-.646-1.704-1.383-2.32-1.92.395-1.053.809-2.402 1.237-4.099 1.173.064 2.214-.063 3.396-.654.818.692 2.458 1.671 5.192 1.671 4.691 0 8.08-6.424 8.549-10.586.635-.173 1.807-.413 3.451-.413 2 0 1.638 8.818-2.638 11.119-2.876 1.547-6.127.907-6.157.901-1.295-.27-1.705 1.686-.41 1.957 1.984.423 5.101.202 7.515-1.097 3.55-1.91 5.082-7.125 4.85-10.648.621-.111 1.58-.233 2.84-.233 1.628 0 3.488 11.72-7.12 13.007-1.304.158-1.085 2.147.24 1.985 7.26-.881 10.288-6.331 10.131-11.469 2.035 1.028 4.749 2.87 4.749 4.978 0 3.256-3.387 6.351-8.235 7.527-1.276.309-.824 2.263.471 1.943 4.381-1.062 7.749-3.578 9.107-6.565 1.099 1.615 2.657 4.646 2.657 6.594 0 2.042-2.872 4.098-4.414 5.203z"/></g></svg>