<svg id="Image" height="512" viewBox="0 0 64 64" width="512" xmlns="http://www.w3.org/2000/svg"><path d="m32 60c5.198 0 8-7.165 8-13 0-1.545-.197-3.481-.657-5.217l3.657 1.834v5.383c0 .351.184.677.485.857l10 6c1.133.68 2.165-1.034 1.029-1.715l-9.514-5.708v-5.434c0-.378-.213-.724-.552-.894l-6.067-3.043c-.714-1.583-1.501-2.675-2.022-3.301.13-.238.246-.488.337-.762h6.686l2.724 5.447c.078.156.195.288.34.385l6 4c1.1.734 2.211-.93 1.109-1.664l-5.779-3.853-2.881-5.763c-.17-.338-.516-.552-.895-.552h-7c0-.135.386-1.346.546-2h4.454c.431 0 .813-.275.949-.684l2.925-8.776 4.833-4.833c.936-.936-.479-2.349-1.414-1.414l-5 5c-.11.11-.192.244-.242.391l-2.772 8.316h-3.387c.045-.41.076-.855.092-1.337 1.844-.907 2.016-3.595 2.016-5.663 0-1.337-.176-2.564-.516-3.681l2.752-4.281c1.18-1.835 1.307-4.188.331-6.14l-1.672-3.345c-.592-1.184-2.381-.289-1.789.895l1.672 3.345c.662 1.323.576 2.919-.224 4.164l-2.039 3.171c-.105-.173-.21-.346-.326-.512.77-1.531.929-2.972.471-4.291-.811-2.336-3.283-3.302-3.388-3.342-.703-.269-1.447.313-1.347 1.065.227 1.724-.285 2.696-.634 3.146-1.029-.256-1.553-.256-2.584 0-.349-.45-.86-1.422-.634-3.146.1-.752-.645-1.334-1.347-1.065-.105.04-2.577 1.005-3.388 3.342-.458 1.318-.299 2.759.471 4.291-.116.165-.221.338-.326.512l-2.039-3.171c-.8-1.245-.886-2.84-.224-4.164l1.672-3.345c.592-1.183-1.197-2.078-1.789-.895l-1.672 3.345c-.976 1.951-.849 4.304.331 6.14l2.752 4.281c-.338 1.117-.514 2.344-.514 3.681 0 2.068.172 4.756 2.016 5.663.016.482.047.928.092 1.337h-3.387l-2.772-8.316c-.049-.147-.132-.281-.242-.391l-5-5c-.935-.935-2.35.478-1.414 1.414l4.833 4.833 2.925 8.776c.137.409.518.684.949.684h4.454c.16.654.546 1.865.546 2h-7c-.379 0-.725.214-.895.553l-2.881 5.763-5.779 3.853c-1.101.734.01 2.398 1.109 1.664l6-4c.145-.097.262-.229.34-.385l2.724-5.448h6.686c.09.273.207.523.337.762-.521.626-1.308 1.718-2.022 3.301l-6.067 3.043c-.339.17-.552.516-.552.894v5.434l-9.515 5.709c-1.135.681-.104 2.395 1.029 1.715l10-6c.302-.181.486-.507.486-.858v-5.383l3.657-1.834c-.46 1.736-.657 3.672-.657 5.217 0 5.835 2.802 13 8 13zm3.969-32c-.099 1.74-.44 2.862-.68 3.64-.161.525-.289.94-.289 1.36 0 1.397-.341 3-3 3s-3-1.603-3-3c0-.42-.128-.835-.29-1.36-.24-.778-.58-1.899-.68-3.64zm-2.699-13.746c.27.096.651.053.908-.13.093-.066 1.461-1.079 1.75-3.384.348.325.672.74.847 1.251.307.897.098 1.966-.621 3.178-.242.385-.195.88.11 1.211 1.152 1.43 1.736 3.32 1.736 5.62 0 2.434-.372 3.36-.684 3.708-.237.265-.554.292-1.309.292-.002 0-.005 0-.007 0h-8c-.002 0-.005 0-.007 0-.754 0-1.072-.027-1.309-.292-.312-.348-.684-1.274-.684-3.708 0-2.3.584-4.19 1.736-5.619.305-.332.352-.827.11-1.211-.719-1.211-.928-2.28-.621-3.178.175-.511.5-.927.847-1.251.289 2.305 1.657 3.318 1.75 3.384.257.182.638.225.908.13.953-.333 1.586-.334 2.54-.001zm1.716 22.996c.395.51.941 1.324 1.46 2.427-.475.561-1.165.907-1.914.907-.011 0-.023 0-.032 0-1.317 0-1.326 1.988-.009 2h.042c.986 0 1.924-.326 2.692-.895.285.92.515 1.966.648 3.137-.891.403-1.86.612-2.849.592-1.276-.034-1.5 2.001.158 2.001.965 0 1.913-.18 2.816-.497 0 .028.002.052.002.078 0 .855-.052 1.658-.144 2.417-.858.537-1.833.835-2.856.835-1.322 0-1.324 2 0 2 .822 0 1.623-.139 2.383-.398-.273.989-.621 1.865-1.023 2.62-.729.178-1.475.224-2.222.12-1.309-.19-1.588 1.798-.277 1.98.301.042.606.056.91.063-1.851 1.805-3.688 1.809-5.543 0 .305-.007.609-.021.91-.063 1.311-.183 1.032-2.17-.277-1.98-.747.105-1.493.059-2.222-.12-.401-.755-.75-1.631-1.023-2.62.761.259 1.561.398 2.383.398 1.324 0 1.322-2 0-2-1.023 0-1.998-.298-2.856-.835-.091-.759-.143-1.562-.143-2.417 0-.026.002-.05.002-.077.903.316 1.851.497 2.816.497 1.657 0 1.434-2.035.158-2.001-.989.02-1.957-.189-2.849-.592.133-1.171.364-2.217.648-3.137.768.569 1.706.895 2.692.895h.042c1.317-.012 1.308-2-.009-2-.009 0-.021 0-.032 0-.75 0-1.439-.346-1.914-.907.519-1.103 1.065-1.917 1.46-2.427 1.609 1.003 4.358 1.007 5.972-.001z"/></svg>