<svg id="Image" height="512" viewBox="0 0 64 64" width="512" xmlns="http://www.w3.org/2000/svg"><path d="m32 34.41c.498 1.533 1 3.112 1 4.59 0 2.895-1 4.231-1 11 0 3.479 5.861 9 8.168 9 2.722 0 3.832-1.449 3.832-5 0-4.668-.103-8.74-.285-12.293l3.424 5.802c.043.072.095.139.154.199l6 6c.936.936 2.349-.479 1.414-1.414l-5.91-5.911-5.373-9.103c-.425-5.283-1.052-9.161-1.773-11.987l3.501-1.008.855 6.839c.024.194.104.376.231.525l6.404 7.5c.862 1.007 2.379-.294 1.521-1.299l-6.21-7.272-.963-7.703c-.076-.608-.676-1.006-1.269-.837l-4.628 1.333c-.51-1.559-1.338-3.59-2.574-4.674l3.67-.716c.254-.049.479-.196.628-.408l2.674-3.819c1.528 2.686 2.868 5.925 4.073 8.848 2.004 4.856 3.734 9.05 5.95 10.273 1.158.638 2.12-1.114.967-1.751-1.602-.884-3.364-5.155-5.068-9.285-1.399-3.393-2.888-6.983-4.657-9.892l3.062-4.373c.76-1.087-.883-2.23-1.639-1.147l-2.613 3.733c-3.032-4.099-6.84-5.728-10.808-2.26l.234-1.769c.173-1.31-1.809-1.577-1.982-.262l-.16 1.211c-.558-.107-1.139-.107-1.698 0l-.16-1.211c-.174-1.315-2.155-1.048-1.982.262l.232 1.769c-3.969-3.468-7.776-1.838-10.811 2.259l-2.613-3.733c-.756-1.082-2.399.06-1.639 1.147l3.062 4.373c-1.769 2.909-3.257 6.5-4.657 9.892-1.704 4.13-3.467 8.401-5.068 9.285-1.154.637-.192 2.389.967 1.751 2.216-1.223 3.946-5.417 5.95-10.273 1.206-2.923 2.546-6.161 4.073-8.848l2.674 3.819c.148.212.374.358.628.408l3.67.716c-1.237 1.084-2.065 3.116-2.574 4.674l-4.628-1.333c-.593-.169-1.193.228-1.269.837l-.963 7.703-6.21 7.272c-.858 1.005.659 2.306 1.521 1.299l6.404-7.5c.127-.149.207-.332.231-.525l.855-6.839 3.501 1.008c-.721 2.826-1.348 6.704-1.773 11.987l-5.373 9.103-5.91 5.911c-.935.935.478 2.35 1.414 1.414l6-6c.06-.06.111-.126.154-.199l3.424-5.802c-.179 3.554-.282 7.626-.282 12.294 0 3.551 1.11 5 3.832 5 2.307 0 8.168-5.521 8.168-9 0-6.769-1-8.105-1-11 0-1.478.502-3.057 1-4.59zm1.998-19.41c.313.009 1.636.857 1.936 3.075-1.957.254-3.197 1.176-3.933 2.013-.739-.838-1.979-1.759-3.936-2.013.3-2.218 1.623-3.066 1.936-3.075zm.002-4c0 .823-.32 1.565-.557 2h-2.887c-.236-.435-.556-1.177-.556-2 0-2.688 4-2.683 4 0zm8 43c0 3-.769 3-1.831 3-1.281-.043-6.169-4.543-6.169-7 0-6.631 1-7.788 1-11 0-3.337-2-6.75-2-9v-7.868c.253-.495 1.269-2.083 3.921-2.131.39.177 5.079 2.988 5.079 33.999zm-14.921-34c2.652.048 3.668 1.637 3.921 2.131v7.869c0 2.227-2 5.685-2 9 0 3.212 1 4.369 1 11 0 2.457-4.888 6.957-6.169 7-1.062 0-1.831 0-1.831-3 0-31.011 4.689-33.822 5.079-34zm14.333-3.904-3.714.725c-.443-1.618-1.331-2.753-2.266-3.34.29-.642.568-1.51.568-2.481 0-.474-.086-.913-.218-1.325 2.324-2.199 5.053-2.885 8.564 2.229zm-21.758-4.191c3.512-5.114 6.24-4.429 8.564-2.229-.132.411-.218.85-.218 1.324 0 .971.278 1.839.567 2.48-.935.587-1.822 1.722-2.266 3.34l-3.714-.725z"/></svg>