<?xml version="1.0" encoding="UTF-8"?>
<svg id="svg4875" xmlns="http://www.w3.org/2000/svg" xmlns:xlink="http://www.w3.org/1999/xlink" xmlns:svg="http://www.w3.org/2000/svg" version="1.1" viewBox="0 0 682.7 682.7">
  <!-- Generator: Adobe Illustrator 29.1.0, SVG Export Plug-In . SVG Version: 2.1.0 Build 142)  -->
  <defs>
    <style>
      .st0, .st1 {
        fill: none;
      }

      .st1 {
        stroke: #000;
        stroke-linecap: round;
        stroke-linejoin: round;
        stroke-width: 20px;
      }

      .st2 {
        clip-path: url(#clippath);
      }
    </style>
    <clipPath id="clippath">
      <rect class="st0" width="682.7" height="682.7"/>
    </clipPath>
  </defs>
  <g id="g4881">
    <g id="g4883">
      <g class="st2">
        <g id="g4885">
          <g id="g4891">
            <path id="path4893" class="st1" d="M381.3,180h-80c-22.1,0-40-17.9-40-40s17.9-40,40-40h80c22.1,0,40,17.9,40,40s-17.9,40-40,40Z"/>
          </g>
          <g id="g4895">
            <path id="path4897" class="st1" d="M401.3,20c33.1,0,60,26.9,60,60s-16.8,48.4-40.1,56.6"/>
          </g>
          <g id="g4899">
            <path id="path4901" class="st1" d="M261.5,136.6c-23.4-8.2-40.1-30.5-40.1-56.6s26.9-60,60-60"/>
          </g>
          <g id="g4903">
            <path id="path4905" class="st1" d="M229.8,260h-88.5l-80,80H20"/>
          </g>
          <g id="g4907">
            <path id="path4909" class="st1" d="M61.3,100l80,80h175"/>
          </g>
          <g id="g4911">
            <path id="path4913" class="st1" d="M452.9,260h88.5l80,80h41.3"/>
          </g>
          <g id="g4915">
            <path id="path4917" class="st1" d="M621.3,100l-80,80h-175"/>
          </g>
          <g id="g4919">
            <path id="path4921" class="st1" d="M541.3,662.7c-110.5,0-200-89.5-200-200V180c147.1,73.5,240,226.5,240,391v51.7c0,22.1-17.9,40-40,40Z"/>
          </g>
          <g id="g4923">
            <path id="path4925" class="st1" d="M141.3,662.7c-22.1,0-40-17.9-40-40v-51.7c0-164.4,92.9-317.5,240-391v282.7c0,110.5-89.5,200-200,200Z"/>
          </g>
        </g>
      </g>
    </g>
  </g>
</svg>