<?xml version="1.0" encoding="UTF-8"?>
<svg id="Image" xmlns="http://www.w3.org/2000/svg" version="1.1" viewBox="0 0 512 512">
  <!-- Generator: Adobe Illustrator 29.1.0, SVG Export Plug-In . SVG Version: 2.1.0 Build 142)  -->
  <path d="M256,464c35.1,0,44.5-84.9,47.1-127.8,0,0,0-.1,0-.2s0,0,0-.1c.4-5.9.6-11,.7-15l24.8,19.4c2.3,13.9,13.3,66.8,50.3,97.8,8.1,6.8,18.4-5.5,10.3-12.3-37.1-31-45.1-90.3-45.2-90.9-.3-2.1-1.4-4-3-5.3l-37.9-29.7c-2.4-15.9-9.8-31.2-24.1-39.2,4.1-4.7,7.4-10.6,9.9-17.4l90.7,108.1c4.1,4.9,10.2,8,16.5,8.5,19,1.5,65,4.3,78.8-8.5,3.3-3,5-6.8,5-11,0-35.8-136.1-117.5-184.2-145.2,0-1.7-.2-3.3-.4-4.9l50.8-14.7c3.4-1,5.8-4.1,5.8-7.7v-27.3l67.9-37.7c9.2-5.1,1.5-19.1-7.8-14l-72,40c-2.5,1.4-4.1,4.1-4.1,7v26l-44.1,12.8c-1-2.4-2.1-4.6-3.3-6.6,9.6-14.1,12.1-34.5-5.6-43.2l11.3-23.7,54.3-38.8c8.6-6.2-.7-19.2-9.3-13l-56,40c-1.1.8-2,1.8-2.6,3.1l-13.4,28.1c-7.2-.9-15.5-.9-22.7,0l-13.4-28.1c-.6-1.2-1.5-2.3-2.6-3.1l-56-40c-8.6-6.1-17.9,6.9-9.3,13l54.3,38.8,11.3,23.7c-17.7,8.7-15.1,29.2-5.6,43.2-1.2,2-2.3,4.2-3.3,6.6l-44.1-12.8v-26c0-2.9-1.6-5.6-4.1-7l-72-40c-9.2-5.2-17,8.9-7.8,14l67.9,37.7v27.3c0,3.6,2.4,6.7,5.8,7.7l50.8,14.7c-.2,1.6-.3,3.2-.4,4.9-48,27.7-184.2,109.5-184.2,145.2s1.7,8,5,11c13.9,12.8,59.8,10,78.8,8.5,6.4-.5,12.4-3.6,16.5-8.5l90.7-108.1c2.6,6.8,5.9,12.7,9.9,17.4-14.3,8-21.7,23.3-24.1,39.2l-37.9,29.7c-1.7,1.3-2.7,3.2-3,5.3,0,.6-8.1,59.9-45.2,90.9-8.1,6.8,2.2,19.1,10.3,12.3,37-31,48-83.9,50.3-97.8l24.8-19.4c.1,4,.3,9,.7,15,0,0,0,0,0,.1,0,0,0,.1,0,.2,2.5,42.9,12,127.8,47.1,127.8h0ZM280,144c0,5.5-1.5,9.8-3.1,12.8-11.7-6.5-30-6.5-41.7,0-1.6-3-3.1-7.3-3.1-12.8,0-10.7,48-10.7,48,0ZM256,272c14.2,0,21.8,5.4,27,16h-54c5.2-10.6,12.7-16,27-16h0ZM286.7,344c-.6,8-1.4,16-2.4,24h-56.6c-1-8-1.8-16-2.4-24h61.4ZM282,384c-1.4,8.5-3,16.6-4.7,24h-42.6c-1.8-7.4-3.3-15.5-4.7-24h52ZM287.5,304c.8,6.4.6,13.3.2,24h-63.3c-.4-10.7-.6-17.6.2-24h62.9ZM272.8,424c-4.8,14.6-10.5,24-16.8,24s-12-9.4-16.8-24h33.7ZM256,168c12.7,0,15.7,4.9,16.5,5.3,0,0,0,0,0,0,15.1,14.9,6.2,82.6-16.6,82.6-22.7,0-31.7-67.7-16.6-82.6,0,0,0,0,0,0,.9-.5,3.8-5.3,16.6-5.3h0ZM397.4,344.1c-2.1-.2-4.2-1.2-5.5-2.8l-97.9-116.8c.6-3.6,1.1-7.2,1.5-11,82.4,48.2,166.9,107.8,168.6,126.4-3.6,3.4-24.2,7.4-66.6,4.2h0ZM48,340c1.7-18.6,86.2-78.3,168.6-126.4.3,3.7.8,7.4,1.5,11l-97.9,116.8c-1.4,1.6-3.4,2.7-5.5,2.8-42.4,3.3-63-.7-66.6-4.1h0Z"/>
  <path d="M394.3,178.3l-21.7,21.7h-66.7c-10.6,0-10.6,16,0,16h70c2.1,0,4.2-.8,5.7-2.3l22.4-22.4,29.8-7.5c10.3-2.6,6.4-18.1-3.9-15.5l-32,8c-1.4.4-2.7,1.1-3.7,2.1Z"/>
  <path d="M117.7,178.3l21.7,21.7h70.8c10.6,0,10.6,16,0,16h-74.1c-2.1,0-4.2-.8-5.7-2.3l-22.4-22.4-29.8-7.5c-10.3-2.6-6.4-18.1,3.9-15.5l32,8c1.4.4,2.7,1.1,3.7,2.1Z"/>
</svg>