<?xml version="1.0" encoding="UTF-8"?>
<svg version="1.1" xmlns="http://www.w3.org/2000/svg" width="1000" height="1000">
<path d="M0 0 C1.11890625 -0.03738281 2.2378125 -0.07476562 3.390625 -0.11328125 C10.55262645 0.79446079 15.21100038 6.45214568 20.0625 11.375 C20.72403076 12.04257324 21.38556152 12.71014648 22.06713867 13.39794922 C27.32925771 18.76630216 32.15656513 24.35995893 36.75 30.3125 C37.87535156 31.71242188 37.87535156 31.71242188 39.0234375 33.140625 C88.84030836 96.01628725 108.75 171.10689719 108.75 250.3125 C125.91 250.3125 143.07 250.3125 160.75 250.3125 C160.75 243.7125 160.75 237.1125 160.75 230.3125 C161.36966289 185.2939913 171.4377207 141.37972588 189.75 100.3125 C190.30059082 99.05880615 190.30059082 99.05880615 190.86230469 97.77978516 C205.03201826 65.70022776 225.59525478 36.64016153 249.75 11.3125 C250.58917969 10.43207031 251.42835938 9.55164062 252.29296875 8.64453125 C260.12927149 0.60369206 260.12927149 0.60369206 265.7734375 -0.0234375 C277.04126214 -0.15476413 277.04126214 -0.15476413 281.75 4.3125 C285.59072257 8.47328278 287.52898729 11.96976531 288.0625 17.625 C287.26408997 27.0462384 283.26578146 31.14736404 276.64453125 37.47265625 C272.23450947 41.71789845 268.5468898 46.52402575 264.75 51.3125 C263.8290954 52.42246227 262.90580189 53.53044568 261.98046875 54.63671875 C218.92309317 106.52710947 200.03970404 171.70471487 198.1875 238.1875 C198.14414778 239.66537246 198.10052928 241.14323713 198.05664062 242.62109375 C197.95137226 246.18481179 197.84965534 249.74862005 197.75 253.3125 C198.58640015 253.465979 198.58640015 253.465979 199.43969727 253.62255859 C204.95606489 254.72711242 209.69383379 256.36560682 214.6875 258.9375 C215.3798877 259.29086426 216.07227539 259.64422852 216.78564453 260.00830078 C222.7122899 263.12576878 227.81484032 266.77248939 232.75 271.3125 C233.57886719 272.04984375 234.40773438 272.7871875 235.26171875 273.546875 C247.97631213 285.46315547 257.17981912 301.95543433 259.75 319.3125 C259.85957031 320.0240625 259.96914063 320.735625 260.08203125 321.46875 C262.47226531 339.57078925 260.188434 358.57843422 248.88671875 373.41015625 C247.40804026 375.51543531 247.40804026 375.51543531 247.75 379.3125 C248.76404743 381.15667322 248.76404743 381.15667322 250.2421875 382.89453125 C251.04547485 383.91051392 251.04547485 383.91051392 251.86499023 384.94702148 C252.44579346 385.66575439 253.02659668 386.3844873 253.625 387.125 C276.75 416.52375906 276.75 416.52375906 276.75 423.3125 C304.66519001 415.79755799 304.66519001 415.79755799 325.84355927 397.57662964 C334.50057334 381.25797962 337.23444951 360.81485943 339.7039032 342.70709229 C341.03177479 333.72261883 342.69928975 329.17030195 349.88796997 323.67948914 C352.37136509 321.91070232 354.90335611 320.24901856 357.46875 318.6015625 C358.87114929 317.68290909 358.87114929 317.68290909 360.30187988 316.74569702 C363.27812906 314.79951402 366.26380543 312.86837921 369.25 310.9375 C371.22459393 309.64941132 373.19855823 308.3603569 375.171875 307.0703125 C378.97087158 304.58928324 382.77601317 302.11819651 386.58740234 299.65625 C389.76723814 297.60204238 392.93560894 295.5329933 396.08837891 293.4375 C396.72900269 293.01520111 397.36962646 292.59290222 398.02966309 292.1578064 C399.67411948 291.07300215 401.31409157 289.98140814 402.95361328 288.88916016 C407.98548302 286.05208885 412.37747661 285.66416658 417.96484375 286.73828125 C423.86330234 288.52868861 426.72765188 291.94191981 429.86328125 297.16796875 C431.98575359 302.30117278 431.34788473 308.44850642 429.6875 313.625 C424.81304976 320.3863342 417.49223453 324.58062986 410.546875 328.9609375 C408.57750206 330.22559296 406.60877078 331.49124809 404.640625 332.7578125 C401.56348458 334.73147422 398.48277539 336.69836276 395.390625 338.6484375 C392.38823862 340.54588473 389.40420254 342.4696629 386.421875 344.3984375 C385.03437042 345.25977798 385.03437042 345.25977798 383.61883545 346.13851929 C377.85182186 349.9063746 375.28328413 352.61453742 373.75 359.3125 C373.35793365 360.76639633 373.35793365 360.76639633 372.95794678 362.24966431 C372.02360567 365.7532648 371.14884028 369.26835992 370.28125 372.7890625 C369.95702879 374.08620149 369.63218838 375.38318586 369.3067627 376.68002319 C367.9357748 382.14842887 366.5765217 387.61973366 365.22021484 393.09179688 C364.38622428 396.45469323 363.54537663 399.81581777 362.70054626 403.17600632 C362.2282798 405.06347551 361.76401935 406.95294214 361.29992676 408.84243774 C361.00952515 409.99738739 360.71912354 411.15233704 360.41992188 412.34228516 C360.16915894 413.35296051 359.918396 414.36363586 359.66003418 415.40493774 C356.85364277 424.37136772 352.1645788 428.14793952 344.14355469 432.35864258 C341.90722037 433.48321478 339.66638823 434.59887324 337.421875 435.70703125 C336.22425619 436.30464663 335.0269342 436.90285716 333.82989502 437.50163269 C331.33435065 438.74784897 328.83623136 439.98868292 326.3359375 441.2253418 C323.12829563 442.81207795 319.92609808 444.40945039 316.72556686 446.0104723 C313.6682263 447.53880605 310.60752226 449.06032956 307.546875 450.58203125 C306.39483582 451.15693802 305.24279663 451.73184479 304.05584717 452.32417297 C302.99424377 452.84859482 301.93264038 453.37301666 300.83886719 453.91333008 C299.90210144 454.37790115 298.96533569 454.84247223 298.00018311 455.32112122 C295.75 456.3125 295.75 456.3125 293.75 456.3125 C294.01103516 457.01407227 294.27207031 457.71564453 294.54101562 458.43847656 C299.57681912 472.05102068 304.33113677 485.664231 308.3125 499.625 C308.64636719 500.7912793 308.98023438 501.95755859 309.32421875 503.15917969 C310.8309864 508.55473738 311.98481053 513.75691018 312.75 519.3125 C313.79712158 519.30583817 314.84424316 519.29917633 315.9230957 519.29231262 C325.80981945 519.2313957 335.69650492 519.1864766 345.58337402 519.15706348 C350.6658513 519.14143336 355.74817659 519.12024358 360.83056641 519.08618164 C365.73889655 519.05349354 370.64708085 519.03562704 375.55551147 519.02786827 C377.42453302 519.02234171 379.29354694 519.01154974 381.1625061 518.99530983 C383.78819794 518.9734098 386.41329347 518.9705383 389.0390625 518.97192383 C390.18813835 518.95574509 390.18813835 518.95574509 391.36042786 518.9392395 C397.33023522 518.97314122 402.79393659 519.77468682 407.45271492 523.77429962 C411.2805443 527.93576181 413.45205773 532.46159918 415.46044922 537.69458008 C415.9445652 538.90561401 415.9445652 538.90561401 416.4384613 540.14111328 C417.49064127 542.78298406 418.52287157 545.43214838 419.5546875 548.08203125 C420.2848625 549.92855822 421.01617306 551.77463652 421.74856567 553.62028503 C423.27472479 557.47431041 424.79187391 561.33170866 426.30175781 565.19213867 C428.24014001 570.14799612 430.19362001 575.09771633 432.1528759 580.04535389 C434.02087257 584.76398598 435.88201761 589.48530931 437.7421875 594.20703125 C438.09850124 595.11014353 438.45481499 596.01325581 438.82192612 596.94373512 C439.82369562 599.48682796 440.8206381 602.03175408 441.81591797 604.57739258 C442.11506607 605.33531601 442.41421417 606.09323944 442.72242737 606.87413025 C444.75 612.08263987 444.75 612.08263987 444.75 614.3125 C446.04696556 614.71822235 446.04696556 614.71822235 447.37013245 615.13214111 C450.67316115 616.28566539 453.69380938 617.64737092 456.82788086 619.19824219 C458.00607895 619.77934753 459.18427704 620.36045288 460.3981781 620.95916748 C461.67059145 621.59218526 462.94280857 622.22559762 464.21484375 622.859375 C465.53468583 623.51480639 466.8545563 624.17018059 468.17445374 624.82550049 C470.93541705 626.1977591 473.69461904 627.57349207 476.45288086 628.95117188 C479.96944804 630.70676595 483.49229143 632.449347 487.01686764 634.18879318 C489.74422157 635.53752343 492.46697082 636.89535374 495.18857002 638.25565338 C496.48456492 638.90156192 497.78219164 639.5442079 499.0815258 640.1833725 C515.40177437 648.22204245 515.40177437 648.22204245 519.6875 655.6875 C521.40506853 661.54743968 521.6129224 665.96203047 519.125 671.5 C516.65894279 675.97413236 513.34988363 679.01255818 508.75 681.3125 C496.87496958 683.18529555 488.26765404 678.49067157 478.06640625 673.24609375 C476.39632887 672.40908054 474.72532546 671.57391274 473.05345154 670.74049377 C469.56992394 668.99704053 466.09590793 667.23632133 462.62817383 665.46166992 C458.19858068 663.19574344 453.75127718 660.96758303 449.29673862 658.75117397 C445.85111062 657.03311425 442.41378957 655.29896301 438.97889519 653.55955696 C437.34201147 652.73220728 435.70304349 651.90896711 434.06192207 651.09005547 C431.76672309 649.94083148 429.4831256 648.77119117 427.20141602 647.59545898 C426.53275513 647.26529785 425.86409424 646.93513672 425.1751709 646.5949707 C417.40690477 642.52689773 413.34160186 636.5183936 410.22314453 628.49707031 C409.76828926 627.37622795 409.76828926 627.37622795 409.304245 626.23274231 C408.31709762 623.79049155 407.34967533 621.34096886 406.3828125 618.890625 C405.69740945 617.18103651 405.01093999 615.47187522 404.32345581 613.76312256 C402.89146203 610.19580033 401.46852981 606.62505079 400.05273438 603.05126953 C398.23648368 598.46717495 396.40365457 593.88994513 394.56482124 589.31486893 C393.15005089 585.79256408 391.74100548 582.26799398 390.33401108 578.7425766 C389.65965484 577.05322331 388.9842162 575.36430167 388.30768204 573.6758194 C387.36655789 571.32276305 386.43245433 568.9670475 385.50048828 566.61035156 C385.22004166 565.91212784 384.93959503 565.21390411 384.65065002 564.49452209 C383.5155489 561.60510165 382.75 559.44795818 382.75 556.3125 C361.96 556.3125 341.17 556.3125 319.75 556.3125 C321.235 570.6675 321.235 570.6675 322.75 585.3125 C323.19405173 592.65953777 323.58632091 599.9605809 323.75 607.3125 C323.77191406 608.17842773 323.79382813 609.04435547 323.81640625 609.93652344 C324.09763374 622.65269308 323.590706 635.30766671 322.875 648 C322.83579437 648.72320435 322.79658875 649.44640869 322.75619507 650.19152832 C322.26824071 659.00756305 321.38830208 667.62327021 319.75 676.3125 C320.32087341 676.47440826 320.89174683 676.63631653 321.47991943 676.8031311 C328.69434199 678.90271466 335.72268399 681.41134794 342.765625 684.0234375 C344.5875235 684.6984581 344.5875235 684.6984581 346.44622803 685.38711548 C348.99866574 686.33422674 351.54989961 687.28451133 354.10058594 688.23632812 C357.35348 689.44922498 360.61149948 690.64769156 363.87085342 691.84309959 C367.00637487 692.99686928 370.13550228 694.16760239 373.265625 695.3359375 C374.42821838 695.76006927 375.59081177 696.18420105 376.78863525 696.6211853 C383.85295079 699.28466718 389.07664173 701.65891037 393.625 707.875 C396.46694867 716.55873204 394.55541666 726.03045387 392.73046875 734.77246094 C392.5158902 735.84710602 392.30131165 736.9217511 392.08023071 738.02896118 C391.37691976 741.53723764 390.65737863 745.04196423 389.9375 748.546875 C389.44324354 750.9957475 388.95001393 753.44482745 388.45776367 755.894104 C387.16594538 762.30760532 385.86028562 768.71821089 384.55163574 775.1282959 C383.2148249 781.68252312 381.893773 788.23994205 380.5703125 794.796875 C377.97641887 807.63804616 375.36833057 820.47629049 372.75 833.3125 C375.63447188 835.62928395 378.51363538 837.91140604 381.53515625 840.046875 C382.22375732 840.53389893 382.9123584 841.02092285 383.62182617 841.52270508 C384.34474854 842.0308374 385.0676709 842.53896973 385.8125 843.0625 C386.95392456 843.86627075 386.95392456 843.86627075 388.1184082 844.6862793 C393.12097274 848.1976389 398.16999753 851.62688457 403.26953125 854.99609375 C411.82880711 860.66998509 420.28545141 866.4987709 428.75 872.3125 C429.5032959 872.82731934 430.2565918 873.34213867 431.03271484 873.87255859 C432.96598939 875.19738678 434.89075491 876.53352381 436.8125 877.875 C438.37677734 878.95974609 438.37677734 878.95974609 439.97265625 880.06640625 C444.48068502 883.71213978 448.33482197 887.48061096 448.98828125 893.51171875 C449.1710223 899.63835294 448.5891836 904.3795319 444.75 909.3125 C439.74233587 914.36937951 434.26007431 914.92545508 427.38671875 915.171875 C421.73784688 913.83701806 417.48729644 910.57635821 412.75 907.3125 C411.89543213 906.73854492 411.04086426 906.16458984 410.16040039 905.57324219 C407.5759502 903.83410747 405.00553551 902.0757705 402.4375 900.3125 C400.50393819 898.98953665 398.5703435 897.66662135 396.63671875 896.34375 C395.66009277 895.67472656 394.6834668 895.00570312 393.67724609 894.31640625 C389.94576975 891.76194771 386.20959574 889.21442609 382.47265625 886.66796875 C380.65844112 885.43159546 378.84463843 884.19461674 377.03125 882.95703125 C372.29136279 879.72251595 367.5462551 876.496048 362.79296875 873.28125 C361.81263672 872.61673828 360.83230469 871.95222656 359.82226562 871.26757812 C357.96457697 870.00857586 356.10532149 868.75188083 354.24414062 867.49804688 C336.24851907 855.28721951 336.24851907 855.28721951 333.75 849.3125 C332.33826573 837.50704382 335.29064657 825.92584122 337.7002449 814.44783783 C338.42655384 810.98736036 339.13575561 807.52374465 339.84091187 804.05889893 C341.33704507 796.72359275 342.85514819 789.39292214 344.375 782.0625 C346.14339925 773.52284881 347.90277938 764.98147641 349.64393234 756.43622589 C350.34459163 753.01837919 351.05934319 749.6036767 351.77481079 746.18890381 C352.20029532 744.11142032 352.625165 742.03381077 353.04931641 739.95605469 C353.25287247 739.00341232 353.45642853 738.05076996 353.66615295 737.06925964 C353.92707481 735.77025475 353.92707481 735.77025475 354.19326782 734.44500732 C354.42832503 733.31358873 354.42832503 733.31358873 354.66813087 732.1593132 C354.69514769 731.54986485 354.7221645 730.94041649 354.75 730.3125 C352.7199177 728.2824177 351.66291369 727.75760101 349.03466797 726.80029297 C348.27403046 726.5201535 347.51339294 726.24001404 346.72970581 725.9513855 C345.90882477 725.65547516 345.08794373 725.35956482 344.2421875 725.0546875 C342.98125778 724.5928154 342.98125778 724.5928154 341.69485474 724.12161255 C339.00677921 723.13834536 336.31595835 722.16284647 333.625 721.1875 C331.80319947 720.52264472 329.98158244 719.85728639 328.16015625 719.19140625 C323.69221334 717.55925705 319.22179285 715.93406975 314.75 714.3125 C313.36489409 718.33486558 312.18503025 722.34937557 311.15625 726.4765625 C304.85574296 751.24615363 297.02115289 775.30448111 285.75 798.3125 C285.30962402 799.21774414 284.86924805 800.12298828 284.41552734 801.05566406 C271.9591135 826.41908898 256.22550473 848.90555809 236.75 869.3125 C235.84894531 870.29283203 235.84894531 870.29283203 234.9296875 871.29296875 C212.91861559 894.57603728 179.2230948 912.73118308 147.04858398 914.51806641 C143.02984506 914.61598033 139.01951665 914.64702378 135 914.625 C133.93818512 914.62176727 133.93818512 914.62176727 132.85491943 914.61846924 C122.533348 914.56801483 112.74828094 914.19429275 102.75 911.3125 C102.07501465 911.12977539 101.4000293 910.94705078 100.70458984 910.75878906 C66.76461305 901.42088716 37.01573263 877.88586519 15.75 850.3125 C15.32750977 849.7664209 14.90501953 849.2203418 14.46972656 848.65771484 C-15.71045574 809.38379609 -33.08708964 763.15432345 -44.25 715.3125 C-47.67106721 715.3125 -49.09095669 715.44327791 -52.10058594 716.59765625 C-52.84105164 716.87794678 -53.58151733 717.1582373 -54.34442139 717.44702148 C-55.13310608 717.75325439 -55.92179077 718.0594873 -56.734375 718.375 C-57.54996887 718.68574463 -58.36556274 718.99648926 -59.20587158 719.31665039 C-61.8063341 720.30907066 -64.40315833 721.31064838 -67 722.3125 C-68.76409083 722.98758594 -70.52841123 723.66207233 -72.29296875 724.3359375 C-76.61467223 725.98785036 -80.93313585 727.64798397 -85.25 729.3125 C-82.65965067 742.39492225 -80.06924999 755.47733432 -77.47878361 768.55973339 C-76.27595088 774.63429967 -75.07313589 780.70886947 -73.87036133 786.78344727 C-72.70978841 792.64488347 -71.54916905 798.50631048 -70.38851738 804.36773109 C-69.94554424 806.6048379 -69.50258788 808.84194802 -69.05964851 811.07906151 C-68.43963096 814.21051267 -67.81955394 817.34195206 -67.19946289 820.47338867 C-66.92433365 821.86306099 -66.92433365 821.86306099 -66.64364624 823.2808075 C-66.47398849 824.13751038 -66.30433075 824.99421326 -66.12953186 825.87687683 C-65.89752421 827.05195329 -65.89752421 827.05195329 -65.66082954 828.25076866 C-65.3304928 829.90855016 -64.98862279 831.56403142 -64.64305115 833.21870422 C-63.45403063 839.55265375 -63.18429974 846.69669028 -65.625 852.6875 C-73.92739754 860.98989754 -83.79272119 867.10244372 -93.55078125 873.5390625 C-99.1327273 877.22343339 -104.66623848 880.97546665 -110.1875 884.75 C-111.54113647 885.67437866 -111.54113647 885.67437866 -112.92211914 886.61743164 C-116.67696547 889.18278213 -120.43000002 891.7507645 -124.18164062 894.32080078 C-126.14804981 895.66775862 -128.11492531 897.01403594 -130.08227539 898.35961914 C-131.91587331 899.61374054 -133.74847982 900.86931336 -135.57983398 902.12670898 C-138.12768378 903.86882227 -140.6877701 905.59162456 -143.25 907.3125 C-144.19157959 907.9612207 -145.13315918 908.60994141 -146.10327148 909.27832031 C-153.41048012 914.17338641 -158.41927389 915.90978896 -167.25 914.3125 C-172.07183434 912.62868483 -175.17106715 910.02435604 -177.75 905.625 C-180.20998548 899.84130081 -180.11223066 894.06086023 -178.25 888.125 C-172.83934893 880.51627193 -164.52068692 875.63765582 -156.8125 870.625 C-149.46450858 865.7906181 -142.16088293 860.92066284 -135 855.8125 C-129.49371694 851.88844484 -123.949127 848.04644694 -118.30175781 844.32617188 C-115.15966724 842.25289483 -112.0260879 840.16727421 -108.89453125 838.078125 C-107.83210205 837.36946289 -106.76967285 836.66080078 -105.67504883 835.93066406 C-104.87478271 835.39666992 -104.0745166 834.86267578 -103.25 834.3125 C-105.82302147 821.31642006 -108.39614714 808.32036076 -110.96940422 795.32432747 C-112.16438671 789.28914504 -113.35933389 783.25395563 -114.55419922 777.21875 C-115.70825037 771.38970169 -116.86239579 765.56067206 -118.01660538 759.73165512 C-118.45597791 757.51263971 -118.89531701 755.29361767 -119.33462143 753.07458878 C-119.95199518 749.95612085 -120.56948998 746.83767691 -121.18701172 743.71923828 C-121.36683594 742.81076645 -121.54666016 741.90229462 -121.73193359 740.96629333 C-121.902966 740.10271713 -122.07399841 739.23914093 -122.25021362 738.34939575 C-122.49634462 737.10502432 -122.49634462 737.10502432 -122.74744797 735.83551407 C-123.09779501 734.07663047 -123.4521093 732.31853443 -123.80946732 730.56106186 C-123.98973843 729.67287891 -124.17000954 728.78469597 -124.35574341 727.86959839 C-124.5184479 727.07389875 -124.68115238 726.27819912 -124.84878731 725.45838737 C-126.23988885 718.01807628 -126.22335713 711.47361398 -122.02734375 705.03125 C-115.93566646 699.14039723 -107.05309718 696.78710446 -99.29296875 693.890625 C-97.9399691 693.38110225 -96.58713251 692.87114633 -95.23445129 692.36077881 C-92.41427354 691.29816062 -89.59263092 690.23956556 -86.76977539 689.18408203 C-83.14802195 687.82970908 -79.52943809 686.467095 -75.91181469 685.10173416 C-73.12562483 684.05083613 -70.33817417 683.00331879 -67.55028725 681.95693207 C-66.21469358 681.45537741 -64.87941425 680.95298488 -63.54445457 680.44974518 C-61.68606813 679.74997949 -59.82586514 679.05504369 -57.96557617 678.36035156 C-56.90747238 677.96382385 -55.84936859 677.56729614 -54.75920105 677.15875244 C-52.25 676.3125 -52.25 676.3125 -50.25 676.3125 C-50.38132324 675.64202637 -50.51264648 674.97155273 -50.64794922 674.28076172 C-52.27594122 665.36044193 -52.90372224 656.47368085 -53.375 647.4375 C-53.41669312 646.66294464 -53.45838623 645.88838928 -53.50134277 645.09036255 C-54.48564814 626.63606075 -54.41649243 608.45328359 -53.375 590 C-53.33588501 589.29519501 -53.29677002 588.59039001 -53.25646973 587.86422729 C-52.65406216 577.26869551 -51.49272907 566.87569713 -50.25 556.3125 C-71.04 556.3125 -91.83 556.3125 -113.25 556.3125 C-113.58 557.9625 -113.91 559.6125 -114.25 561.3125 C-115.13528915 563.78319656 -116.05263379 566.21687439 -117.0222168 568.65380859 C-117.30533218 569.37481247 -117.58844757 570.09581635 -117.88014221 570.83866882 C-118.81497964 573.21470736 -119.75647826 575.58802439 -120.69921875 577.9609375 C-121.02178965 578.77505726 -121.34436054 579.58917702 -121.67670631 580.42796707 C-123.38408947 584.73677443 -125.09653277 589.04352922 -126.81323242 593.34863281 C-128.57956348 597.78094783 -130.32897865 602.21973317 -132.07448101 606.66028404 C-133.42500705 610.08708503 -134.78793601 613.5088545 -136.15421486 616.9294014 C-136.80424367 618.56292632 -137.44968507 620.19828489 -138.09030724 621.8355217 C-138.99075221 624.13326481 -139.90862377 626.4233141 -140.83081055 628.71240234 C-141.21687973 629.71482719 -141.21687973 629.71482719 -141.61074829 630.73750305 C-144.92045669 638.82523691 -149.93990349 643.7630982 -157.70141602 647.59545898 C-158.78331459 648.15294579 -158.78331459 648.15294579 -159.8870697 648.72169495 C-162.25131257 649.93392822 -164.62655167 651.12230532 -167.00390625 652.30859375 C-168.66844783 653.14992288 -170.33266267 653.99189873 -171.99656677 654.83448792 C-175.47869653 656.59268293 -178.96682323 658.33823962 -182.45922852 660.07592773 C-186.90966366 662.29236402 -191.33977908 664.54643906 -195.76565647 666.81143093 C-199.19612234 668.56006186 -202.63840486 670.28434858 -206.08439445 672.0021534 C-207.72179461 672.82278936 -209.35513297 673.65158715 -210.9840107 674.48901176 C-220.33327242 679.28060976 -228.42037263 683.20193803 -239.25 681.3125 C-244.53044615 678.81123604 -247.74000597 675.10598896 -250.5 670 C-251.9794715 664.69856045 -251.92021925 660.20973304 -249.75 655.1875 C-244.5427399 646.24367757 -233.88715345 642.34928865 -224.9765625 637.9453125 C-223.60244001 637.25944563 -222.22861473 636.57298303 -220.85507202 635.88595581 C-217.99485829 634.45740321 -215.13206197 633.0342191 -212.26708984 631.61523438 C-208.59092149 629.79425485 -204.92020072 627.96260028 -201.25115395 626.12732124 C-198.42356264 624.71379687 -195.59391017 623.30444315 -192.76353073 621.89651108 C-191.40822925 621.22204441 -190.05341145 620.5466049 -188.69908524 619.87018204 C-186.81520202 618.93040021 -184.92878459 617.9959244 -183.04150391 617.06298828 C-181.96865143 616.53037384 -180.89579895 615.9977594 -179.79043579 615.44900513 C-177.25 614.3125 -177.25 614.3125 -175.25 614.3125 C-175.11052444 613.78943771 -174.97104889 613.26637543 -174.8273468 612.72746277 C-172.35676778 603.98081929 -168.95681742 595.61221688 -165.60546875 587.17578125 C-165.284732 586.36624685 -164.96399525 585.55671246 -164.6335392 584.72264671 C-162.93905159 580.44626093 -161.23960598 576.17188657 -159.53588867 571.89916992 C-157.7853312 567.50622504 -156.05172468 563.10679515 -154.32189465 558.7056551 C-152.97994104 555.30031412 -151.62560376 551.89999742 -150.2679081 548.50090599 C-149.62345881 546.88133741 -148.98359095 545.25993749 -148.34856224 543.63665199 C-140.94652534 524.74414776 -140.94652534 524.74414776 -134.50743389 521.41027832 C-129.39928965 519.4209883 -124.99323995 518.89513018 -119.5390625 518.97192383 C-118.70884079 518.97148575 -117.87861908 518.97104767 -117.02323914 518.97059631 C-114.3069116 518.97266933 -111.59121834 518.99592927 -108.875 519.01953125 C-106.98071632 519.02513251 -105.08642827 519.0294001 -103.19213867 519.03239441 C-98.22727274 519.04380146 -93.26267371 519.07323275 -88.2979126 519.10650635 C-83.2233847 519.13729678 -78.14881331 519.15091887 -73.07421875 519.16601562 C-63.1326958 519.19810663 -53.19137017 519.24925255 -43.25 519.3125 C-42.84984428 517.48137917 -42.84984428 517.48137917 -42.44160461 515.61326599 C-42.08397274 513.9875166 -41.72623498 512.36179049 -41.3684082 510.73608398 C-41.19350105 509.93435509 -41.0185939 509.13262619 -40.83838654 508.30660248 C-39.34972787 501.55954268 -37.5196162 494.96382947 -35.4375 488.375 C-35.09783203 487.28396973 -34.75816406 486.19293945 -34.40820312 485.06884766 C-31.34660627 475.36006393 -27.91148499 465.80947669 -24.25 456.3125 C-25.56919434 455.89492683 -25.56919434 455.89492683 -26.91503906 455.46891785 C-29.94785972 454.41726897 -32.72909975 453.21817765 -35.609375 451.80981445 C-36.63063477 451.31201981 -37.65189453 450.81422516 -38.70410156 450.30134583 C-40.33557129 449.49669136 -40.33557129 449.49669136 -42 448.67578125 C-43.13147461 448.11811569 -44.26294922 447.56045013 -45.42871094 446.98588562 C-47.81698022 445.80555559 -50.20405125 444.62304763 -52.58984375 443.43774414 C-55.62924692 441.92910637 -58.67752584 440.43939314 -61.72821045 438.95373249 C-64.65907234 437.52089779 -67.57868208 436.06545073 -70.5 434.61328125 C-71.58764648 434.08696609 -72.67529297 433.56065094 -73.79589844 433.01838684 C-80.77681901 429.50792855 -86.06527819 426.0634693 -89.39916992 418.81347656 C-89.68691284 417.64510254 -89.68691284 417.64510254 -89.98046875 416.453125 C-90.21733398 415.52459717 -90.45419922 414.59606934 -90.69824219 413.6394043 C-91.0641748 412.11633667 -91.0641748 412.11633667 -91.4375 410.5625 C-91.89431152 408.91278198 -91.89431152 408.91278198 -92.36035156 407.22973633 C-94.10846151 400.74752503 -95.42645078 394.4041698 -96.27542114 387.74131775 C-98.37600576 371.7992352 -100.54672499 356.24272298 -113.46572876 345.43742371 C-123.2155144 337.98604567 -133.77158268 331.7719863 -144.5690918 325.97338867 C-151.45889593 322.18807569 -158.64861176 318.11666472 -161.25 310.3125 C-162.00237959 303.65931478 -161.76483241 298.46340729 -157.72265625 292.96875 C-153.39509784 288.10168166 -149.25241417 286.8292845 -143.0078125 286.09765625 C-135.08803914 286.71463576 -128.82771744 291.29673573 -122.484375 295.66796875 C-121.56972473 296.28843582 -120.65507446 296.90890289 -119.71270752 297.548172 C-116.8031235 299.52438767 -113.90144796 301.51186354 -111 303.5 C-109.06693217 304.81652775 -107.13334284 306.13229013 -105.19921875 307.44726562 C-102.39244666 309.3555881 -99.5869199 311.26555486 -96.78625488 313.18283081 C-93.01280565 315.76515379 -89.24036578 318.34041959 -85.39257812 320.81103516 C-84.34005859 321.48827637 -83.28753906 322.16551758 -82.203125 322.86328125 C-80.91390137 323.67212769 -80.91390137 323.67212769 -79.59863281 324.49731445 C-72.09146239 330.29937392 -71.32011101 335.40934554 -70.03385162 344.62358665 C-66.16123895 377.55275184 -66.16123895 377.55275184 -49.75585938 404.81494141 C-37.2483668 413.96915827 -22.11289249 419.30686104 -7.25 423.3125 C-6.95448242 422.55146973 -6.65896484 421.79043945 -6.35449219 421.00634766 C0.04337885 405.4019911 11.91211433 391.04497846 22.75 378.3125 C21.31519441 375.31307308 19.65814692 372.55406782 17.875 369.75 C7.78531189 352.89283816 6.90703207 333.22553591 10.75 314.3125 C15.0009974 297.8592469 22.72683921 285.19706528 34.75 273.3125 C35.84441406 272.20261719 35.84441406 272.20261719 36.9609375 271.0703125 C45.26296747 263.13863331 59.78006003 253.3125 71.75 253.3125 C69.87452145 172.97950196 49.73342398 93.01333887 -9.6796875 34.9375 C-10.38351562 34.2775 -11.08734375 33.6175 -11.8125 32.9375 C-16.43145758 28.43377629 -17.89886069 24.12161445 -18.6875 17.8125 C-17.9450464 11.87287117 -15.71505983 7.27880088 -11.125 3.375 C-7.06170197 0.46002533 -4.98702926 0.10816616 0 0 Z M56.75 303.3125 C48.43781615 313.9024602 44.45893078 325.8622565 45.75 339.3125 C46.49579681 344.24623273 48.10515314 348.08799119 50.75 352.3125 C51.3584375 351.91160156 51.966875 351.51070313 52.59375 351.09765625 C86.00968273 329.42644105 121.5691016 317.60105792 161.52001953 325.81201172 C179.36978282 329.81814427 195.36645928 337.59562363 210.75 347.3125 C212.09384766 348.14587891 212.09384766 348.14587891 213.46484375 348.99609375 C215.23219512 350.09253493 216.99237536 351.20053339 218.75 352.3125 C224.24828743 343.44429447 225.13280759 334.30983963 223.1015625 324.03125 C219.46772757 310.98671435 212.52929681 300.57538954 200.82421875 293.55859375 C191.68309794 288.73830768 183.37459404 287.00778832 173.10620117 287.0378418 C172.18781967 287.03273087 171.26943817 287.02761993 170.32322693 287.02235413 C167.31307297 287.00855185 164.30315043 287.00940801 161.29296875 287.01171875 C159.18223487 287.00782632 157.07150176 287.00349053 154.96076965 286.99873352 C150.54535377 286.99129114 146.13001787 286.99154793 141.71459961 286.99682617 C136.08287313 287.00261417 130.45147624 286.9856961 124.81980419 286.9624815 C120.46236792 286.9476805 116.10500983 286.94688117 111.74755287 286.94999123 C109.67252259 286.94948108 107.59748757 286.94430161 105.52248192 286.93417931 C86.55228554 286.85299516 70.37450212 288.61163389 56.75 303.3125 Z M49.0234375 404.5390625 C42.12318874 412.95689175 35.89357148 421.85368088 30 431 C29.5572876 431.67111816 29.1145752 432.34223633 28.65844727 433.03369141 C26.36347898 436.43720299 26.36347898 436.43720299 25.99926758 440.37207031 C27.205978 443.49107339 29.67401439 445.29692134 32.1875 447.375 C32.75879639 447.85106689 33.33009277 448.32713379 33.91870117 448.81762695 C62.42042182 471.86342285 97.74946078 483.53363518 134.125 483.5625 C135.26799561 483.56351212 135.26799561 483.56351212 136.43408203 483.56454468 C147.80376127 483.54854074 158.68157905 483.06253698 169.75 480.3125 C170.45334473 480.15152832 171.15668945 479.99055664 171.88134766 479.82470703 C195.63764512 474.33761902 218.32567816 463.35948999 236.75 447.3125 C237.81541016 446.40951172 237.81541016 446.40951172 238.90234375 445.48828125 C240.52775328 444.10748781 242.1406285 442.71195348 243.75 441.3125 C243.31186863 435.92668997 240.27745873 432.13579182 237.3125 427.8125 C236.49942383 426.61427612 236.49942383 426.61427612 235.66992188 425.3918457 C214.65872763 394.68483513 187.89745279 368.44550414 150.5625 360 C110.17278802 353.82768496 74.91167175 374.91245507 49.0234375 404.5390625 Z M8.75 475.3125 C5.30790793 483.23467765 2.32688696 491.17475286 -0.1875 499.4375 C-0.52813477 500.55568115 -0.86876953 501.6738623 -1.21972656 502.82592773 C-12.36423333 540.15793646 -17.49071337 578.71715546 -17.4375 617.625 C-17.43689575 618.45054382 -17.4362915 619.27608765 -17.43566895 620.12664795 C-17.27627055 700.98634574 3.96317983 787.89397136 62.62231445 846.56005859 C68.84343656 852.61539218 75.46829443 857.61404474 82.75 862.3125 C83.59691406 862.88226562 84.44382812 863.45203125 85.31640625 864.0390625 C105.58666912 877.06278988 130.35310491 881.35039893 153.796875 876.2890625 C175.44959566 871.17749648 193.01896788 859.54952523 208.75 844.3125 C209.25418457 843.83409668 209.75836914 843.35569336 210.27783203 842.86279297 C217.93610012 835.59339283 224.65811556 827.95081597 230.75 819.3125 C231.17071777 818.71969238 231.59143555 818.12688477 232.02490234 817.51611328 C271.73922998 760.78775577 286.94626001 688.39881716 287 620.0625 C287.00067474 619.27446991 287.00134949 618.48643982 287.00204468 617.67453003 C286.93727194 569.1888071 278.66066314 521.75400263 261.75 476.3125 C257.73175817 476.3125 255.96158472 478.31425854 253 480.75 C231.33452293 497.87173664 205.36139262 508.79525461 178.625 515.0625 C177.77929443 515.26149902 176.93358887 515.46049805 176.06225586 515.66552734 C162.46368688 518.67537495 148.95126532 519.69521002 135.0625 519.625 C134.32564972 519.62350952 133.58879944 519.62201904 132.82962036 519.6204834 C120.59822232 519.57623912 108.75991341 518.76633534 96.75 516.3125 C96.01620117 516.16796387 95.28240234 516.02342773 94.52636719 515.87451172 C89.54683547 514.87216728 84.64367349 513.67166161 79.75 512.3125 C79.06470215 512.12381348 78.3794043 511.93512695 77.67333984 511.74072266 C53.90959539 504.9913549 30.44437152 493.08350855 11.69140625 476.9296875 C10.04306331 475.20582795 10.04306331 475.20582795 8.75 475.3125 Z " fill="#000000" transform="translate(365.25,33.6875)"/>
</svg>
