<?xml version="1.0" encoding="UTF-8"?>
<svg id="Layer_1" xmlns="http://www.w3.org/2000/svg" version="1.1" viewBox="0 0 63.2 64">
  <!-- Generator: Adobe Illustrator 29.1.0, SVG Export Plug-In . SVG Version: 2.1.0 Build 142)  -->
  <path d="M31.6,16.2c.3,0,.6.1.8.3l26.1,20.6c.6.5.7,1.4.2,2-.4.6-1.4.7-2,.2l-25.2-19.9L6.3,39.3c-.6.4-1.5.4-1.9-.2-.4-.6-.4-1.5.2-2l9.8-7.7v-11.8c0-.8.6-1.4,1.4-1.4h5.5c.8,0,1.4.6,1.4,1.4v5.3l8.1-6.4c.3-.2.6-.3.9-.3h0ZM19.9,19h-2.7v8.2l2.7-2.2v-6.1ZM48.7,34.7l2.7,2.2v21.9c0,.8-.6,1.4-1.4,1.4h-11.7c-.8,0-1.4-.6-1.4-1.4v-6.9c0-3.1-2.4-5.5-5.5-5.5s-5.5,2.4-5.5,5.5v6.9c0,.8-.6,1.4-1.4,1.4h-11.7c-.8,0-1.4-.6-1.4-1.4v-21.9l2.7-2.2v22.7h8.9v-5.5c0-4.5,3.7-8.2,8.2-8.2s8.2,3.7,8.2,8.2v5.5h8.9v-22.7h0Z"/>
</svg>