<?xml version="1.0" encoding="UTF-8"?>
<svg id="Layer_1" xmlns="http://www.w3.org/2000/svg" version="1.1" viewBox="0 0 63.2 64">
  <!-- Generator: Adobe Illustrator 29.1.0, SVG Export Plug-In . SVG Version: 2.1.0 Build 142)  -->
  <defs>
    <style>
      .st0 {
        stroke: #000;
        stroke-miterlimit: 10;
      }
    </style>
  </defs>
  <g id="Layer_38">
    <path class="st0" d="M26.4,38.2h10.4c.6,0,1-.4,1-1s-.4-1-1-1h-10.4c-.6,0-1,.4-1,1s.4,1,1,1Z"/>
    <path class="st0" d="M26.4,30.6h10.4c.6,0,1-.4,1-1s-.4-1-1-1h-10.4c-.6,0-1,.4-1,1s.4,1,1,1Z"/>
    <path class="st0" d="M26.4,23h10.4c.6,0,1-.4,1-1s-.4-1-1-1h-10.4c-.6,0-1,.4-1,1s.4,1,1,1Z"/>
    <path class="st0" d="M59.9,57.7h-4.2v-20.4c0-.6-.4-1-1-1h-9.4V15.8c0-.4-.2-.8-.6-.9L19.3,4.4c-.3-.1-.7,0-.9,0-.3.2-.4.5-.4.8v17.9h-9.4c-.6,0-1,.4-1,1v33.4h-3.4c-.6,0-1,.4-1,1s.4,1,1,1h55.7c.6,0,1-.4,1-1s-.4-1-1-1ZM9.5,25.3h8.4v32.4h-8.4V25.3ZM19.9,6.8l23.3,9.6v41.2h-5.5v-9.7c0-.6-.4-1-1-1h-10.4c-.6,0-1,.4-1,1v9.7h-5.4V6.8ZM27.4,57.7v-8.7h8.4v8.7h-8.4ZM45.2,57.7v-19.4h8.4v19.4h-8.4Z"/>
  </g>
</svg>