<?xml version="1.0" encoding="UTF-8"?>
<svg version="1.1" xmlns="http://www.w3.org/2000/svg" width="678" height="678">
<path d="M0 0 C1.51400391 1.20849609 1.51400391 1.20849609 3.05859375 2.44140625 C45.02270812 36.58861235 71.2440444 84.58416091 79 138 C79.103125 138.66845947 79.20625 139.33691895 79.3125 140.02563477 C80.38815061 148.02290494 80.24390738 156.13274556 80.25 164.1875 C80.25067474 164.98890411 80.25134949 165.79030823 80.25204468 166.61599731 C80.23468698 179.62210259 79.56049866 192.21514791 77 205 C76.83371094 205.85480957 76.66742187 206.70961914 76.49609375 207.59033203 C71.03857934 234.83242478 60.04010866 259.56730687 44.61474609 282.56640625 C41.40842509 287.39867232 38.30686826 292.29885461 35.1875 297.1875 C34.50349121 298.25701904 33.81948242 299.32653809 33.11474609 300.4284668 C28.16082811 308.17458248 23.22267887 315.93066403 18.28979492 323.69018555 C13.87304365 330.6352538 9.43900859 337.56914061 5 344.5 C-0.31961223 352.8079693 -5.6351139 361.11852325 -10.9375 369.4375 C-11.8337207 370.84128906 -11.8337207 370.84128906 -12.74804688 372.2734375 C-13.29396484 373.13066406 -13.83988281 373.98789062 -14.40234375 374.87109375 C-14.88179443 375.62318115 -15.36124512 376.37526855 -15.85522461 377.15014648 C-17.03396819 378.9926106 -17.03396819 378.9926106 -18 381 C-16.59983643 381.25523437 -16.59983643 381.25523437 -15.17138672 381.515625 C39.01633882 391.45488679 108.50824616 404.63408058 144.18359375 451.2578125 C153.41118356 465.18849647 157.70471307 480.56837526 155.375 497.25 C150.80760052 519.37054257 135.10033749 535.78166721 116.78955078 547.85205078 C111.65838158 551.14355932 106.37307989 554.12551881 101 557 C100.41089844 557.32178223 99.82179688 557.64356445 99.21484375 557.97509766 C36.42633857 592.06464515 -43.75152136 599.41193599 -114 601 C-115.02867187 601.02336426 -116.05734375 601.04672852 -117.1171875 601.07080078 C-201.3462884 602.66483116 -307.89418577 594.85095543 -388.71948242 534.35522461 C-401.33428581 521.8989957 -410.38155867 507.13781823 -411.07763672 488.97412109 C-411.18789463 470.40227849 -403.8026762 455.08119817 -390.94921875 441.8828125 C-382.52205567 433.51997891 -373.32041333 426.82420385 -363 421 C-362.34773438 420.62407715 -361.69546875 420.2481543 -361.0234375 419.86083984 C-323.30049055 398.28847107 -279.45681328 388.2321225 -237 381 C-243.14750346 370.79933293 -249.43369037 360.71059781 -255.95214844 350.74267578 C-261.78544314 341.81824808 -267.49982092 332.81969212 -273.21191406 323.81738281 C-276.24214499 319.04282453 -279.27701575 314.27121964 -282.3125 309.5 C-282.89918457 308.57783691 -283.48586914 307.65567383 -284.09033203 306.70556641 C-287.3208057 301.63041624 -290.55886252 296.56032916 -293.8125 291.5 C-294.51246094 290.40816406 -295.21242188 289.31632812 -295.93359375 288.19140625 C-297.32522638 286.0421362 -298.73451356 283.90420671 -300.16015625 281.77734375 C-329.32001936 238.06983414 -342.52954325 182.84728851 -332.97265625 130.7265625 C-332.65434858 129.1498368 -332.32999571 127.57432097 -332 126 C-331.82839355 125.15018555 -331.65678711 124.30037109 -331.47998047 123.42480469 C-324.88523477 91.42349176 -311.53256273 61.51653522 -291 36 C-289.79150391 34.48599609 -289.79150391 34.48599609 -288.55859375 32.94140625 C-276.40964759 18.00746277 -262.69851779 5.12584428 -247 -6 C-246.35144043 -6.46132324 -245.70288086 -6.92264648 -245.03466797 -7.39794922 C-172.43492234 -58.54566488 -69.31079016 -55.77278163 0 0 Z M-245 43 C-245.87527344 43.80953125 -246.75054687 44.6190625 -247.65234375 45.453125 C-279.33663341 75.81913001 -295.88335227 119.96438283 -297 163.34765625 C-297.35025622 199.53037463 -285.89237446 233.07975277 -266 263 C-265.60731934 263.59135742 -265.21463867 264.18271484 -264.81005859 264.79199219 C-263.21948353 267.18149531 -261.62458169 269.56800812 -260.02270508 271.94995117 C-254.46099618 280.24290404 -249.15688437 288.70216519 -243.81445312 297.13720703 C-240.88298627 301.76239275 -237.94109367 306.38093239 -235 311 C-233.83328064 312.8332998 -232.66661404 314.66663318 -231.5 316.5 C-230.9225 317.4075 -230.345 318.315 -229.75 319.25 C-210.5 349.5 -210.5 349.5 -208.75048828 352.24926758 C-207.58223612 354.08506912 -206.41394176 355.9208438 -205.24560547 357.7565918 C-202.35285245 362.30194376 -199.4608023 366.84773967 -196.5703125 371.39453125 C-190.39533632 381.10608469 -184.2066379 390.8086463 -178 400.5 C-171.21971821 411.08706986 -164.46257897 421.68864146 -157.71777344 432.29833984 C-154.81326436 436.86646057 -151.90650817 441.43315106 -149 446 C-147.85155195 447.80468079 -146.70311449 449.60936831 -145.5546875 451.4140625 C-144.97944336 452.31801758 -144.40419922 453.22197266 -143.81152344 454.15332031 C-138.54101562 462.43554688 -133.27050781 470.71777344 -128 479 C-124.7010308 475.0397167 -121.89429509 470.8963167 -119.125 466.5625 C-118.65231689 465.82733154 -118.17963379 465.09216309 -117.69262695 464.3347168 C-116.12448153 461.89230683 -114.5614782 459.44667741 -113 457 C-112.18233154 455.71899414 -112.18233154 455.71899414 -111.34814453 454.41210938 C-107.82530657 448.88888642 -104.31065126 443.36048767 -100.79833984 437.83056641 C-97.86826232 433.21865779 -94.93398065 428.60942613 -92 424 C-88.52233406 418.53585719 -85.04513244 413.07142197 -81.5703125 407.60546875 C-74.72072586 396.83293704 -67.8505252 386.07385175 -60.96582031 375.32373047 C-54.86476405 365.79470036 -48.78805239 356.25031629 -42.71777344 346.70166016 C-39.81326436 342.13353943 -36.90650771 337.56684923 -34 333 C-32.8333228 331.16667337 -31.66665613 329.33334004 -30.5 327.5 C-28.16666667 323.83333333 -25.83333333 320.16666667 -23.5 316.5 C-22.9227417 315.59282227 -22.3454834 314.68564453 -21.75073242 313.75097656 C-20.58183489 311.91425401 -19.41272617 310.07766585 -18.2434082 308.24121094 C-15.35914312 303.71080041 -12.4783627 299.17825618 -9.60546875 294.640625 C-8.46633352 292.84363101 -7.32700958 291.04675663 -6.1875 289.25 C-5.62063477 288.35498779 -5.05376953 287.45997559 -4.46972656 286.5378418 C-1.26157134 281.49129045 1.99537493 276.4821922 5.30859375 271.50390625 C33.37640431 229.31103106 48.60352886 184.59653933 38.99609375 133.3984375 C33.26709486 105.30699317 21.06301599 77.61580248 2 56 C1.26910156 55.15953125 0.53820312 54.3190625 -0.21484375 53.453125 C-29.05695647 20.80932783 -69.64837686 -1.80180903 -113.66113281 -4.87109375 C-163.70806673 -7.62942163 -208.46713576 8.86547647 -245 43 Z M-237.5 420.625 C-238.65884201 420.82657715 -238.65884201 420.82657715 -239.84109497 421.03222656 C-281.84493416 428.36522414 -342.49202193 439.67955719 -369 477 C-371.7387577 481.77073923 -372.48635227 485.33271135 -371.6328125 490.671875 C-367.88074199 504.47578874 -355.38748438 512.47341529 -343.74072266 519.33007812 C-267.84954885 562.59097023 -164.51930983 566.94093405 28.11328125 543.37890625 C77.30103395 529.77013735 77.30103395 529.77013735 114.33984375 496.8203125 C116.69575695 492.23540399 117.63202252 488.363186 116.7265625 483.25 C111.3891567 466.72125947 92.91946155 456.39479542 78.41479492 448.93969727 C43.5119533 431.70972181 4.30565006 423.41181104 -34 418 C-34.78971191 417.84088135 -35.57942383 417.6817627 -36.39306641 417.51782227 C-38.90752856 417.19931587 -40.57284468 417.22247666 -43 418 C-46.16637906 421.22442669 -48.19615193 425.0029382 -50.375 428.9375 C-51.68241661 431.16345223 -52.99101592 433.38871021 -54.30078125 435.61328125 C-54.93193848 436.70979004 -55.5630957 437.80629883 -56.21337891 438.93603516 C-58.53651803 442.92010129 -61.02134641 446.77785036 -63.5625 450.625 C-64.44391302 451.97708002 -65.32410156 453.32995898 -66.203125 454.68359375 C-66.87504883 455.71782471 -66.87504883 455.71782471 -67.56054688 456.77294922 C-72.15194132 463.87652794 -76.66685771 471.02966222 -81.20166016 478.16943359 C-84.70639823 483.68585136 -88.21582699 489.19928968 -91.72729492 494.71142578 C-94.77771699 499.50120272 -97.82017858 504.29580376 -100.8515625 509.09765625 C-101.48320312 510.09603516 -102.11484375 511.09441406 -102.765625 512.12304688 C-103.97376874 514.03297999 -105.17962901 515.94436012 -106.3828125 517.85742188 C-115.06640155 531.56889091 -115.06640155 531.56889091 -123.10546875 533.5078125 C-129.88713285 534.60501805 -134.74923163 533.15665863 -140.4140625 529.3984375 C-143.79647367 526.26127669 -145.82430222 522.78012002 -148.125 518.8125 C-149.09834371 517.17724302 -150.07365179 515.54315391 -151.05078125 513.91015625 C-151.78868896 512.67289795 -151.78868896 512.67289795 -152.54150391 511.41064453 C-154.72202508 507.80661606 -157.00839875 504.27586396 -159.3125 500.75 C-163.51843128 494.29540544 -167.68038735 487.8146267 -171.8125 481.3125 C-172.40281006 480.38381104 -172.99312012 479.45512207 -173.60131836 478.49829102 C-174.80455956 476.60478049 -176.00760236 474.71114387 -177.21044922 472.81738281 C-180.09694849 468.27301698 -182.98552827 463.72997631 -185.875 459.1875 C-186.43912598 458.30046387 -187.00325195 457.41342773 -187.58447266 456.49951172 C-190.82575998 451.40606022 -194.07492862 446.31772654 -197.33203125 441.234375 C-197.69570801 440.666689 -198.05938477 440.09900299 -198.43408203 439.51411438 C-200.20807359 436.74529125 -201.9830197 433.97708686 -203.75927734 431.2097168 C-204.39945801 430.21109619 -205.03963867 429.21247559 -205.69921875 428.18359375 C-206.26471436 427.30243896 -206.83020996 426.42128418 -207.4128418 425.51342773 C-209 423 -209 423 -210.4777832 420.20581055 C-210.98011475 419.47789307 -211.48244629 418.74997559 -212 418 C-220.4246614 416.90191379 -229.18754209 419.15842777 -237.5 420.625 Z " fill="#000000" transform="translate(467,61)"/>
<path d="M0 0 C17.79032056 15.37342827 29.63779154 37.1423425 32.1015625 60.66015625 C33.61001717 90.89222686 26.33331277 115.98336167 6.03125 138.62890625 C-9.79693618 155.46694984 -33.36533187 166.0450844 -56.37109375 166.99609375 C-73.29522665 167.26720341 -88.56878839 165.18243042 -103.8984375 157.66015625 C-105.29642578 156.98146484 -105.29642578 156.98146484 -106.72265625 156.2890625 C-113.45937211 152.82204973 -119.13092338 148.54265527 -124.8984375 143.66015625 C-125.50171875 143.20253906 -126.105 142.74492187 -126.7265625 142.2734375 C-143.27130949 129.40100585 -154.06404044 106.33410294 -156.6875 85.89794922 C-159.35205656 57.63021147 -152.86044146 32.00924565 -134.6484375 9.97265625 C-122.25284986 -4.45231653 -107.05802998 -13.92274498 -88.8984375 -19.33984375 C-87.87105469 -19.65953125 -86.84367187 -19.97921875 -85.78515625 -20.30859375 C-55.08832853 -28.4044604 -24.10659126 -19.46071181 0 0 Z M-102.9609375 33.03515625 C-113.05773863 43.41548689 -118.71637396 58.27713671 -118.8984375 72.66015625 C-117.87776954 89.10425118 -111.44197771 103.04864706 -99.578125 114.453125 C-85.70654399 125.87796942 -70.53520171 129.28263141 -52.8984375 127.66015625 C-37.90472016 124.9946065 -24.96303628 116.45010672 -16.0859375 104.1484375 C-14.55002112 101.70249066 -13.1914176 99.24205047 -11.8984375 96.66015625 C-11.50914062 95.89316406 -11.11984375 95.12617188 -10.71875 94.3359375 C-4.98195084 81.66891746 -4.69735905 67.56311805 -8.94140625 54.43359375 C-15.22542831 38.36764739 -25.52987098 27.50879272 -41.06640625 20.25390625 C-63.08047469 10.68907752 -85.79829316 17.43987669 -102.9609375 33.03515625 Z " fill="#000000" transform="translate(401.8984375,154.33984375)"/>
</svg>
