<?xml version="1.0" encoding="UTF-8"?>
<svg version="1.1" xmlns="http://www.w3.org/2000/svg" width="1000" height="1000">
<path d="M0 0 C1.97271305 0.76741104 3.94620312 1.53282726 5.92041016 2.29638672 C10.112709 3.92097931 14.30050379 5.55650716 18.48535156 7.20019531 C25.02771978 9.76651962 31.58584641 12.29059775 38.1484375 14.8046875 C45.83774036 17.7506353 53.52448209 20.70286299 61.20571899 23.66978455 C70.37298136 27.21038091 79.55051688 30.71974294 88.75 34.17578125 C91.44394349 35.19290266 94.13749723 36.21104783 96.83087158 37.22967529 C98.50467206 37.85983509 100.18005506 38.48581005 101.8571167 39.10723877 C104.14584719 39.95548503 106.42874299 40.81794652 108.7109375 41.68359375 C109.69622437 42.04170891 109.69622437 42.04170891 110.70141602 42.40705872 C117.69716381 45.09539878 122.05642508 49.51495514 126.625 55.375 C130.20288991 60.28266199 130.20288991 60.28266199 135 63.75 C137.63116551 63.18314752 139.7755431 62.53432349 142.25 61.5625 C143.60094884 61.07382104 144.95250671 60.58682225 146.3046875 60.1015625 C147.52414062 59.65554687 148.74359375 59.20953125 150 58.75 C159.75098982 55.60351447 167.66761786 56.5342613 177.25 59.6875 C178.98376405 60.24020141 180.7181222 60.79104332 182.453125 61.33984375 C183.20754883 61.58597412 183.96197266 61.83210449 184.73925781 62.08569336 C187.14106454 62.79145104 189.53986352 63.29272254 192 63.75 C192.88751953 62.66332031 192.88751953 62.66332031 193.79296875 61.5546875 C195.42295169 59.560418 197.05723993 57.56966136 198.6953125 55.58203125 C199.96787492 54.01828929 201.22791574 52.44299875 202.4296875 50.82421875 C207.65352502 43.85309764 217.1104888 41.43294859 224.984375 38.46875 C226.0530632 38.06243347 227.1217514 37.65611694 228.2228241 37.23748779 C231.73049123 35.90462689 235.24025806 34.57738662 238.75 33.25 C243.09053125 31.60224096 247.43027894 29.95242303 251.76998711 28.30249786 C253.68668601 27.57398021 255.60358706 26.84599654 257.52052307 26.11810303 C271.7330544 20.71969212 285.91890566 15.25207509 300.10266113 9.77856445 C306.06037145 7.47975887 312.02099371 5.18882191 317.98535156 2.90731812 C321.18151235 1.68031773 324.37280271 0.44107286 327.56445312 -0.79760742 C329.71856121 -1.62467807 331.87285268 -2.45127127 334.02734375 -3.27734375 C335.01540512 -3.66416321 336.00346649 -4.05098267 337.02146912 -4.44952393 C344.06406328 -7.13126686 350.442491 -8.99683996 358 -7.25 C363.28044615 -4.74873604 366.49000597 -1.04348896 369.25 4.0625 C370.68558641 9.20668465 370.41327492 13.34000323 368.9375 18.375 C364.80768845 25.56886528 358.63574833 28.75800047 351.0625 31.546875 C350.19625 31.87951355 349.33 32.2121521 348.4375 32.55487061 C346.58187205 33.26611492 344.72388291 33.97122469 342.86376953 34.6706543 C340.01591759 35.74400071 337.17694555 36.83803312 334.33984375 37.93945312 C329.308605 39.8915282 324.2717578 41.82858602 319.23275757 43.76052856 C315.90897152 45.03490123 312.58587904 46.3110684 309.26293945 47.58764648 C302.17587521 50.30994873 295.08798495 53.03009604 288 55.75 C279.54332483 58.99522048 271.0870312 62.2414291 262.6315918 65.48986816 C259.24374924 66.79089865 255.85528755 68.09030708 252.46679688 69.38964844 C250.38799027 70.18807147 248.30921268 70.98657005 246.23046875 71.78515625 C244.8260981 72.32291435 244.8260981 72.32291435 243.39335632 72.87153625 C240.92478026 73.82092737 238.4605552 74.78002759 236 75.75 C235.30065338 76.02552704 234.60130676 76.30105408 233.88076782 76.58493042 C230.19182725 78.09260089 228.05202413 79.24948825 226 82.75 C227.49921306 86.12709334 229.48288571 88.6346642 231.875 91.4375 C238.63485841 99.74316996 241.18037374 107.38669948 241.125 118 C241.12886719 118.72574219 241.13273438 119.45148438 241.13671875 120.19921875 C241.12792814 125.13074827 240.69589371 129.86769806 240 134.75 C240.60585938 135.07871094 241.21171875 135.40742188 241.8359375 135.74609375 C257.69461681 144.74894401 267.61001734 157.10961079 272.59301758 174.50805664 C273.07119291 176.25288089 273.53642349 178.0012404 274 179.75 C274.33 180.74 274.66 181.73 275 182.75 C276.04454346 182.38648438 277.08908691 182.02296875 278.1652832 181.6484375 C282.03818814 180.30197816 285.91317305 178.96159574 289.78881836 177.62304688 C291.4664766 177.04267483 293.14356488 176.46065251 294.82006836 175.87695312 C297.22882807 175.03862776 299.63956978 174.20624306 302.05078125 173.375 C302.80087967 173.11251465 303.55097809 172.8500293 304.32380676 172.57958984 C307.33806007 171.54579727 309.78955964 170.75 313 170.75 C313.2774707 170.02143799 313.55494141 169.29287598 313.84082031 168.54223633 C314.92815665 165.92305652 316.14897015 163.53877258 317.546875 161.07421875 C318.05468506 160.17646729 318.56249512 159.27871582 319.08569336 158.35375977 C319.63491455 157.39139404 320.18413574 156.42902832 320.75 155.4375 C321.61347046 153.91757446 321.61347046 153.91757446 322.49438477 152.36694336 C327.73901665 143.15853508 333.06662636 133.99920821 338.4296875 124.859375 C340.91912048 120.61342456 343.37822147 116.35147391 345.8203125 112.078125 C346.44687744 110.98749756 347.07344238 109.89687012 347.71899414 108.77319336 C348.91715555 106.68644714 350.10939278 104.59628421 351.29467773 102.50219727 C352.10980835 101.08765259 352.10980835 101.08765259 352.94140625 99.64453125 C353.64825562 98.40473511 353.64825562 98.40473511 354.36938477 97.13989258 C357.8451121 92.04573254 362.36874415 88.5905075 367.44921875 85.21484375 C368.08328644 84.78701599 368.71735413 84.35918823 369.37063599 83.918396 C371.47251225 82.50243441 373.57980762 81.09478672 375.6875 79.6875 C377.172363 78.6908743 378.65697665 77.69387699 380.14135742 76.6965332 C383.35062241 74.54212235 386.5626065 72.39183897 389.77636719 70.24414062 C394.36114568 67.17948757 398.93864216 64.10410927 403.51487732 61.02671814 C407.34022105 58.45563762 411.16866076 55.8891968 414.99795532 53.32400513 C416.86976629 52.06938621 418.74068229 50.813431 420.61068726 49.55612183 C423.24393495 47.78673929 425.88117396 46.02347011 428.51953125 44.26171875 C429.30458038 43.73253845 430.08962952 43.20335815 430.89846802 42.65814209 C437.54601753 38.23510106 442.88245297 35.65413115 451 36.75 C457.3521533 38.81892317 460.94191342 42.14834849 464.25 47.9375 C465.79488778 53.73082917 466.12075876 59.48673119 463.1875 64.875 C455.97719089 74.52920021 442.81069803 80.95673689 432.87207031 87.5475769 C430.26450017 89.28192568 427.66473021 91.02746935 425.06640625 92.77563477 C417.69038446 97.7267177 410.34721697 102.64090487 402.63671875 107.05859375 C387.14719982 116.07898165 380.34508027 126.2929354 372.67822266 142.34423828 C370.07780403 147.62149168 367.08087295 152.64134309 364.0625 157.6875 C360.22959846 164.16276407 356.47434706 170.66922671 352.84765625 177.26171875 C351.78592456 179.17559325 350.72277092 181.08867069 349.65914917 183.00149536 C348.97962125 184.23255443 348.30633593 185.46708395 347.6399231 186.70529175 C346.70582691 188.43994849 345.7477528 190.16162611 344.7890625 191.8828125 C344.24975098 192.87168457 343.71043945 193.86055664 343.15478516 194.87939453 C337.04229404 203.02245714 328.64096822 205.66394222 319.234375 208.67578125 C317.90975488 209.11193644 316.585563 209.54939414 315.26177979 209.98808289 C311.80219534 211.13052758 308.33690802 212.25458586 304.87011719 213.37493896 C301.33920583 214.52002523 297.8145513 215.68405436 294.2890625 216.84570312 C289.14063172 218.53813136 283.99027673 220.22440304 278.83496094 221.89575195 C277.28563873 222.39822197 277.28563873 222.39822197 275.70501709 222.9108429 C273.4793748 223.60128716 271.26754826 224.21738894 269 224.75 C266.83967553 232.47916087 267.69593347 242.45926155 271 249.75 C274.69489575 253.62879364 279.90970588 255.11770287 284.84130859 256.8828125 C288.37848359 258.30376314 291.46281251 260.33066727 294.625 262.4375 C295.71039062 263.14261719 296.79578125 263.84773438 297.9140625 264.57421875 C300.1989072 266.18517888 302.01613005 267.69391175 304.0234375 269.58203125 C306.75693074 271.98246519 306.75693074 271.98246519 309.73828125 271.9140625 C314.55214784 270.19605981 318.78943112 267.70902525 323.1875 265.125 C325.2558568 263.93245939 327.32489539 262.74110069 329.39453125 261.55078125 C330.47557129 260.9263916 331.55661133 260.30200195 332.67041016 259.65869141 C338.20636054 256.48520115 343.7913491 253.40103632 349.375 250.3125 C359.49539384 244.70211545 369.60014059 239.064534 379.69287109 233.40454102 C381.58307732 232.34457226 383.4741439 231.28613577 385.36621094 230.22949219 C387.09921381 229.25600337 388.82664478 228.2725168 390.54785156 227.27832031 C391.33385742 226.82811523 392.11986328 226.37791016 392.9296875 225.9140625 C393.61015137 225.51912598 394.29061523 225.12418945 394.99169922 224.71728516 C400.05734296 222.27745042 405.18168268 222.27748829 410.5625 223.625 C420.17587599 227.43063938 425.42000061 238.12170946 430.94042969 246.32421875 C434.48485375 251.58486883 438.14901337 256.71011388 442 261.75 C446.95200886 268.24236145 451.57335273 274.91911817 456.14453125 281.68359375 C459.62946236 286.81534195 463.23900233 291.81760503 467 296.75 C471.91647343 303.20221361 476.52480494 309.82590727 481.07421875 316.54077148 C486.86935426 325.0756608 492.92606864 333.41241281 499 341.75 C500.66096248 344.032967 502.32062296 346.31683486 503.97680664 348.60327148 C505.06798569 350.1072592 506.16347421 351.60813051 507.26342773 353.10571289 C509.94400928 356.78042276 512.48464445 360.47455499 514.83984375 364.3671875 C515.29987793 365.10437012 515.75991211 365.84155273 516.23388672 366.60107422 C517.08730163 367.98140463 517.9110095 369.3808007 518.69580078 370.80126953 C520.54111637 373.74326463 521.96352114 375.45779083 525.38322449 376.42189026 C526.32047867 376.55538376 527.25773285 376.68887726 528.22338867 376.82641602 C529.296931 376.98216095 530.37047333 377.13790588 531.47654724 377.29837036 C537.12435919 378.02229642 542.77407298 378.71505503 548.43236542 379.35133171 C550.6035105 379.59623211 552.77400836 379.8462813 554.94439697 380.09779358 C561.1054478 380.81149187 567.2669154 381.52119 573.43017578 382.21557617 C577.22518445 382.64351432 581.0189253 383.08147398 584.81204987 383.52578926 C586.2452076 383.69174842 587.67879732 383.85402408 589.11281586 384.01237297 C608.39490386 386.14490386 608.39490386 386.14490386 615 392.75 C618.93680729 398.18007902 618.778159 404.3085727 618 410.75 C616.38524663 415.62030453 613.3202754 419.03726894 609 421.75 C598.04113716 426.64651318 582.01314026 422.1558675 570.32421875 420.7890625 C569.10261519 420.64711519 569.10261519 420.64711519 567.85633278 420.50230026 C563.55965593 420.0030219 559.26341369 419.50019077 554.9675293 418.99414062 C550.55978406 418.47557636 546.15075448 417.96891865 541.74132061 417.46494484 C538.31830181 417.07158417 534.89633289 416.66961308 531.47458839 416.26533127 C529.84961465 416.07480488 528.22426882 415.88742211 526.59854698 415.70338821 C504.30449276 413.17143951 504.30449276 413.17143951 498 406.75 C495.84400964 403.91937152 493.88822925 400.97456654 491.9375 398 C487.78062063 391.78596189 483.5428523 385.68803256 479 379.75 C474.04757946 373.2579711 469.42662811 366.58085348 464.85546875 359.81640625 C461.37054669 354.68467138 457.76119918 349.68223217 454 344.75 C449.04866775 338.25709201 444.42667874 331.5809284 439.85546875 324.81640625 C436.37054244 319.68466511 432.76110839 314.68230625 429 309.75 C424.04090031 303.24461126 419.39745573 296.56179031 414.8137207 289.7878418 C409.73258276 282.29899775 404.41022356 275.0033859 399 267.75 C381.98590353 275.90530198 365.60321094 285.27004108 349.21875 294.609375 C348.15922119 295.21241455 347.09969238 295.8154541 346.00805664 296.43676758 C343.99700553 297.5834041 341.98828143 298.73413384 339.98217773 299.8894043 C339.08958252 300.39898682 338.1969873 300.90856934 337.27734375 301.43359375 C336.49609131 301.88275146 335.71483887 302.33190918 334.90991211 302.79467773 C333 303.75 333 303.75 331 303.75 C331.20496094 304.51183594 331.40992188 305.27367187 331.62109375 306.05859375 C331.89050781 307.09113281 332.15992188 308.12367188 332.4375 309.1875 C332.72625 310.2909375 333.015 311.394375 333.3125 312.53125 C333.90233994 315.29277335 334.02054456 317.40550711 333.9375 320.1875 C334.4885318 326.22724075 339.53614585 330.02126784 343.5546875 334.125 C366.80245828 358.0684974 384.90102456 390.8529289 397 421.75 C409.13769517 421.14705094 421.01581367 418.79929421 432.96044922 416.68579102 C435.72503367 416.19867018 438.49126068 415.72189481 441.2578125 415.24609375 C442.08725372 415.09611435 442.91669495 414.94613495 443.77127075 414.79161072 C451.89810383 413.40312992 459.57187091 412.4611015 467.11328125 416.2890625 C472.46686587 420.43448827 474.59477978 424.23851342 475.59239197 430.88766479 C475.70482394 431.61318066 475.81725592 432.33869653 475.93309492 433.08619773 C476.3163565 435.63764043 476.66156604 438.19223181 477 440.75 C477.19579584 442.20261537 477.19579584 442.20261537 477.39554715 443.68457651 C478.50022205 451.96457211 479.5125753 460.25528502 480.52172852 468.54736328 C480.86284334 471.32676674 481.20533389 474.10600024 481.54779053 476.88523865 C482.28059608 482.83778933 483.01029107 488.79071436 483.73791695 494.7439003 C484.79095633 503.35864846 485.8500702 511.97264193 486.91081666 520.58644412 C488.63359828 534.57678883 490.35323775 548.56751755 492.07006836 562.55859375 C492.17251875 563.39348803 492.27496914 564.22838231 492.38052409 565.08857642 C493.52509541 574.41639641 494.66913912 583.74428105 495.81286621 593.07220459 C496.22866074 596.46317762 496.64447352 599.85414841 497.06030273 603.24511719 C497.1629286 604.08201281 497.26555447 604.91890844 497.37129021 605.78116454 C499.08274871 619.73675321 500.79856575 633.69180237 502.51768059 647.64644992 C503.57618574 656.24032375 504.63085892 664.83465111 505.68056797 673.42960386 C506.39916937 679.31128213 507.12175631 685.19246188 507.84747953 691.07326563 C508.26579894 694.46420423 508.68227079 697.85534339 509.09382439 701.24711037 C509.54104521 704.92500887 509.99513553 708.60199638 510.45094299 712.27883911 C510.57925414 713.34799155 510.70756529 714.417144 510.83976465 715.518695 C511.61811207 724.75834776 511.61811207 724.75834776 515.79321289 732.6394043 C516.5124292 733.11289307 517.23164551 733.58638184 517.97265625 734.07421875 C519.18562378 734.89539185 519.18562378 734.89539185 520.4230957 735.7331543 C521.72960083 736.57680542 521.72960083 736.57680542 523.0625 737.4375 C524.89096469 738.6661613 526.71908412 739.89533654 528.546875 741.125 C529.46533203 741.7334375 530.38378906 742.341875 531.33007812 742.96875 C535.20731917 745.55546824 539.01257621 748.2390034 542.8125 750.9375 C543.49666992 751.42186523 544.18083984 751.90623047 544.88574219 752.40527344 C546.92564635 753.8509742 548.96295986 755.30026741 551 756.75 C551.70125 757.24693359 552.4025 757.74386719 553.125 758.25585938 C555.19321233 759.72527861 557.25382434 761.20475886 559.3125 762.6875 C559.92907471 763.12408936 560.54564941 763.56067871 561.1809082 764.01049805 C565.69583268 767.28850884 569.21010023 770.38030069 571 775.75 C571.711925 782.61499104 571.78794612 788.44940518 567.53125 794.125 C563.00378228 798.92965962 559.37268322 799.98839161 552.9375 800.1875 C544.91133997 800.17695314 539.43936765 795.81891869 533.1875 791.3125 C531.66937463 790.22902121 530.15114251 789.145692 528.6328125 788.0625 C527.86227539 787.51078125 527.09173828 786.9590625 526.29785156 786.390625 C523.42493045 784.33941061 520.53773612 782.30898149 517.64941406 780.27954102 C510.88078008 775.52138453 504.14682296 770.71641409 497.4375 765.875 C496.34900757 765.09008179 496.34900757 765.09008179 495.23852539 764.28930664 C493.15465228 762.78208469 491.07592145 761.26815258 489 759.75 C488.26716797 759.21568359 487.53433594 758.68136719 486.77929688 758.13085938 C486.06708984 757.60556641 485.35488281 757.08027344 484.62109375 756.5390625 C483.98228271 756.06936035 483.34347168 755.5996582 482.68530273 755.11572266 C474.36772544 748.3753884 474.63490228 735.70899759 473.43075562 725.85510254 C473.28612243 724.69640766 473.14148925 723.53771277 472.99247324 722.34390593 C472.59523664 719.15544367 472.20132356 715.96659189 471.80886412 712.77753878 C471.38352311 709.32809097 470.95383678 705.87918405 470.52470398 702.4302063 C469.68635772 695.68683041 468.85196751 688.94297072 468.01891516 682.19893903 C467.0486641 674.34551773 466.07437573 666.49259888 465.09990413 658.63970035 C463.36208191 644.63419737 461.62777018 630.62826196 459.89550781 616.62207031 C458.21397301 603.02607098 456.53017133 589.43035504 454.84375 575.83496094 C454.7397306 574.99638623 454.6357112 574.15781151 454.5285397 573.29382545 C454.31899255 571.60452903 454.10944521 569.91523263 453.89989767 568.22593626 C453.74485277 566.9760155 453.74485277 566.9760155 453.58667564 565.70084381 C453.48357479 564.86968533 453.38047393 564.03852685 453.2742488 563.18218175 C451.66719612 550.22609725 450.06202212 537.26977992 448.45711779 524.31342915 C447.87512814 519.61516777 447.29289718 514.91693637 446.71050094 510.21872538 C445.78757385 502.77328314 444.86546422 495.32774064 443.94503091 487.88198966 C443.52436407 484.47914966 443.10331533 481.0763581 442.68122292 477.67369461 C442.22477217 473.99227852 441.76981871 470.31068054 441.3152771 466.62902832 C441.18045815 465.54442778 441.0456392 464.45982724 440.90673482 463.34236002 C440.72570665 461.87216103 440.72570665 461.87216103 440.54102135 460.37226105 C440.4357838 459.52179215 440.33054625 458.67132325 440.22211969 457.79508257 C440 455.75 440 455.75 440 453.75 C439.41621582 453.86593506 438.83243164 453.98187012 438.23095703 454.10131836 C435.52989817 454.63486414 432.82748125 455.16120817 430.125 455.6875 C429.2071875 455.86990234 428.289375 456.05230469 427.34375 456.24023438 C421.24372937 457.4215764 415.192863 458.24585146 409 458.75 C409.16081055 459.40669678 409.32162109 460.06339355 409.48730469 460.73999023 C430.25135445 546.23248472 423.62255137 635.33246598 377.55639648 712.02880859 C358.6227568 742.95638778 334.70259442 773.22844123 307.109375 796.91796875 C304.82370454 798.90311587 302.60298622 800.9503983 300.375 803 C294.72266163 808.09835728 288.76543138 812.75842754 282.74072266 817.40332031 C281.12579789 818.65267866 279.52141307 819.91562873 277.91796875 821.1796875 C191.70174455 888.6917501 191.70174455 888.6917501 156 884.75 C151.74247546 883.38389774 147.89151356 881.44805696 143.9375 879.375 C142.84969238 878.8269873 141.76188477 878.27897461 140.64111328 877.71435547 C137.41562948 876.08148094 134.20785566 874.41716329 131 872.75 C129.32273013 871.90403461 127.64444297 871.06008116 125.96484375 870.21875 C94.73621474 854.39768858 64.37367054 834.2475898 37.9296875 811.27734375 C35.04254613 808.78670312 32.09713333 806.38817759 29.125 804 C25.40668918 800.97584562 21.97211881 797.84291923 18.64453125 794.3984375 C16.99735498 792.74734869 15.28216058 791.25357873 13.5 789.75 C3.98779134 781.54083363 -4.9184502 772.36241606 -13 762.75 C-13.85335938 761.78578125 -14.70671875 760.8215625 -15.5859375 759.828125 C-44.29291064 727.27203766 -67.0116515 688.82275634 -81 647.75 C-81.31807617 646.82960938 -81.63615234 645.90921875 -81.96386719 644.9609375 C-85.98516295 633.16177501 -88.91872258 621.22086369 -91.3125 609 C-91.55508545 607.77015381 -91.7976709 606.54030762 -92.04760742 605.27319336 C-95.37443746 587.47482904 -96.38087953 569.8983371 -96.3125 551.8125 C-96.30926727 550.26671265 -96.30926727 550.26671265 -96.30596924 548.68969727 C-96.20515076 518.55138314 -93.43655936 487.56998847 -84 458.75 C-85.4540625 458.58564453 -85.4540625 458.58564453 -86.9375 458.41796875 C-96.72451607 457.27336048 -106.33194254 455.65103687 -116 453.75 C-116.03521318 454.52272279 -116.07042637 455.29544558 -116.10670662 456.09158421 C-116.84120953 469.28995569 -118.5597211 482.3656783 -120.18701172 495.47827148 C-120.51804935 498.16688045 -120.84785735 500.85563998 -121.17776489 503.54438782 C-122.07004598 510.80882984 -122.96851067 518.07249873 -123.86818838 525.33602786 C-124.43059815 529.87706176 -124.99157781 534.41827161 -125.55224991 538.95952034 C-127.10740055 551.5543382 -128.66377926 564.14900222 -130.22584343 576.74296474 C-130.3254524 577.54605092 -130.42506138 578.34913709 -130.52768881 579.17655921 C-130.7295784 580.80421503 -130.9314696 582.43187066 -131.1333624 584.05952608 C-131.23356667 584.86738003 -131.33377095 585.67523398 -131.43701172 586.50756836 C-131.53734019 587.3164158 -131.63766866 588.12526324 -131.74103738 588.95862121 C-133.36974864 602.09130073 -134.98898401 615.22512948 -136.60406099 628.35949206 C-138.26567974 641.87136056 -139.9346924 655.38229841 -141.61128438 668.89231735 C-142.55117471 676.46728715 -143.48797339 684.0426099 -144.41671371 691.61895561 C-145.20657537 698.06198289 -146.00325921 704.50412092 -146.80878197 710.94520973 C-147.21921145 714.22867756 -147.62539074 717.51257187 -148.02507782 720.7973671 C-148.45931305 724.36171913 -148.9057169 727.92434384 -149.35519409 731.48680115 C-149.47806569 732.51938645 -149.60093729 733.55197176 -149.72753227 734.61584753 C-150.81738624 743.07754433 -152.4554595 751.38522435 -159.52832031 756.953125 C-161.3663104 758.26493724 -163.23629084 759.51237118 -165.125 760.75 C-166.57036536 761.71933688 -168.0143242 762.69077356 -169.45703125 763.6640625 C-170.20549316 764.1684082 -170.95395508 764.67275391 -171.72509766 765.19238281 C-175.47607391 767.76066232 -179.14109581 770.44479826 -182.8125 773.125 C-193.67756266 781.02804667 -204.7758519 788.58410342 -215.93359375 796.06640625 C-216.66505615 796.5569751 -217.39651855 797.04754395 -218.15014648 797.55297852 C-223.07320943 800.73864271 -228.28604164 800.27676697 -234 799.75 C-238.88445857 798.15930907 -242.24410468 795.03694828 -245 790.75 C-247.59779993 785.43069539 -247.25722071 780.4074932 -246 774.75 C-242.08311663 766.91623325 -234.1598788 762.0000041 -227.125 757.125 C-225.62494958 756.0755929 -224.12495111 755.02611154 -222.625 753.9765625 C-221.861875 753.44450195 -221.09875 752.91244141 -220.3125 752.36425781 C-216.57470766 749.75506409 -212.84968332 747.12785691 -209.125 744.5 C-208.41996338 744.00387207 -207.71492676 743.50774414 -206.98852539 742.99658203 C-201.93490242 739.43357897 -196.94811315 735.79194148 -192.00390625 732.078125 C-190 730.75 -190 730.75 -188 730.75 C-187.89754502 729.87856385 -187.89754502 729.87856385 -187.79302025 728.98952293 C-181.12160298 672.2982292 -174.09044856 615.65134866 -167.06617141 559.00290179 C-165.77134665 548.55905301 -164.47908385 538.11488835 -163.18736613 527.67065489 C-161.92488403 517.46349231 -160.66091249 507.25651493 -159.39573705 497.04968584 C-158.6471303 491.0101925 -157.89905656 484.97063448 -157.15242386 478.93089676 C-156.45637242 473.30087346 -155.75845031 467.6710851 -155.05910873 462.04146957 C-154.80449045 459.9893329 -154.55051557 457.93711626 -154.29725647 455.8848114 C-153.55075129 449.83731978 -152.79210394 443.79170217 -152 437.75 C-151.90967105 437.05928894 -151.81934211 436.36857787 -151.72627592 435.65693617 C-151.48269172 433.83044328 -151.22484921 432.00586765 -150.96591187 430.18148804 C-150.82903646 429.21298101 -150.69216106 428.24447399 -150.55113792 427.24661827 C-149.47770659 422.38404546 -147.18496558 419.37534188 -143.24609375 416.4453125 C-134.33857349 411.22676528 -123.59833056 414.07637553 -113.9921875 415.71875 C-112.7855545 415.9185144 -111.57892151 416.11827881 -110.33572388 416.32409668 C-106.51418274 416.95853724 -102.69461667 417.604085 -98.875 418.25 C-96.27095622 418.68433118 -93.66679059 419.11793245 -91.0625 419.55078125 C-84.70689938 420.6087482 -78.35287935 421.67581987 -72 422.75 C-71.81239609 422.16579788 -71.62479218 421.58159576 -71.4315033 420.97969055 C-62.30439843 393.00502344 -45.38475562 367.61617549 -27.5 344.5 C-27.05914062 343.92958984 -26.61828125 343.35917969 -26.1640625 342.77148438 C-23.83702836 339.83402534 -21.43215972 337.13784443 -18.71484375 334.5546875 C-10.11085298 326.28703801 -8.3636937 320.7142685 -8 308.75 C-7.72650995 306.40306065 -7.37095957 304.08433094 -7 301.75 C-8.00075562 301.21596558 -8.00075562 301.21596558 -9.02172852 300.67114258 C-23.92530225 292.70805221 -38.72193213 284.59322087 -53.40380859 276.2265625 C-57.40723413 273.94964717 -61.42187945 271.69281736 -65.4375 269.4375 C-66.11248535 269.05811279 -66.7874707 268.67872559 -67.48291016 268.2878418 C-68.9884669 267.44164562 -70.49420851 266.59577838 -72 265.75 C-77.57932012 272.4586689 -82.71491445 279.43574959 -87.79980469 286.52124023 C-91.80781798 292.10513668 -95.85496789 297.65785708 -99.9375 303.1875 C-100.51838379 303.97439209 -101.09926758 304.76128418 -101.69775391 305.57202148 C-102.87623802 307.16781076 -104.05494914 308.76343242 -105.23388672 310.35888672 C-108.15956103 314.31991162 -111.07950306 318.28515717 -114 322.25 C-115.1666389 323.83335379 -116.33330558 325.41668712 -117.5 327 C-118.0775 327.78375 -118.655 328.5675 -119.25 329.375 C-128.875 342.4375 -128.875 342.4375 -138.5 355.5 C-139.07766113 356.2839917 -139.65532227 357.0679834 -140.25048828 357.87573242 C-141.41543849 359.45668983 -142.58047734 361.03758192 -143.74560547 362.6184082 C-147.28462339 367.42037172 -150.82015386 372.2248792 -154.35351562 377.03100586 C-156.09974816 379.40319633 -157.85026689 381.77217084 -159.6015625 384.140625 C-161.86395322 387.20112611 -164.1062642 390.27497165 -166.3359375 393.359375 C-167.39041575 394.80223628 -168.44509381 396.24495157 -169.5 397.6875 C-169.96809082 398.34387451 -170.43618164 399.00024902 -170.91845703 399.67651367 C-176.45747056 407.19913308 -182.0438886 409.27145275 -191 410.75 C-196.612554 411.54393921 -202.23568959 412.23618132 -207.86328125 412.9140625 C-208.66637411 413.01152142 -209.46946697 413.10898033 -210.29689598 413.20939255 C-214.55459307 413.7259943 -218.81281008 414.23802206 -223.0715332 414.74609375 C-226.54678609 415.16137656 -230.02095872 415.58435675 -233.49438477 416.01464844 C-270.42474781 420.58596896 -270.42474781 420.58596896 -288 419.75 C-287.78601563 419.15316406 -287.57203125 418.55632812 -287.3515625 417.94140625 C-287.23554688 417.21824219 -287.11953125 416.49507813 -287 415.75 C-288.5954349 413.69272868 -290.26526288 411.69125344 -292 409.75 C-293.78468529 404.39594413 -294.04514547 397.95359806 -292.28125 392.546875 C-289.57784809 387.53250049 -286.19471786 384.46702514 -280.8147583 382.70936584 C-276.97605134 381.7439772 -273.20070632 381.14726186 -269.27636719 380.71264648 C-268.53889252 380.62617859 -267.80141785 380.53971069 -267.04159546 380.45062256 C-264.6272732 380.16878668 -262.21210662 379.89501654 -259.796875 379.62109375 C-258.11005805 379.42516493 -256.42331171 379.2286273 -254.7366333 379.0315094 C-250.31281326 378.51573165 -245.88828274 378.00635522 -241.46350098 377.49890137 C-234.36755223 376.6845703 -227.27245795 375.86294509 -220.17789459 375.03663826 C-217.70150747 374.7495293 -215.22466039 374.46667016 -212.7477417 374.18418884 C-211.23382823 374.00893256 -209.71993162 373.83353056 -208.20605469 373.65795898 C-207.17274521 373.54183006 -207.17274521 373.54183006 -206.11856079 373.4233551 C-200.88695414 373.03144736 -200.88695414 373.03144736 -196.68823242 370.28564453 C-196.24842041 369.65770996 -195.8086084 369.02977539 -195.35546875 368.3828125 C-194.85088135 367.6719751 -194.34629395 366.9611377 -193.82641602 366.22875977 C-193.28557373 365.45201904 -192.74473145 364.67527832 -192.1875 363.875 C-191.01395506 362.21938948 -189.83944463 360.56446298 -188.6640625 358.91015625 C-188.05852539 358.05437988 -187.45298828 357.19860352 -186.82910156 356.31689453 C-183.95329151 352.28108742 -181.00982701 348.29622689 -178.0625 344.3125 C-176.88669794 342.72006745 -175.7109168 341.12761945 -174.53515625 339.53515625 C-173.65947998 338.35010498 -173.65947998 338.35010498 -172.76611328 337.14111328 C-169.84043897 333.18008838 -166.92049694 329.21484283 -164 325.25 C-162.8333611 323.66664621 -161.66669442 322.08331288 -160.5 320.5 C-159.9225 319.71625 -159.345 318.9325 -158.75 318.125 C-147.66666667 303.08333333 -136.58333333 288.04166667 -125.5 273 C-124.92209717 272.21568604 -124.34419434 271.43137207 -123.7487793 270.62329102 C-122.58624831 269.04560517 -121.42365103 267.46796817 -120.26098633 265.89038086 C-116.66974521 261.01730883 -113.08116766 256.14228797 -109.49414062 251.26611328 C-107.7315168 248.87227957 -105.96570404 246.48082881 -104.19921875 244.08984375 C-102.23040537 241.42457938 -100.27353225 238.75161843 -98.33203125 236.06640625 C-88.3340932 222.38413592 -88.3340932 222.38413592 -80 220.75 C-67.64522028 219.85472611 -55.04710018 229.79642789 -44.79150391 235.71435547 C-35.90095036 240.84008768 -26.91710866 245.79081135 -17.91577148 250.71826172 C-11.97246469 253.97644507 -6.06220984 257.27306439 -0.2109375 260.6953125 C1.3661499 261.61195679 1.3661499 261.61195679 2.97509766 262.54711914 C4.94288735 263.69555233 6.90394581 264.85562451 8.85693359 266.02905273 C9.72914551 266.53637939 10.60135742 267.04370605 11.5 267.56640625 C12.2528125 268.01443604 13.005625 268.46246582 13.78125 268.92407227 C16.59671716 269.97212744 18.16087277 269.62795003 21 268.75 C23.23755742 267.28075217 23.23755742 267.28075217 25.5 265.375 C31.03700568 261.18606861 36.91148454 257.9576422 43.0625 254.75 C44.47402344 254.01064209 44.47402344 254.01064209 45.9140625 253.25634766 C52.72597014 249.75 52.72597014 249.75 55 249.75 C55.06058594 248.73679687 55.12117188 247.72359375 55.18359375 246.6796875 C55.26806704 245.32811486 55.35271157 243.97655291 55.4375 242.625 C55.49647461 241.62726563 55.49647461 241.62726563 55.55664062 240.609375 C55.81237417 236.59632551 56.31079478 232.70863779 57 228.75 C56.24420654 228.4597998 55.48841309 228.16959961 54.7097168 227.87060547 C47.45034918 225.07992083 40.19760015 222.27287978 32.95075989 219.44984436 C29.04619782 217.92987582 25.13887476 216.41778207 21.22558594 214.92041016 C17.26520622 213.40498995 13.31158274 211.87300969 9.36172485 210.3303833 C7.84203657 209.74022602 6.32005963 209.15592501 4.79574585 208.57781982 C-9.28052211 203.23161671 -16.5229366 197.83824574 -23.625 184.3125 C-24.8442638 182.06266798 -26.0656736 179.81399783 -27.2890625 177.56640625 C-27.90426758 176.4283252 -28.51947266 175.29024414 -29.15332031 174.11767578 C-31.99658243 168.93259413 -34.99413344 163.84199295 -38 158.75 C-41.68424431 152.49599399 -45.31312411 146.22082579 -48.81640625 139.86328125 C-49.44353516 138.72697266 -50.07066406 137.59066406 -50.71679688 136.41992188 C-51.91707186 134.23656451 -53.11018603 132.04924997 -54.29492188 129.85742188 C-54.83826172 128.86935547 -55.38160156 127.88128906 -55.94140625 126.86328125 C-56.41263916 125.99485596 -56.88387207 125.12643066 -57.36938477 124.23168945 C-61.18622717 118.42270561 -66.4616354 114.86688656 -72.1484375 111.09375 C-72.94607513 110.5579985 -73.74371277 110.02224701 -74.56552124 109.47026062 C-76.27734741 108.32141902 -77.99087228 107.17510523 -79.70593262 106.03109741 C-82.39685781 104.23541405 -85.08238241 102.43191036 -87.76660156 100.6262207 C-95.54906081 95.39411205 -103.3433516 90.18022967 -111.15921021 84.99813843 C-114.02561176 83.09539471 -116.88647198 81.18443027 -119.74639893 79.27197266 C-121.7098904 77.96421449 -123.68159922 76.66955791 -125.65380859 75.375 C-126.8477935 74.57751533 -128.04134238 73.77937732 -129.234375 72.98046875 C-130.76916504 71.96569458 -130.76916504 71.96569458 -132.33496094 70.93041992 C-136.19800887 67.76984086 -139.40273657 63.82673916 -140 58.75 C-140.52926905 52.3987714 -139.6874914 48.02751063 -136 42.75 C-131.77484923 38.293183 -127.91242016 36.60096754 -121.8125 36.4375 C-120.46091797 36.38142578 -120.46091797 36.38142578 -119.08203125 36.32421875 C-110.49462573 37.51056501 -103.14312205 43.88685212 -96.1875 48.6875 C-93.72162845 50.37860767 -91.25331535 52.06613961 -88.78515625 53.75390625 C-88.11554871 54.21249023 -87.44594116 54.67107422 -86.75604248 55.14355469 C-80.79528571 59.22060762 -74.80446217 63.25215832 -68.80859375 67.27734375 C-67.84517563 67.92462936 -66.88175751 68.57191498 -65.8891449 69.23881531 C-60.06352801 73.1527808 -60.06352801 73.1527808 -54.23422241 77.06124878 C-51.49005221 78.89980352 -48.7486932 80.74248372 -46.0078125 82.5859375 C-45.18699692 83.13422714 -44.36618134 83.68251678 -43.52049255 84.24742126 C-31.29898044 92.48270856 -31.29898044 92.48270856 -27.44140625 99.44921875 C-26.81588867 100.56288818 -26.19037109 101.67655762 -25.54589844 102.82397461 C-24.88468533 104.02843899 -24.22355462 105.23294862 -23.5625 106.4375 C-22.86234137 107.69158497 -22.16082081 108.94491043 -21.45800781 110.19750977 C-20.01143016 112.7770571 -18.56988218 115.35931913 -17.13134766 117.94335938 C-13.9021136 123.72860466 -10.57294313 129.45568216 -7.25 135.1875 C-6.02431548 137.31095318 -4.79904896 139.43464768 -3.57421875 141.55859375 C-1.77927123 144.66954259 0.0171497 147.77959624 1.81787109 150.88720703 C3.52820656 153.8392993 5.2333436 156.79433774 6.9375 159.75 C7.4521582 160.63486084 7.96681641 161.51972168 8.49707031 162.43139648 C9.19268066 163.64098022 9.19268066 163.64098022 9.90234375 164.875 C10.30960693 165.57882813 10.71687012 166.28265625 11.13647461 167.0078125 C12 168.75 12 168.75 12 170.75 C12.82830322 170.97586792 12.82830322 170.97586792 13.67333984 171.20629883 C21.52197589 173.44524894 29.05405614 176.41551716 36.625 179.4375 C37.92823533 179.95415478 39.23161985 180.47043342 40.53515625 180.98632812 C43.69158526 182.23720925 46.84646588 183.49184268 50 184.75 C50.43699219 182.99236328 50.43699219 182.99236328 50.8828125 181.19921875 C56.11559465 160.84083249 66.17387983 145.57677572 84.53125 134.59765625 C85.25828125 134.17806641 85.25828125 134.17806641 86 133.75 C85.67 132.739375 85.34 131.72875 85 130.6875 C82.08523538 118.75386222 83.38663256 106.48889711 89.68359375 95.92578125 C91.98476724 92.53588052 94.27478742 89.45602707 97.21484375 86.59375 C99.21861956 84.93792406 99.21861956 84.93792406 99.0625 82.75 C95.93085797 76.85514441 89.27203383 75.06129944 83.40234375 72.90625 C82.44070816 72.54446152 81.47907257 72.18267303 80.48829651 71.80992126 C78.40191455 71.02613035 76.31395158 70.24653793 74.22460938 69.47067261 C69.74509041 67.80719705 65.27313708 66.12380971 60.80056763 64.4417572 C58.45320773 63.55923809 56.10544277 62.67779571 53.7572937 61.79737854 C40.97591612 57.00252437 28.23698944 52.09878328 15.5 47.1875 C12.39383337 45.99104442 9.28754996 44.7948947 6.18101501 43.59939575 C4.17930157 42.82789729 2.17836201 42.05438764 0.17823792 41.27877808 C-5.21902274 39.18867202 -10.62917011 37.14358335 -16.0625 35.14892578 C-17.23639282 34.71234146 -18.41028564 34.27575714 -19.61975098 33.82594299 C-21.87108302 32.98944605 -24.12666869 32.16427473 -26.38708496 31.35264587 C-33.07166163 28.85171463 -39.43631536 26.16857596 -43.15905762 19.75233459 C-45.28279147 14.69559606 -44.92456474 7.6486354 -43.27734375 2.484375 C-33.79400733 -15.1768993 -13.98771697 -5.56433926 0 0 Z M149.8125 98.8125 C148.97895996 99.12614502 148.14541992 99.43979004 147.28662109 99.76293945 C137.8522342 103.42193441 126.76930162 108.09604757 121 116.75 C121 121.04270841 121.72632108 123.33564381 124.09790039 126.92626953 C129.21576589 131.76264249 136.83597075 130.65177487 143.43359375 130.6171875 C144.95525542 130.62631894 146.47690885 130.63693242 147.99855042 130.6489563 C151.18207378 130.66678898 154.36459301 130.66200961 157.5480957 130.64208984 C161.61554194 130.61911107 165.6795149 130.65952876 169.74650478 130.71792412 C172.88753536 130.75473189 176.0277397 130.75404807 179.16893196 130.74264908 C180.66759172 130.74234362 182.16630923 130.75435292 183.6647625 130.77923203 C191.99904678 131.07884541 191.99904678 131.07884541 199.5005188 128.00787354 C202.25782591 124.97889752 203.82168553 122.81988681 204.5 118.75 C198.48092407 106.71184815 182.31746239 101.32367838 170.34375 96.98828125 C162.75466926 94.60302368 157.01047841 96.05436225 149.8125 98.8125 Z M91.8125 177.625 C86.40161998 186.95410349 86.19336108 199.6831008 88.83984375 210.03515625 C91.7109506 216.28972234 96.5247591 222.04923261 103.06930447 224.53641701 C109.32206928 226.54108482 114.9046974 227.18170059 121.44750977 227.13818359 C122.43913116 227.14344055 123.43075256 227.14869751 124.4524231 227.15411377 C127.69891562 227.16721416 130.94490958 227.15861169 134.19140625 227.1484375 C136.46483961 227.15046093 138.73827234 227.15337461 141.01170349 227.15713501 C145.76331801 227.16154475 150.51476272 227.15517018 155.26635742 227.14111328 C161.34115631 227.12401264 167.41555777 227.13387702 173.49034214 227.15183067 C178.18050606 227.16269662 182.87057652 227.15920941 187.56074333 227.1514473 C189.80013006 227.14945358 192.03952541 227.1518753 194.27890205 227.15888596 C197.4134568 227.16654776 200.54737699 227.15483022 203.68188477 227.13818359 C205.05447197 227.14729263 205.05447197 227.14729263 206.45478821 227.15658569 C214.85137606 227.07442921 222.40862159 225.16957781 229 219.75 C237.34561733 210.40370913 237.91695431 201.03245775 237.24707031 188.96972656 C236.45902491 181.88977714 232.44249242 176.1558272 227 171.75 C222.31716562 168.7040856 218.20388927 166.63337521 212.56173706 166.60282898 C211.65347672 166.59567368 210.74521637 166.58851837 209.80943298 166.58114624 C208.31797508 166.57711288 208.31797508 166.57711288 206.79638672 166.57299805 C205.74726608 166.56642685 204.69814545 166.55985565 203.61723328 166.55308533 C200.13805064 166.53334222 196.65891123 166.52168623 193.1796875 166.51171875 C191.39684042 166.50560546 191.39684042 166.50560546 189.57797623 166.49936867 C183.28473331 166.47850169 176.99151223 166.46420375 170.69824219 166.45483398 C164.20509033 166.44378 157.71228215 166.40939308 151.21925163 166.36966228 C146.22113417 166.34348402 141.22309835 166.33514094 136.22491837 166.33155251 C133.83199879 166.3266882 131.43908282 166.31507877 129.04623032 166.29651451 C125.69053912 166.27210272 122.33573374 166.27309253 118.97998047 166.2800293 C117.99782059 166.26721924 117.01566071 166.25440918 116.0037384 166.24121094 C106.15571455 166.31512405 97.89220547 169.63452995 91.8125 177.625 Z M97 259.75 C99.90186206 265.35260496 103.27477433 269.5712883 107.75 274 C108.40685791 274.6504126 109.06371582 275.3008252 109.74047852 275.97094727 C123.2330353 288.97745864 143.06554944 302.86372697 162.37109375 303.9375 C182.9264366 302.87543708 202.79902067 287.17509801 217 273.75 C218.13695312 272.69232422 218.13695312 272.69232422 219.296875 271.61328125 C223.16150658 267.91085136 226.0040572 264.73985701 228 259.75 C226.91384399 259.91233124 225.82768799 260.07466248 224.70861816 260.24191284 C219.35912314 260.90592896 214.04605484 260.88993448 208.66210938 260.87939453 C207.55213089 260.88114685 206.4421524 260.88289917 205.29853821 260.88470459 C201.64692601 260.8890886 197.99536265 260.88619726 194.34375 260.8828125 C191.79602041 260.88348653 189.24829089 260.88445738 186.70056152 260.88571167 C181.36791307 260.88718397 176.03528196 260.88514527 170.70263672 260.88037109 C164.55418265 260.87492981 158.40576175 260.87669296 152.25730848 260.8821975 C146.32101639 260.88729759 140.38473452 260.88673829 134.44844055 260.88381577 C131.93191015 260.88314999 129.4153789 260.88396269 126.89884949 260.88629532 C123.37850725 260.88884251 119.85822818 260.88495208 116.33789062 260.87939453 C114.78688408 260.88243088 114.78688408 260.88243088 113.20454407 260.88552856 C107.70855763 260.86950303 102.43722461 260.56261936 97 259.75 Z M68 284.75 C52.58856211 291.72789242 37.11107495 301.33225423 29 316.75 C27.22424071 322.07727788 27.1173072 327.49870519 29.4375 332.6875 C42.27793334 355.15825835 70.49707834 365.19062396 94 371.75 C116.38960767 377.39810769 138.92501175 379.97342732 162 379.9375 C163.08349228 379.93659363 163.08349228 379.93659363 164.18887329 379.93566895 C176.21631948 379.90848865 188.08290355 379.46865287 200 377.75 C200.85996582 377.62641113 201.71993164 377.50282227 202.60595703 377.37548828 C224.18821221 374.13047998 245.49899026 368.69978877 265 358.75 C265.64533691 358.42386719 266.29067383 358.09773438 266.95556641 357.76171875 C279.00946302 351.56662676 291.04221654 343.2142648 296.4375 330.3125 C297.62803832 322.77242397 296.44603379 316.02208338 292 309.75 C284.81079981 301.23181034 276.57202519 295.31352367 267 289.75 C266.16597656 289.26144531 265.33195313 288.77289063 264.47265625 288.26953125 C260.92055384 286.25650986 260.92055384 286.25650986 256.95776367 286 C253.62677714 287.27606817 251.60848621 290.12423402 249.3125 292.75 C248.23284453 293.9462824 247.15210985 295.14159165 246.0703125 296.3359375 C245.5434082 296.92213867 245.01650391 297.50833984 244.47363281 298.11230469 C224.84849165 319.92235222 195.54637743 337.5961732 166 340.75 C136.55552117 341.55430287 106.85877184 323.08402895 85.99609375 303.66015625 C85.33738281 303.02980469 84.67867188 302.39945312 84 301.75 C82.7315625 300.5434375 82.7315625 300.5434375 81.4375 299.3125 C78.21523419 295.92498978 75.10039915 292.44574157 71.98828125 288.95703125 C70.69491104 287.5213649 69.3663719 286.1163719 68 284.75 Z M318 363.75 C316.67784823 365.11493985 315.35862482 366.4828289 314.05371094 367.86425781 C306.76066607 375.51368183 299.07591138 381.37914271 290 386.75 C289.36674805 387.1310791 288.73349609 387.5121582 288.08105469 387.90478516 C250.78415057 410.02096352 205.46860272 415.97596597 162.875 416 C161.26563065 416.00101212 161.26563065 416.00101212 159.62374878 416.00204468 C143.54467762 415.98598107 127.87490232 415.52675339 112 412.75 C110.46375977 412.49259033 110.46375977 412.49259033 108.89648438 412.22998047 C86.99907331 408.48331335 65.95466584 402.60187654 46 392.75 C45.32469238 392.4185498 44.64938477 392.08709961 43.95361328 391.74560547 C29.95488316 384.7920989 17.97578293 375.90167688 7 364.75 C-4.39966976 369.12850952 -12.97523062 388.79942676 -19 398.75 C-19.40605469 399.41338379 -19.81210937 400.07676758 -20.23046875 400.76025391 C-29.80749592 416.52721119 -37.03310809 433.72724527 -43.25 451.0625 C-43.54986816 451.88588867 -43.84973633 452.70927734 -44.15869141 453.55761719 C-44.42085449 454.31848633 -44.68301758 455.07935547 -44.953125 455.86328125 C-45.18161133 456.52110596 -45.41009766 457.17893066 -45.64550781 457.85668945 C-46.08074122 460.18123151 -45.89146147 461.56205101 -45 463.75 C-42.53893964 464.96777857 -40.35196708 465.81771794 -37.75 466.625 C-36.56700317 467.00180908 -36.56700317 467.00180908 -35.36010742 467.38623047 C45.02679683 491.83892523 139.32786209 487.67645496 371 462.75 C360.60776719 426.97673706 343.80561278 391.85871005 319 363.75 C318.67 363.75 318.34 363.75 318 363.75 Z M-55 499.75 C-57.98086184 519.19297027 -57.98086184 519.19297027 -59.0546875 538.80859375 C-59.05766846 539.90518311 -59.06064941 541.00177246 -59.0637207 542.1315918 C-59.06195475 547.00455565 -59.03841974 551.87719482 -59 556.75 C-52.90123944 560.07464673 -47.05201681 562.06161123 -40.3125 563.6875 C-39.2699707 563.94128418 -38.22744141 564.19506836 -37.15332031 564.45654297 C-5.29103694 571.99147881 27.28364133 575.10594139 59.875 577.4375 C60.72444183 577.49834778 61.57388367 577.55919556 62.44906616 577.62188721 C83.24840635 579.09064656 104.04088671 579.88335232 124.88769531 580.25268555 C128.26114375 580.31269824 131.63446972 580.3776988 135.0078125 580.44335938 C263.69672084 588.57357499 263.69672084 588.57357499 384 556.75 C384.44855448 554.79261003 384.44855448 554.79261003 384.36328125 552.515625 C384.36448975 551.20549438 384.36448975 551.20549438 384.36572266 549.86889648 C384.33937744 548.44879272 384.33937744 548.44879272 384.3125 547 C384.3026709 546.02297119 384.2928418 545.04594238 384.28271484 544.03930664 C384.02824071 529.17873053 382.52670217 514.39171906 380 499.75 C379.0112085 500.02481201 379.0112085 500.02481201 378.00244141 500.30517578 C343.47028128 509.823539 308.39962325 514.60225415 272.769104 517.52282715 C270.9384473 517.67301129 269.10799567 517.82571867 267.277771 517.9810791 C233.27472525 520.85269375 199.26622183 521.03976322 165.16492844 521.06007385 C161.74496641 521.06245991 158.32501791 521.06777612 154.90505981 521.07336426 C9.0525466 521.24804779 9.0525466 521.24804779 -50.39453125 500.6328125 C-52.85720858 499.64303008 -52.85720858 499.64303008 -55 499.75 Z M-55 597.75 C-53.16519946 616.92179335 -46.21895045 635.999153 -39 653.75 C-38.72720215 654.43900391 -38.4544043 655.12800781 -38.17333984 655.83789062 C-37.38466405 657.78721469 -36.54812695 659.70651908 -35.6875 661.625 C-35.21699219 662.69492187 -34.74648438 663.76484375 -34.26171875 664.8671875 C-29.02027578 671.54799046 -19.94013095 673.6892872 -12 675.75 C-10.57469971 676.12499634 -10.57469971 676.12499634 -9.12060547 676.50756836 C29.44135019 686.39098944 69.37012799 689.56782937 109 691.75 C110.28213379 691.82202637 111.56426758 691.89405273 112.88525391 691.96826172 C153.49916835 694.11783995 194.42419594 693.2005118 235 690.75 C235.80681213 690.7014386 236.61362427 690.6528772 237.44488525 690.60284424 C275.70497285 688.25297789 318.24272236 685.47358491 354 670.75 C354.85335938 670.42386719 355.70671875 670.09773437 356.5859375 669.76171875 C360.55556438 666.45369635 361.93287886 661.9747574 363.8125 657.25 C364.24119385 656.19498291 364.6698877 655.13996582 365.11157227 654.05297852 C377.1338293 626.58742487 377.1338293 626.58742487 379 597.75 C378.38519775 597.90557373 377.77039551 598.06114746 377.13696289 598.22143555 C345.16403639 606.20514532 312.77284496 609.92419741 280 612.75 C278.73768555 612.85940918 277.47537109 612.96881836 276.17480469 613.08154297 C176.55352691 621.33460496 71.80643598 620.93304316 -55 597.75 Z M-2 715.75 C0.30006959 720.89551651 4.07617841 724.8889466 7.67724609 729.16845703 C8.96133881 730.70377498 10.22516524 732.25597234 11.48828125 733.80859375 C18.01711704 741.73594685 25.11845636 749.05685203 32.375 756.3125 C32.85512543 756.7935318 33.33525085 757.2745636 33.82992554 757.77017212 C36.85616026 760.79576039 39.91522166 763.78420273 43 766.75 C43.83301636 767.57721558 43.83301636 767.57721558 44.68286133 768.42114258 C48.65632633 772.11093477 52.78144182 773.19194331 57.9375 774.3125 C58.83936035 774.51593018 59.7412207 774.71936035 60.67041016 774.92895508 C68.68226977 776.64158195 76.75729295 777.85042237 84.875 778.9375 C86.57837524 779.1696521 86.57837524 779.1696521 88.31616211 779.40649414 C112.26282636 782.38182794 136.35855038 783.09165187 160.46166992 783.01074219 C163.8814889 782.99933736 167.30099666 783.00615878 170.72080517 783.01761913 C194.8996711 783.08622153 219.07624664 782.18723956 243.0625 778.9375 C244.33488525 778.76573242 245.60727051 778.59396484 246.91821289 778.41699219 C269.49556239 776.26953426 269.49556239 776.26953426 287 763.75 C288.28455725 762.57292611 289.59818492 761.4268722 290.9375 760.3125 C298.2298658 754.02104715 304.75901711 747.06952168 311 739.75 C311.95124438 738.65054086 312.90312159 737.55162906 313.85546875 736.453125 C319.41955027 730.01973756 324.8881348 723.55382058 330 716.75 C326.56046732 715.60348911 325.07990068 715.92741727 321.55859375 716.60546875 C320.43630371 716.81381348 319.31401367 717.0221582 318.15771484 717.23681641 C316.3162085 717.58365479 316.3162085 717.58365479 314.4375 717.9375 C290.42463254 722.23460248 266.32768182 724.7295274 242 726.4375 C241.14017517 726.49834778 240.28035034 726.55919556 239.39447021 726.62188721 C214.29551898 728.37012373 189.21894812 728.95934222 164.0625 728.9375 C163.36881821 728.93723312 162.67513641 728.93696625 161.96043396 728.93669128 C107.10974365 728.91033116 51.98150046 726.06195088 -2 715.75 Z M113 818.75 C116.15696449 821.36524931 119.28127585 823.6211353 122.8515625 825.6328125 C124.23891602 826.41760986 124.23891602 826.41760986 125.65429688 827.21826172 C126.63462891 827.76498535 127.61496094 828.31170898 128.625 828.875 C129.63884766 829.44105957 130.65269531 830.00711914 131.69726562 830.59033203 C133.78127234 831.74995991 135.86689135 832.90669492 137.95410156 834.06054688 C140.80940838 835.64428551 143.65105453 837.2504031 146.4921875 838.859375 C148.16056427 839.78286706 149.82978888 840.70482966 151.5 841.625 C152.25748535 842.0595752 153.0149707 842.49415039 153.79541016 842.94189453 C158.62829223 845.55540771 161.51727589 846.34099545 167 844.75 C170.56695858 843.35603349 173.99786752 841.74399369 177.4375 840.0625 C178.42435791 839.58570801 179.41121582 839.10891602 180.42797852 838.61767578 C191.8809484 832.97904109 203.36514364 826.8323708 214 819.75 C214 819.42 214 819.09 214 818.75 C213.14177895 818.77212303 213.14177895 818.77212303 212.26622009 818.79469299 C179.13774171 819.63678509 146.12452089 819.78148663 113 818.75 Z " fill="#000000" transform="translate(338,62.25)"/>
</svg>
