<?xml version="1.0" encoding="UTF-8"?>
<svg version="1.1" xmlns="http://www.w3.org/2000/svg" width="1000" height="1000">
<path d="M0 0 C0.68132996 0.2198053 1.36265991 0.4396106 2.06463623 0.66607666 C37.09358887 11.9854077 71.27575864 26.11936141 104 43 C104.78761719 42.10539062 105.57523438 41.21078125 106.38671875 40.2890625 C127.49717693 16.68557845 153.21231463 4.04485991 184.875 1.71484375 C214.16703592 0.98885579 241.18135621 11.81016572 262.59375 31.6640625 C282.72252842 51.20466233 294.51517353 77.60079772 295.0703125 105.75 C294.96927832 125.36900093 291.08113989 146.06643283 280.0625 162.625 C277.75911329 165.63238504 277.75911329 165.63238504 278.19882202 168.01837158 C279.09602127 170.2374984 280.0523138 171.40938209 281.75634766 173.08105469 C282.33430084 173.65555359 282.91225403 174.23005249 283.50772095 174.82196045 C284.13681366 175.43243225 284.76590637 176.04290405 285.4140625 176.671875 C286.06192719 177.31312317 286.70979187 177.95437134 287.37728882 178.61505127 C289.45288695 180.66724895 291.53833383 182.70906238 293.625 184.75 C295.68856118 186.77827424 297.74989959 188.8087334 299.80844116 190.84210205 C301.08853865 192.10549344 302.3717206 193.36577057 303.65859985 194.62225342 C307.44508855 198.34683401 311.00843634 202.20340107 314.47277832 206.22972107 C316.55288413 208.64087561 318.71431123 210.97357259 320.875 213.3125 C324.89380593 217.72353173 328.72865324 222.23735358 332.47265625 226.8828125 C334.35047916 229.21237942 336.26024117 231.51257397 338.18359375 233.8046875 C366.92710327 268.14150662 366.92710327 268.14150662 374.3125 288.4375 C374.54324219 289.06865723 374.77398438 289.69981445 375.01171875 290.35009766 C379.35583625 303.16205007 380.4364378 315.60229412 380.29296875 328.99609375 C380.28735448 330.56648853 380.28309308 332.13688867 380.28010559 333.70729065 C380.26880058 337.78597224 380.2394623 341.86431924 380.20599365 345.94287109 C380.17497818 350.1265816 380.1615339 354.31034762 380.14648438 358.49414062 C380.11457443 366.66291179 380.06355848 374.83141396 380 383 C379.13935603 383.00060027 379.13935603 383.00060027 378.26132532 383.00121268 C315.81252499 383.04487491 253.36372793 383.09223258 190.91494751 383.15898132 C189.9825296 383.15997689 189.05011169 383.16097246 188.08943869 383.16199819 C167.82686805 383.1836553 147.56429819 383.20597789 127.30172905 383.22898628 C117.3653781 383.24026508 107.42902698 383.25139677 97.49267578 383.26245117 C96.50387447 383.26355374 95.51507316 383.2646563 94.49630818 383.26579228 C62.43005291 383.30147887 30.36379869 383.32744666 -1.70246932 383.34838969 C-34.64693073 383.36995749 -67.59136866 383.40129985 -100.53580852 383.44499113 C-105.18595489 383.45115363 -109.83610141 383.45720406 -114.48624802 383.46318626 C-115.4014891 383.46436715 -116.31673018 383.46554803 -117.25970584 383.46676469 C-132.00939394 383.48550685 -146.75907077 383.49390469 -161.50876932 383.49846124 C-176.32699946 383.50325874 -191.14518651 383.51888966 -205.96339352 383.54566566 C-214.77375506 383.56125409 -223.58403164 383.56844947 -232.39440621 383.56376929 C-238.27482325 383.56146282 -244.15515981 383.5699528 -250.03555149 383.58732411 C-253.38933543 383.59691943 -256.74279318 383.60008333 -260.09660681 383.59339563 C-263.70559457 383.58692933 -267.31406888 383.59871301 -270.92301369 383.61523914 C-271.96932829 383.60896245 -273.01564289 383.60268575 -274.09366399 383.59621885 C-280.9904382 383.6548045 -285.28002459 384.72281129 -290.6875 389.25 C-294.92792494 394.2926675 -296.60286029 399.21721776 -296.34765625 405.73046875 C-295.5337458 411.04374931 -293.10541727 415.29262445 -289.125 418.875 C-282.23971442 423.55699419 -275.72629568 423.28564635 -267.66635132 423.25828552 C-266.41195743 423.26196123 -265.15756355 423.26563693 -263.86515772 423.26942402 C-260.39016529 423.27939074 -256.91527397 423.27703534 -253.440274 423.27269709 C-249.68959159 423.27021836 -245.93893558 423.27929258 -242.18826294 423.28707886 C-235.68952352 423.29911958 -229.19080861 423.30423159 -222.69205856 423.30496025 C-213.28290957 423.30628693 -203.87381997 423.32140838 -194.46469195 423.34045542 C-179.18138402 423.37129614 -163.89807457 423.39546058 -148.61474609 423.41333008 C-147.24289317 423.4149391 -147.24289317 423.4149391 -145.84332605 423.41658062 C-135.64599961 423.42839383 -125.44867257 423.43859984 -115.25134277 423.44702148 C-111.55672199 423.45009527 -107.86210122 423.45318409 -104.16748047 423.45629883 C-102.80003028 423.45744684 -102.80003028 423.45744684 -101.40495484 423.45861804 C-86.18567504 423.47171518 -70.96643813 423.49637749 -55.74719012 423.53004223 C-46.36659709 423.55029667 -36.98609592 423.56062652 -27.60548086 423.55805302 C-21.17183521 423.55701523 -14.73826201 423.56669849 -8.30464165 423.58469205 C-4.59682487 423.59470229 -0.88916845 423.59990284 2.81865692 423.59192467 C6.84739803 423.58335949 10.87573388 423.59803998 14.90444946 423.61473083 C16.06381472 423.60851902 17.22317998 423.6023072 18.41767752 423.59590715 C34.06453714 423.71361727 47.66677138 428.47070144 60 438 C60.68964844 438.51175781 61.37929688 439.02351563 62.08984375 439.55078125 C75.09633833 449.93022148 82.01464962 465.78185951 84 482 C84.2177005 486.73456266 84.19088422 491.44937492 84.125 496.1875 C84.08375 500.415625 84.0425 504.64375 84 509 C69.81 509 55.62 509 41 509 C40.6875 498.5625 40.6875 498.5625 40.61206055 495.33032227 C40.26963588 486.32480343 38.81986951 478.37509541 32 472 C25.0247414 467.66849381 18.33801761 467.43354938 10.31231689 467.50120544 C9.0560653 467.49582089 7.7998137 467.49043634 6.50549388 467.48488861 C3.03908483 467.47051123 -0.42687128 467.48076262 -3.89326382 467.49517167 C-7.63983401 467.50632692 -11.38633882 467.49427883 -15.13290405 467.48498535 C-21.62016688 467.47191549 -28.10730076 467.4730447 -34.59456635 467.48357964 C-43.98810513 467.49854951 -53.38149335 467.48858144 -62.77502361 467.47206045 C-78.03556668 467.44561714 -93.29607589 467.4347398 -108.55664062 467.43579102 C-109.46925043 467.43584934 -110.38186023 467.43590766 -111.32212487 467.43596775 C-115.01942452 467.43623358 -118.71672416 467.43655085 -122.4140238 467.43693101 C-132.58330799 467.4378967 -142.75259116 467.43657011 -152.921875 467.43383789 C-153.83215489 467.433598 -154.74243477 467.43335811 -155.68029889 467.43311094 C-170.88046001 467.42869807 -186.08058977 467.41243935 -201.28073239 467.3886171 C-210.64541446 467.37457741 -220.00997703 467.37163867 -229.37466314 467.38323999 C-235.79659621 467.39058576 -242.21846924 467.38747076 -248.64039657 467.37628155 C-252.34026627 467.37023358 -256.03996767 467.36905157 -259.7398262 467.38115883 C-263.76147055 467.39423928 -267.78273522 467.383994 -271.80438232 467.37181091 C-272.95878838 467.37938697 -274.11319444 467.38696302 -275.3025825 467.39476866 C-293.62120019 467.27764441 -309.88765182 460.99112463 -323 448 C-329.1315053 441.00759692 -333.75643414 433.71310829 -337 425 C-337.31839844 424.20980469 -337.63679687 423.41960937 -337.96484375 422.60546875 C-343.31079306 406.96179219 -340.66327672 388.6847753 -334 374 C-325.94221694 358.66312721 -312.43618864 347.48581716 -296 342 C-288.86046532 339.78127668 -281.94521236 339.57135725 -274.5 339.375 C-273.29601562 339.33632813 -272.09203125 339.29765625 -270.8515625 339.2578125 C-267.90118881 339.16414984 -264.95081144 339.07842476 -262 339 C-262.68489502 338.3817334 -263.36979004 337.7634668 -264.07543945 337.12646484 C-265.81492478 335.55600613 -267.55406043 333.98516008 -269.29296875 332.4140625 C-271.43625604 330.50273271 -273.60910203 328.65259681 -275.8125 326.8125 C-312.97482362 294.21134689 -336.68145047 243.08512814 -340 194 C-342.97531057 134.49563659 -325.7380331 80.93264544 -285.86645508 36.32739258 C-281.20081905 31.17709796 -276.39401646 26.38773776 -271 22 C-270.49549316 21.57783203 -269.99098633 21.15566406 -269.47119141 20.72070312 C-193.36603465 -42.95867624 -105.89369869 -32.66686136 0 0 Z M-254.62109375 66.61328125 C-284.89172053 98.53063013 -297.91464298 139.98751579 -297.24609375 183.3046875 C-296.00530095 226.89910925 -275.58758437 266.96143041 -244.453125 296.82421875 C-221.97508496 317.79244618 -192.923501 331.72968778 -162.8125 337.375 C-161.58744751 337.6083606 -161.58744751 337.6083606 -160.33764648 337.84643555 C-142.65592771 340.85971881 -124.39058958 340.13922669 -106.52991438 340.10139394 C-103.01861237 340.09505063 -99.50730906 340.09454807 -95.9960022 340.09336853 C-89.37734925 340.09028704 -82.75871325 340.08211754 -76.1400677 340.07201904 C-68.59203326 340.06075781 -61.04399791 340.05532249 -53.49595714 340.05032361 C-37.99729502 340.03993145 -22.49864971 340.0223951 -7 340 C-12.12509019 324.22591604 -23.32846916 312.41087945 -37.875 304.8125 C-49.45351913 299.2419782 -60.29144099 297.84075449 -73.00585938 297.88647461 C-74.07992035 297.88632858 -75.15398132 297.88618256 -76.2605896 297.8860321 C-79.78833073 297.88672525 -83.31601816 297.89448953 -86.84375 297.90234375 C-89.298543 297.90421006 -91.75333638 297.90563296 -94.20812988 297.90663147 C-100.65247638 297.9104399 -107.09680015 297.92025584 -113.5411377 297.93133545 C-120.12377617 297.94158562 -126.70641834 297.94613681 -133.2890625 297.95117188 C-146.1927199 297.96187966 -159.0963545 297.97946286 -172 298 C-172 283.81 -172 269.62 -172 255 C-157.25 255.1875 -157.25 255.1875 -152.67675781 255.27026367 C-135.10309588 255.37742015 -119.87190904 250.46394938 -107.06005859 238.18505859 C-94.40600772 225.56535872 -87.43947781 210.55425811 -86.625 192.5 C-87.48693462 174.76403766 -94.16143382 159.26846999 -107 147 C-107.61230469 146.36835938 -108.22460938 145.73671875 -108.85546875 145.0859375 C-120.71352749 133.60713437 -136.63577225 129.63192544 -152.67675781 129.72973633 C-154.18592773 129.75704834 -155.69509766 129.78436035 -157.25 129.8125 C-164.55125 129.9053125 -164.55125 129.9053125 -172 130 C-172 115.81 -172 101.62 -172 87 C-166.369375 87.103125 -160.73875 87.20625 -154.9375 87.3125 C-153.19460693 87.33739502 -151.45171387 87.36229004 -149.65600586 87.38793945 C-120.80804267 87.96159143 -95.34166975 98.36653194 -74.3125 118.25 C-54.51384846 138.95518321 -44.53826493 166.19779881 -44.76757812 194.68359375 C-45.27586238 217.17008931 -52.94051631 235.83679663 -64 255 C-63.32122803 255.09498779 -62.64245605 255.18997559 -61.94311523 255.2878418 C-37.66631027 258.75008609 -15.74528589 264.33008505 3 281 C3.7425 281.60070312 4.485 282.20140625 5.25 282.8203125 C23.03885169 297.58258873 31.81137865 318.33982529 38 340 C136.67 340 235.34 340 337 340 C337 309.48981167 331.69520388 295.47383458 313.73828125 273.171875 C312.13745489 271.17174139 310.56257328 269.15508172 309 267.125 C304.00265856 260.63981373 298.8385935 254.45678984 293.26953125 248.44921875 C291.28619538 246.30885456 289.35039811 244.14063092 287.4375 241.9375 C273.16834525 225.5641381 258.50467553 208.85500892 241.9609375 194.7421875 C239.71368115 192.7456211 237.61105073 190.63987054 235.5 188.5 C231.49972792 184.45161468 227.33423855 180.68498015 223 177 C221.66662751 175.85421223 220.33329198 174.70838146 219 173.5625 C218.01 172.716875 217.02 171.87125 216 171 C217.54384028 167.31005209 219.78813943 164.9760549 222.625 162.1875 C223.96884766 160.86298828 223.96884766 160.86298828 225.33984375 159.51171875 C227.56453918 157.41116198 229.82794986 155.4439738 232.1875 153.5 C242.86963326 144.25791288 249.92192016 129.6521561 251.21899414 115.63305664 C252.10134252 97.56425659 248.85716867 81.72962134 236.625 67.75 C235.09935405 66.15122391 233.55859585 64.56667148 232 63 C231.40832031 62.37351562 230.81664062 61.74703125 230.20703125 61.1015625 C219.04572144 50.21127788 203.4514162 45.36372326 188.1875 44.87890625 C170.09754126 45.46306117 154.49426029 53.0149668 142 66 C130.31907225 79.80845225 124.60005794 95.81831448 125.79736328 113.93554688 C127.18737699 128.09693954 133.22340281 141.05996579 141.125 152.75 C141.74375 153.8225 142.3625 154.895 143 156 C141.88568426 159.59253277 139.71509642 161.25563566 136.74609375 163.42578125 C135.89080078 164.05806641 135.03550781 164.69035156 134.15429688 165.34179688 C133.25775391 165.99212891 132.36121094 166.64246094 131.4375 167.3125 C129.6856147 168.59946689 127.93430917 169.88722337 126.18359375 171.17578125 C125.32233887 171.80436035 124.46108398 172.43293945 123.57373047 173.08056641 C120.27280316 175.54232798 117.07619718 178.12514562 113.89477539 180.73901367 C112 182 112 182 109 182 C107.43614465 180.02590252 106.12579496 178.13424619 104.8125 176 C104.42030273 175.37279053 104.02810547 174.74558105 103.62402344 174.09936523 C90.95036325 153.44476578 83.7928215 132.11034426 83.6875 107.75 C83.68194092 106.67322998 83.67638184 105.59645996 83.6706543 104.48706055 C83.7362693 97.15892979 84.59150619 90.18839772 86 83 C32.7857493 53.23842164 -27.01379641 35.47887194 -85.9375 21 C-86.70641571 20.80991364 -87.47533142 20.61982727 -88.26754761 20.42398071 C-150.29043476 5.15993204 -209.29368633 21.42097787 -254.62109375 66.61328125 Z " fill="#000000" transform="translate(496,332)"/>
<path d="M0 0 C14.19 0 28.38 0 43 0 C43 14.19 43 28.38 43 43 C28.81 43 14.62 43 0 43 C0 28.81 0 14.62 0 0 Z " fill="#000000" transform="translate(705,545)"/>
</svg>
