<svg width="65" height="64" viewBox="0 0 65 64" fill="none" xmlns="http://www.w3.org/2000/svg">
<path d="M59.6423 13.737C60.9208 13.5462 60.6746 11.5908 59.3571 11.7575C55.1761 12.3601 52.3369 17.4072 51.3636 19.4137C50.4045 19.1717 49.4502 19.0434 48.5167 19.0149C48.9842 16.5379 50.5998 10.4151 55.4992 7.42007C56.5945 6.74599 55.6029 5.03208 54.4562 5.71406C48.4919 9.3597 46.8499 16.7198 46.4627 19.1207C43.1599 19.5732 40.4032 21.3657 39.2551 24.0981C35.2329 21.8727 28.5549 23.2802 25.5354 26.8271C22.4546 22.7679 16.665 22.4393 11.906 24.5587C4.5837 27.8459 4.49972 36.7726 4.49972 37.151C4.15915 37.8806 9.54735 42.1666 14.7023 42.176C18.7669 42.2637 23.1863 38.9217 25.223 35.8538C25.8735 36.5246 26.6889 37.0867 27.6345 37.5072L25.9431 45.34L18.1359 43.8996C17.7214 43.8224 17.3083 44.0124 17.094 44.3727L9.65157 56.923C9.00716 58.0326 10.6791 59.0794 11.3723 57.9434C11.3723 57.9435 18.4587 45.9928 18.4587 45.9928L26.5339 47.4826C27.0666 47.5768 27.5783 47.2384 27.6931 46.7101L29.5476 38.1233C30.6891 38.3743 31.9198 38.4425 33.1056 38.3176L34.5993 44.4538C34.7087 44.902 35.1101 45.2175 35.571 45.2175H43.427L48.9929 56.5431C49.586 57.7046 51.3516 56.8574 50.7878 55.6613C50.7878 55.6613 44.947 43.7765 44.947 43.7765C44.779 43.4342 44.4309 43.2175 44.0495 43.2175H36.3566L35.0791 37.9688C36.5393 37.594 37.8842 36.9831 39.0388 36.1963L41.76 39.6115C41.9499 39.8498 42.2375 39.9884 42.5422 39.9884H48.0075L50.5735 45.944C50.6487 46.1178 50.7712 46.2673 50.9275 46.3742L56.7683 50.3674C57.8453 51.0848 58.9821 49.4873 57.8971 48.716C57.8972 48.716 52.2956 44.8864 52.2956 44.8864L49.5842 38.5929C49.426 38.2262 49.0652 37.9884 48.6657 37.9884H43.0241L40.5861 34.9287C41.0382 34.4776 41.4227 33.9956 41.7515 33.4952C46.4305 38.0593 51.4021 37.4592 56.8963 34.4605C58.7453 33.4142 59.7829 32.3966 59.9797 31.4367C60.4306 29.2358 57.0816 22.2962 53.2473 20.1238C54.152 18.3055 56.5232 14.1867 59.6423 13.737ZM18.1154 39.3673C13.219 41.8307 7.89181 37.8532 6.52023 36.713C6.63888 35.0002 7.43283 28.7589 12.7253 26.383C16.7731 24.5876 22.0894 24.7526 24.2696 28.6159C23.3527 30.4089 23.2096 32.3003 23.99 34.0264C22.8728 36.1107 20.766 38.0407 18.1154 39.3673ZM29.1091 35.9406C25.8564 34.9794 24.5149 31.7308 26.2557 29.1569C28.3749 25.4707 35.1886 23.7647 38.7367 26.1005C38.5178 28.091 39.1262 30.1152 40.3804 31.8959C38.4019 35.5649 32.9892 37.2366 29.1091 35.9406ZM58.0217 31.0299C57.9358 31.2887 57.1369 32.1286 55.1902 33.1037C52.2268 34.5885 49.0241 35.2277 47.3982 34.6549C42.6169 32.9718 39.778 28.8517 40.9363 25.2756C42.0811 21.3996 47.7263 20.1373 51.6121 21.5569C54.9973 22.6481 58.2453 29.8092 58.0217 31.0299Z" fill="white"/>
<path d="M49.4962 23.5176C47.8761 23.5452 47.8764 25.978 49.4962 26.0054C51.1162 25.9778 51.116 23.545 49.4962 23.5176Z" fill="white"/>
</svg>
