<svg width="513" height="512" viewBox="0 0 513 512" fill="none" xmlns="http://www.w3.org/2000/svg">
<path d="M468.3 369.9L363.6 265C360 261.6 354.3 261.6 350.7 265L329.9 285.8L305.4 261.4L364.4 202.1C389.1 200.8 421.9 200.9 423.4 200.7C429.5 199.8 441.3 190.3 481 136.9C482.1 135.4 482.7 133.6 482.8 131.7V107.7C482.8 104.4 481.1 101.4 478.2 99.7998C475.4 98.0998 471.9 98.0998 469.1 99.7998L427.1 124.7C423.5 125.8 407.8 129.5 394.3 110.4C379.8 89.5998 386.3 79.6998 395.4 71.7998C409.1 61.9998 423.4 52.8998 438.1 44.6998C440.8 43.0998 442.5 40.2998 442.7 37.1998C442.8 34.0998 441.3 31.0998 438.8 29.3998C437.5 28.4998 405.9 7.39981 351.6 28.3998C309.7 44.5998 303.8 65.8998 303.3 68.2998L294.4 131.4L235 190.8L181.9 137.6C184.2 131.8 185.4 125.7 185.4 119.4C185.4 106.3 180.2 93.7998 171 84.5998C170.6 84.0998 170.1 83.6998 169.5 83.3998L79.6 24.8998C76 22.4998 71.3 22.9998 68.2 25.9998L30.9 63.3998C27.9 66.3998 27.4 71.1998 29.8 74.7998L88.4 164.5C88.8 165 89.2 165.5 89.6 166C98.8 175.3 111.3 180.4 124.3 180.4C130.5 180.4 136.7 179.2 142.5 176.9L195.6 230.1L130.6 295.1L68.3 303.9H67.6C65.2 304.5 43.9 310.3 27.7 352.3C6.90003 406.6 27.7 438.2 28.7 439.5C30.4 442 33.3 443.5 36.4 443.5C39.5 443.4 42.3 441.7 43.9 439C52.2 424.3 61.2 410.1 71 396.3C78.8 387.1 89 380.7 109.6 395.1C128.8 408.7 125.2 424.5 123.9 427.9L99 469.9C96.4 474.2 97.8 479.7 102.1 482.3C103.5 483.2 105.2 483.6 106.8 483.6H130.8C132.7 483.6 134.5 482.9 136 481.8C190.5 441.5 199.2 429.9 199.9 424C199.9 422.8 199.9 389.9 201.2 365.3L266 300.8L290.7 325.1L269.9 345.9C266.4 349.5 266.4 355.2 269.9 358.8L374.8 463.6C399.3 488.1 439.1 488.1 463.6 463.6L468.3 458.9C492.8 434.5 492.9 394.8 468.5 370.3C468.5 370.3 468.4 370.2 468.3 370.1H468.1L468.3 369.9ZM309.3 142.1C310.7 140.7 311.6 138.9 311.8 136.9L321 72.2998C321.6 70.7998 327.6 57.2998 358.1 45.4998C375.3 37.9998 394.3 35.5998 412.8 38.5998C402.7 44.3998 393 50.8998 383.7 57.9998C358.7 79.3998 367.7 103.9 379.5 120.8C398 147.1 423.6 145.8 434.4 141.6C434.8 141.6 464.7 123.8 464.7 123.8V129C447.7 151.8 427.2 177.2 420.2 182.8C408.3 182.2 375 183.8 360.1 184.6C357.8 184.7 355.7 185.7 354.1 187.2L292.6 248.4L277 232.8L336.3 173.3C340.1 170.1 340.6 164.3 337.4 160.5C334.2 156.7 328.4 156.2 324.6 159.4C324.2 159.7 323.8 160.1 323.5 160.5L264.1 219.9L247.8 203.5L309.3 142V142.1ZM124.2 162.1C116.3 162.1 108.7 159.1 103 153.7L49.1 70.9998L76 44.0998L158.7 98.1998C170.1 110.4 169.9 129.5 158.1 141.4L146.2 153.3C140.4 159.1 132.5 162.4 124.3 162.3V162.1H124.2ZM186.2 354.9C184.6 356.5 183.7 358.6 183.6 360.8C182.8 375.8 181.2 408.9 181.8 420.9C176.2 427.9 150.6 448.4 127.9 465.4H122.7C122.7 465.4 140.4 435.7 140.7 435.1C145.1 424.2 146.5 398.8 119.9 380.2C103 368.4 78.4 359.4 57 384.4C50 393.7 43.5 403.4 37.6 413.5C34.6 395 37 376 44.5 358.8C56.3 328.1 69.9 322.5 71.3 321.7L136.1 312.5C138.1 312.2 139.9 311.4 141.3 310L208.4 242.8L224.8 259.1L159.2 324.7C155.7 328.2 155.6 333.9 159.1 337.4C159.1 337.4 159.1 337.4 159.2 337.5C162.7 341 168.4 341.1 171.9 337.6C171.9 337.6 171.9 337.6 172 337.5L237.6 271.9L253.2 287.5L186.2 354.8V354.9ZM158 166.8L158.9 166L170.7 154.2L171.5 153.3L316.9 298.7L303.3 312.3L157.9 166.9L158 166.8ZM455.5 446.1L450.8 450.9C433.3 468.3 405.1 468.3 387.7 450.9L289.3 352.3L310.1 331.5L336.6 305.1L357.4 284.3L456 382.9C473.3 400.4 473.2 428.6 455.8 445.9C455.8 445.9 455.7 446 455.6 446.1H455.5Z" fill="white"/>
<path d="M351.503 333.801C348.003 330.301 342.303 330.201 338.803 333.701C338.803 333.701 338.803 333.701 338.703 333.801C335.203 337.301 335.203 343.101 338.703 346.601L416.603 424.501C420.203 428.101 425.903 428.101 429.503 424.501C433.103 420.901 433.103 415.201 429.503 411.601L351.603 333.801H351.503Z" fill="white"/>
</svg>
