<svg width="513" height="512" viewBox="0 0 513 512" fill="none" xmlns="http://www.w3.org/2000/svg">
<path d="M310.583 381.744C316.191 388.4 322.183 394.728 328.479 400.656L336.735 433.928C337.015 435.048 337.535 436.096 338.247 437L370.247 477C376.823 485.192 389.415 475.344 382.751 467.008L351.847 428.376L349.135 417.44C393.535 448.096 456.503 452.2 456.503 400C456.503 365.504 392.551 268.936 362.743 233.072L387.815 208H432.503C433.519 208 434.527 207.808 435.471 207.432L475.471 191.432C485.279 187.496 479.375 172.664 469.535 176.576L430.967 192H384.503C382.375 192 380.343 192.84 378.847 194.344L352.215 220.976C340.151 207.752 329.047 197.992 320.295 194.016C320.183 191.936 319.999 189.96 319.775 188.04L350.159 157.656C351.663 156.16 352.503 154.12 352.503 152V107.312L414.159 45.6559C421.647 38.1679 410.327 26.8639 402.847 34.3439L338.847 98.3439C337.343 99.8399 336.503 101.88 336.503 104V148.688L315.487 169.696C312.487 161.752 308.599 156.072 304.983 152.144C316.455 138.456 316.815 108.248 293.135 103.952C289.855 99.6239 284.111 95.9039 277.807 93.1519L287.479 75.9119C292.671 66.6799 278.679 58.8479 273.527 68.0799L262.087 88.4719C257.991 87.8319 255.023 87.8319 250.927 88.4719L239.487 68.0799C234.335 58.8399 220.343 66.6719 225.535 75.9119L235.207 93.1519C228.903 95.9039 223.159 99.6239 219.879 103.952C196.199 108.24 196.559 138.448 208.031 152.144C204.415 156.072 200.527 161.752 197.527 169.696L176.503 148.688V104C176.503 101.88 175.663 99.8399 174.159 98.3439L110.159 34.3439C102.679 26.8639 91.3593 38.1679 98.8473 45.6559L160.503 107.312V152C160.503 154.12 161.343 156.16 162.847 157.656L193.231 188.04C193.007 189.96 192.823 191.936 192.711 194.016C183.951 198 172.855 207.752 160.791 220.976L134.159 194.344C132.663 192.84 130.631 192 128.503 192H82.0393L43.4713 176.568C33.6233 172.656 27.7273 187.496 37.5353 191.424L77.5353 207.424C78.4793 207.808 79.4873 208 80.5033 208H125.191L150.263 233.072C120.455 268.936 56.5033 365.504 56.5033 400C56.5033 452.2 119.471 448.096 163.871 417.432L161.159 428.368L130.255 467C123.591 475.336 136.183 485.184 142.759 476.992L174.759 436.992C175.479 436.088 175.991 435.04 176.271 433.92L184.527 400.648C190.823 394.72 196.815 388.392 202.423 381.736C215.343 459.584 297.671 459.56 310.583 381.744ZM293.551 359.216C294.455 360.536 295.391 361.84 296.319 363.152C296.167 367.96 295.807 372.488 295.207 376.696C281.735 389.632 272.127 392 256.503 392C240.879 392 231.271 389.632 217.807 376.704C217.207 372.496 216.847 367.968 216.695 363.16C217.623 361.848 218.559 360.544 219.463 359.224C236.399 371.128 276.487 371.216 293.551 359.216ZM273.175 325.048C276.719 331.872 280.647 338.84 284.919 345.816C273.791 354.232 239.303 354.288 228.095 345.816C232.359 338.84 236.287 331.872 239.839 325.048C250.167 328.968 262.719 329.016 273.175 325.048ZM271.703 152C276.023 157.296 281.967 160.328 289.903 159.84C293.679 162.592 302.927 171.568 304.327 194.096C290.271 199.768 268.127 216.376 256.511 233.888C244.887 216.376 222.751 199.768 208.695 194.096C210.095 171.568 219.343 162.6 223.119 159.84C231.055 160.328 236.999 157.296 241.319 152H271.703ZM256.503 287.528C259.095 294.608 262.271 302.384 266.079 310.616C260.215 312.44 252.975 312.496 246.935 310.616C250.735 302.384 253.911 294.608 256.503 287.528ZM264.503 256C264.503 245.984 276.743 232.64 289.055 222.56C297.399 238.568 304.447 255.128 310.135 272.12C295.311 268.728 277.143 268.624 267.087 268.912C265.391 263.112 264.503 258.624 264.503 256ZM245.919 268.912C235.863 268.632 217.695 268.736 202.871 272.12C208.559 255.128 215.607 238.568 223.951 222.56C236.263 232.64 248.503 245.984 248.503 256C248.503 258.624 247.615 263.112 245.919 268.912ZM340.623 333.192C353.215 333.88 365.887 335.752 371.223 338.336C375.407 363.808 377.831 389.568 378.495 415.528C366.007 409.96 354.375 401.96 343.671 392.416C344.319 372.544 343.231 352.752 340.623 333.192ZM169.343 392.424C158.639 401.968 147.007 409.968 134.519 415.536C135.183 389.576 137.607 363.808 141.791 338.344C147.119 335.76 159.791 333.888 172.391 333.2C169.775 352.752 168.687 372.544 169.343 392.424ZM373.111 273C396.783 305.704 420.655 344.16 432.623 372.032C418.447 368.144 401.631 368.856 391.583 369.832C388.183 337.08 382.023 304.736 373.111 273ZM121.423 369.832C111.375 368.856 94.5593 368.136 80.3833 372.032C92.3433 344.16 116.223 305.704 139.895 273C130.983 304.736 124.823 337.08 121.423 369.832ZM344.599 236.416C354.639 263.96 362.383 292.096 368.007 320.632C357.927 318.184 346.151 317.32 338.143 317.032C331.935 282.616 320.183 247.08 302.151 213.04C306.751 210.144 310.559 208.264 312.559 208.008C318.391 208.504 330.311 219.656 344.599 236.416ZM200.447 208.008C202.447 208.272 206.255 210.144 210.855 213.04C192.823 247.08 181.071 282.616 174.863 317.032C166.855 317.32 155.079 318.176 144.999 320.632C150.631 292.096 158.375 263.96 168.407 236.416C182.695 219.656 194.615 208.504 200.447 208.008ZM288.503 144C280.727 144 280.503 129.64 280.503 128C280.503 122.424 287.175 119.976 288.623 119.512C292.351 119.672 296.503 121.344 296.503 128C296.503 128.16 296.407 144 288.503 144ZM216.503 128C216.503 121.344 220.655 119.672 224.383 119.512C225.831 119.976 232.503 122.424 232.503 128C232.503 129.64 232.279 144 224.503 144C216.599 144 216.503 128.16 216.503 128ZM274.247 109.248C264.655 116.568 263.503 125.248 265.151 136H247.863C249.511 125.248 248.359 116.576 238.767 109.248C251.735 102.368 261.255 102.36 274.247 109.248ZM256.503 408C269.143 408 278.775 406.192 287.655 401.848C272.511 431.376 240.519 431.432 225.351 401.848C234.231 406.192 243.863 408 256.503 408ZM272.591 284.824C288.703 284.76 307.727 286.352 315.743 290.688C323.359 318.632 327.487 347.472 327.823 376.624C301.631 347.336 282.615 310.56 272.591 284.824ZM185.175 376.624C185.511 347.472 189.639 318.632 197.255 290.688C205.271 286.352 224.295 284.76 240.407 284.824C230.391 310.56 211.375 347.336 185.175 376.624ZM394.639 421.152C394.455 409.32 393.895 397.52 392.999 385.768C409.047 384.24 433.375 384.672 439.815 393.848C443.727 415.328 431.735 430.544 394.639 421.152ZM73.1913 393.856C79.6313 384.68 103.959 384.248 120.007 385.776C119.111 397.528 118.551 409.32 118.367 421.16C81.2713 430.544 69.2793 415.328 73.1913 393.856Z" fill="white"/>
</svg>
