<svg width="513" height="512" viewBox="0 0 513 512" fill="none" xmlns="http://www.w3.org/2000/svg">
<path d="M493.998 419.6L455.098 399.8L441.398 346.4C443.698 341.8 445.198 337.3 445.198 331.2C445.198 314.4 432.198 301.5 416.198 299.9C421.498 278.6 386.498 220.6 338.398 216.8C341.398 172.6 216.398 14 159.998 14C103.598 14 133.298 18.6 130.298 50.6C127.298 84.1 170.698 127.6 217.198 162.7C173.698 146.7 127.998 135.3 108.198 145.9C100.598 149.7 89.8979 159.6 99.7979 184C114.998 219.8 204.198 233.6 258.398 238.9C210.398 254.1 72.3979 301.4 84.5979 351C86.0979 365.5 99.0979 374.6 121.998 363.2C153.998 346.4 262.298 294.6 296.598 293.8C298.898 298.4 303.498 306.8 310.298 314.4L263.798 307.5C261.498 307.5 259.198 308.3 257.698 309.8C256.198 311.3 255.398 313.6 255.398 315.9L259.998 353.3L243.998 360.2C135.698 382.3 138.798 381.5 137.298 382.3L28.2979 421.2C24.4979 422.7 22.1979 427.3 23.6979 431.1C25.1979 434.9 28.9979 437.2 33.5979 435.7L142.598 396.8C255.398 373.9 248.598 375.5 250.098 374.7L262.298 369.4L267.598 411.3L228.698 495.2C227.198 499 228.698 503.6 232.498 505.1C236.298 506.6 240.898 505.1 242.398 501.3L281.998 415.9C282.798 414.4 282.798 412.9 282.798 412.1L276.698 364.1L338.498 337.4L366.698 382.4L359.798 445.7C359.798 448 360.598 450.3 362.098 451.8L407.798 499.1C410.798 502.1 415.398 502.1 418.498 499.1C421.598 496.1 421.498 491.5 418.498 488.4L375.798 443.4L381.898 380.1C381.898 378.6 381.898 377.1 381.098 375.5L355.898 336.6C364.298 336.6 372.698 334.3 381.798 330.5V331.3C381.798 348.8 395.498 362.6 413.098 362.6C430.698 362.6 418.398 361.8 420.698 361.8L403.198 421.3C402.398 423.6 403.198 425.9 404.698 428.2L447.398 486.1C449.698 489.1 454.998 489.9 458.098 487.6C461.198 485.3 461.898 480 459.598 476.9L419.198 422L432.898 375.5L441.298 406.8C442.098 409.1 443.598 410.6 445.098 411.4L486.998 432.7C490.798 434.2 495.398 433.5 496.898 429.7C499.198 426.7 497.698 422.1 493.898 419.8L493.998 419.6ZM145.598 52.9C146.398 39.9 150.198 32.3 156.298 30.8C189.098 21.7 266.798 116.9 287.398 145.9C317.898 188.6 324.798 211.5 323.198 217.6C286.598 196.3 140.998 102.5 145.598 52.9ZM137.198 306.8C149.398 299.9 163.898 292.3 179.098 285.5C189.798 291.6 193.598 300 191.298 313.7C176.798 320.6 162.298 326.7 150.098 332.8C149.298 322.1 144.798 313 137.098 306.9L137.198 306.8ZM195.098 278.6C208.798 273.3 223.298 267.9 237.798 262.6C249.198 267.9 253.798 276.3 251.498 289.3C236.998 293.9 221.798 300 206.498 306.8C207.298 295.4 203.498 285.5 195.098 278.6ZM256.098 256.5C265.998 253.5 275.198 250.4 285.098 247.4C285.098 256.5 285.898 268.7 289.698 279.4C283.598 280.2 275.998 281.7 267.598 284C267.598 272.6 263.798 263.4 256.198 256.6L256.098 256.5ZM114.298 178C111.998 173.4 109.698 165 112.798 161.2C132.598 139.9 275.898 198.6 294.198 226.8C256.798 225.3 128.798 213.1 114.298 178ZM115.098 349.5C99.0979 357.9 100.598 350.3 99.8979 347.2C97.5979 337.3 106.798 326.6 123.498 314.4C132.598 319.7 136.498 327.4 134.898 338.8C124.998 344.9 117.398 347.9 115.098 349.5ZM271.298 324.3L313.198 330.4L274.298 347.2L271.298 324.3ZM341.498 319C320.198 310.6 299.598 280.9 300.298 242C303.298 242 307.198 235.9 324.698 233.6C374.298 226 404.698 287.7 400.898 298.4C397.098 309.1 364.298 328.1 341.398 319H341.498ZM397.098 332C397.098 322.9 404.698 316 413.098 316C421.498 316 429.098 323.6 429.098 332C429.098 340.4 421.498 348 413.098 348C404.698 348 397.098 341.1 397.098 332Z" fill="white"/>
</svg>
