<svg width="513" height="512" viewBox="0 0 513 512" fill="none" xmlns="http://www.w3.org/2000/svg">
<path d="M26.4982 242.201C26.6982 242.201 26.9982 242.201 27.1982 242.201L72.7982 236.801C74.4982 236.601 75.8982 235.701 76.8982 234.401L131.998 159.501L173.398 182.601C171.198 186.501 169.998 190.901 169.998 195.401C169.998 196.101 169.998 196.701 169.998 197.301C154.898 212.901 143.198 231.501 135.598 251.901L102.698 246.501C99.3982 246.001 96.2982 248.201 95.7982 251.401V251.601L76.0981 411.001L47.7982 431.101C45.0982 433.001 44.4982 436.801 46.3982 439.501C48.2982 442.201 52.0981 442.801 54.7981 440.901L85.2982 419.301C86.6982 418.301 87.5982 416.801 87.7982 415.101L107.098 259.301L131.898 263.401C126.798 280.401 124.298 298.001 124.298 315.701C124.298 363.601 146.798 408.401 189.498 445.101C221.398 472.601 252.898 485.701 254.198 486.301C255.598 486.901 257.198 486.901 258.598 486.301C259.898 485.801 291.498 473.601 323.398 446.601C366.098 410.601 388.598 365.301 388.598 315.701C388.598 298.001 386.098 280.401 380.998 263.401L405.798 259.301L425.098 415.101C425.298 416.801 426.198 418.301 427.598 419.301L458.098 440.901C460.798 442.801 464.498 442.201 466.498 439.501C468.398 436.801 467.798 433.101 465.098 431.101L436.798 411.101L417.098 251.701C416.698 248.401 413.698 246.101 410.398 246.501H410.198L377.298 251.901C369.698 231.501 357.998 212.901 342.898 197.301C342.898 196.701 342.898 196.001 342.898 195.401C342.898 191.301 341.898 187.301 339.998 183.601L381.798 160.301L435.898 236.101C436.898 237.501 438.398 238.401 440.098 238.601L485.698 244.001C485.898 244.001 486.198 244.001 486.398 244.001C489.698 244.001 492.398 241.301 492.398 238.001C492.398 235.001 490.098 232.401 487.098 232.001L444.098 226.901L388.398 148.801C386.598 146.301 383.298 145.601 380.598 147.001L332.798 173.701C326.998 168.001 318.898 162.901 308.798 159.001C308.998 157.901 309.098 156.801 309.098 155.801C309.098 152.201 308.598 148.601 307.498 145.201C308.498 143.601 309.298 141.901 309.898 140.201L344.098 128.701C345.498 128.201 346.698 127.301 347.398 126.001L370.998 84.9006L409.098 59.3006C411.898 57.5006 412.598 53.8006 410.798 51.0006C408.998 48.2006 405.298 47.5006 402.498 49.3006C402.498 49.3006 402.498 49.3006 402.398 49.3006L363.198 75.7006C362.398 76.2006 361.798 76.9006 361.298 77.7006L338.098 118.001L311.598 126.901V125.801C311.598 113.001 303.398 101.701 291.198 97.9006C293.098 94.8006 294.198 91.1006 294.198 87.4006C294.198 80.8006 290.598 74.9006 283.498 69.9006L289.598 62.8006L357.798 36.6006C360.898 35.5006 362.498 32.0006 361.398 28.9006C360.298 25.8006 356.798 24.2006 353.698 25.3006H353.498L283.898 52.0006C282.998 52.4006 282.098 52.9006 281.498 53.7006L272.798 63.9006C267.998 61.8006 262.998 60.2006 257.898 59.0006C257.098 58.8006 256.198 58.8006 255.398 59.0006C250.198 60.1006 245.198 61.7006 240.298 63.8006L231.798 53.8006C231.198 53.0006 230.298 52.5006 229.398 52.1006L159.798 25.4006C156.698 24.1006 153.198 25.6006 151.998 28.7006C150.698 31.8006 152.198 35.3006 155.298 36.5006H155.498L223.698 62.7006L229.598 69.7006C223.598 74.0006 218.998 79.8006 218.998 87.4006C218.998 91.1006 220.098 94.7006 222.098 97.9006C209.898 101.701 201.598 113.001 201.698 125.801V128.501L175.198 118.101L151.898 77.6006C151.398 76.8006 150.798 76.1006 149.998 75.6006L110.698 49.2006C107.998 47.3006 104.198 48.1006 102.398 50.8006C100.598 53.5006 101.298 57.3006 103.998 59.1006L142.098 84.7006L165.698 125.801C166.398 127.001 167.398 127.901 168.698 128.401L204.198 142.401C204.598 143.301 205.098 144.201 205.598 145.001C204.498 148.401 203.998 152.001 203.998 155.601C203.998 156.701 203.998 157.801 204.298 158.801C194.698 162.501 186.898 167.301 181.198 172.601L133.498 146.001C130.898 144.501 127.498 145.201 125.698 147.701L68.9981 224.801L25.9982 229.901C22.6982 230.301 20.3982 233.301 20.6982 236.601C21.0982 239.601 23.5982 241.901 26.6982 241.901L26.4982 242.201ZM362.598 379.101C347.898 387.401 306.098 393.001 256.898 393.001H256.798C207.698 393.001 165.998 387.301 151.398 379.101C144.298 365.001 139.598 349.701 137.498 334.001C168.298 345.501 239.898 346.001 256.698 346.001H257.098C273.098 346.001 344.898 345.501 375.598 333.901C373.698 349.601 369.298 364.801 362.498 379.001L362.598 379.101ZM376.698 315.701C376.698 317.201 376.698 318.801 376.698 320.301C372.998 322.601 362.998 326.601 336.298 329.901C314.498 332.601 286.398 334.001 257.098 334.001H256.498C227.498 334.001 199.498 332.701 177.598 330.001C150.198 326.701 139.998 322.501 136.298 320.301C136.298 318.801 136.298 317.301 136.298 315.701C136.298 304.501 137.398 293.301 139.598 282.301C146.498 285.901 157.398 288.701 172.998 290.901C195.098 294.201 224.798 295.901 256.598 295.901C288.398 295.901 318.098 294.101 340.198 290.901C355.698 288.601 366.598 285.901 373.498 282.301C375.698 293.301 376.698 304.401 376.698 315.601V315.701ZM256.598 474.301C242.198 467.601 228.498 459.601 215.498 450.301C229.398 451.901 243.398 452.601 257.398 452.601C271.298 452.601 285.198 451.901 298.998 450.401C285.698 459.801 271.398 467.801 256.498 474.301H256.598ZM319.598 434.101C293.598 442.701 220.198 442.601 194.898 434.001C181.198 421.901 169.798 409.101 160.698 395.401C185.098 402.201 223.698 405.001 256.698 405.001H256.798C289.998 405.001 328.998 402.201 353.398 395.301C344.598 409.101 333.298 421.901 319.498 434.101H319.598ZM370.498 270.101C368.698 271.601 361.298 276.201 334.198 279.801C313.198 282.601 285.598 284.101 256.498 284.101C227.398 284.101 199.898 282.601 178.798 279.801C150.998 276.101 143.898 271.401 142.398 270.001C148.698 247.401 159.698 226.801 174.498 210.201C185.898 228.101 217.798 240.701 256.398 240.701C294.998 240.701 326.798 228.101 338.298 210.201C353.198 226.801 364.198 247.401 370.498 270.101ZM297.098 156.001C297.098 168.701 270.298 188.301 256.498 188.601C249.898 188.501 239.698 183.801 230.798 176.801C221.698 169.701 215.898 161.501 215.898 156.001C215.898 150.501 215.898 155.501 215.898 155.301C220.398 157.801 225.398 159.101 230.498 159.001H282.498C287.598 159.001 292.598 157.801 297.098 155.301C297.098 155.401 297.098 155.801 297.098 156.001ZM256.398 71.3006C260.998 72.5006 265.398 74.1006 269.798 76.1006C277.698 79.8006 282.198 84.1006 282.198 87.8006C282.198 91.5006 279.998 94.0006 276.098 97.0006H236.898C232.998 94.0006 230.798 91.0006 230.798 87.8006C230.798 80.0006 247.498 73.5006 256.398 71.4006V71.3006ZM299.498 130.801C299.498 140.301 291.798 148.001 282.298 148.001H230.698C221.198 148.001 213.498 140.301 213.498 130.801V126.201C213.498 116.701 221.198 109.001 230.698 109.001H282.298C291.798 109.001 299.498 116.701 299.498 126.201V130.801ZM208.598 170.401C213.098 177.601 219.798 183.401 223.398 186.201C231.898 192.901 244.698 200.201 255.598 200.701C255.798 200.701 255.998 201.001 256.198 201.001H256.798C256.998 201.001 257.198 200.801 257.398 200.701C268.298 200.201 281.098 193.001 289.598 186.301C293.198 183.401 299.898 177.601 304.398 170.401C320.898 176.801 330.898 186.201 330.898 195.401C330.898 204.601 323.498 211.501 310.698 217.701C296.298 224.701 276.998 228.601 256.398 228.601C235.798 228.601 216.498 224.701 202.098 217.701C189.298 211.401 181.898 203.301 181.898 195.401C181.898 187.501 191.898 176.701 208.398 170.301L208.598 170.401Z" fill="white" stroke="white" stroke-width="4" stroke-miterlimit="10"/>
</svg>
