<svg width="104" height="91" viewBox="0 0 104 91" fill="none" xmlns="http://www.w3.org/2000/svg">
<path d="M3.90267 62C3.20267 62 2.50267 61.5 2.30267 60.8C0.402675 54.6 2.10267 49.5 7.20267 46C8.00267 44.2 10.0027 42.1 15.0027 42.8C15.9027 41.4 17.0027 40.5 18.3027 40C19.7027 39.5 21.2027 39.6 22.9027 40.2C25.0027 38.1 28.6027 36.5 34.4027 38.3C38.3027 36.1 42.6027 35.7 47.0027 37.3C51.2027 35.7 54.9027 35.8 58.0027 37.3C61.2027 35.6 64.3027 35.6 67.2027 37.3C68.7027 36.1 70.2027 35.5 71.6027 35.5C72.7027 35.5 73.8027 35.9 74.9027 36.6C77.8027 34.6 80.7027 34.8 83.3027 37.2C84.0027 37.8 84.4027 37.2 83.8027 38C83.2027 38.7 81.7027 40.4 81.0027 39.7C80.4027 37.8 78.0027 36.9 75.7027 39.1C75.0027 39.7 74.3027 39.2 73.7027 38.6C73.0027 37.9 72.3027 37.8 71.6027 37.9C70.5027 37.9 69.9027 38.5 69.1027 39.3C68.5027 39.9 67.4027 40.6 66.7027 40.1C64.3027 38.3 62.6027 37.6 59.8027 39.4C59.2027 39.7 58.2027 40.5 57.6027 40.1C55.0027 38.5 51.7027 38.2 47.9027 39.8C47.5027 40 47.0027 40 46.6027 39.8C42.7027 38.2 39.6027 37.7 36.2027 39.8C35.8027 40.1 33.4027 41 32.9027 40.9C28.7027 39.4 27.0027 39.8 24.9027 42.3C24.4027 42.9 23.2027 44.3 22.5027 43.9C21.2027 43.2 20.3027 42 19.5027 42.3C18.7027 42.6 17.5027 43.4 17.0027 44.6C16.7027 45.3 16.3027 45.5 15.5027 45.3C10.9027 44.3 9.90267 46.1 9.70267 46.7C9.60267 47.1 8.70267 48.3 8.40267 48.5C4.20267 51.2 2.90267 54.7 4.40267 59.7C4.70267 60.6 5.20267 61.7 4.30267 62C4.10267 62 4.00267 62 3.80267 62H3.90267Z" fill="white"/>
<path d="M92.7016 57.0995C92.3016 57.0995 91.9016 56.9995 91.6016 56.6995C91.1016 56.2995 90.9016 55.7995 91.0016 55.1995C91.7016 49.2995 92.9016 46.2995 95.2016 45.4995C96.7016 44.8995 98.3016 45.4995 99.9016 46.9995C100.102 47.0995 100.202 47.2995 100.302 47.4995C101.002 48.9995 101.102 50.4995 100.502 51.7995C99.6016 53.8995 97.2016 55.5995 93.3016 56.9995C93.1016 56.9995 92.9016 56.9995 92.7016 56.9995V57.0995ZM97.4016 47.7995L96.6016 47.2995C96.2016 45.3995 93.8016 50.0995 93.1016 53.6995C95.4016 55.0995 98.4016 51.1995 98.6016 50.6995C98.7016 50.3995 98.8016 48.9995 98.6016 48.3995C98.0016 47.8995 97.3016 47.6995 97.3016 47.6995L97.4016 47.7995Z" fill="white"/>
<path d="M97.3007 47.4005C97.3007 47.4005 96.7007 46.8005 96.6007 46.8005C96.4007 47.7005 95.7007 46.6005 96.6007 46.8005C96.7007 46.0005 96.9007 44.7005 95.5007 43.9005C94.9007 43.6005 94.2007 42.9005 94.3007 42.2005C94.3007 41.7005 94.0007 40.4005 93.6007 40.1005C93.3007 39.9005 92.5007 39.5005 89.7007 40.0005C89.1007 40.0005 88.9007 40.0005 88.5007 39.6005C87.7007 38.7005 86.5007 37.9005 84.0007 38.0005C83.2007 38.5005 81.3007 40.1005 80.9007 39.3005C80.4007 38.5005 80.7007 37.4005 81.5007 37.0005C85.3007 34.8005 87.9007 36.0005 89.4007 37.3005C92.1007 37.0005 94.0007 37.3005 95.3007 38.6005C96.2007 39.4005 96.7007 40.6005 96.7007 42.0005C98.4007 43.3005 99.2007 45.2005 98.8007 47.3005C98.7007 48.1005 98.2007 47.4005 97.4007 47.4005H97.3007Z" fill="white"/>
<path d="M51.2988 61.5001C49.3988 61.5001 47.3988 61.0001 45.4988 60.1001C44.5988 59.7001 44.0988 59.5001 44.4988 58.6001C46.6988 58.9001 46.1988 57.3001 46.9988 57.7001C50.0988 59.2001 52.0988 59.4001 55.1988 57.7001C55.5988 57.5001 57.1988 57.5001 57.5988 57.7001C60.5988 58.7001 62.7988 58.4001 66.6988 57.0001C67.0988 56.8001 67.1988 56.9001 67.5988 57.0001C69.7988 57.6001 71.1988 57.4001 72.6988 56.7001C72.9988 56.6001 72.6988 56.7001 75.2988 56.0001C77.0988 56.4001 77.6988 56.9001 79.3988 56.4001C79.6988 56.4001 80.5988 56.4001 80.8988 56.6001C83.4988 57.4001 84.1988 56.4001 84.8988 55.9001C85.2988 55.6001 86.4988 55.9001 86.9988 55.9001C88.5988 56.1001 89.7988 55.9001 90.8988 54.5001C91.1988 54.2001 92.2988 53.1001 92.6988 53.1001C93.0988 53.1001 92.3988 52.8001 92.6988 53.1001C92.8988 53.3001 93.2988 53.5001 93.7988 53.7001C94.6988 54.0001 95.1988 54.9001 94.8988 55.8001C94.5988 56.7001 93.6988 57.2001 92.7988 56.9001C92.3988 56.8001 91.9988 56.6001 91.5988 56.4001C90.0988 57.6001 88.2988 58.2001 86.3988 58.1001C84.5988 59.2001 82.3988 59.5001 79.7988 58.9001C77.8988 59.4001 75.7988 59.5001 73.7988 59.2001C71.8988 59.9001 69.6988 59.9001 67.1988 59.3001C63.6988 60.8001 60.2988 61.0001 56.7988 60.0001C54.8988 60.9001 52.9988 61.4001 51.0988 61.4001L51.2988 61.5001Z" fill="white"/>
<path d="M5.69703 62.2009C5.09703 62.2009 4.39703 62.2009 3.69703 62.1009C2.79703 62.0009 2.09703 61.1009 2.19703 60.2009C2.29703 59.3009 3.59703 59.6009 4.49703 59.7009C7.49703 60.1009 9.69703 59.7009 11.797 57.9009C12.197 57.5009 12.997 57.2009 13.597 57.4009C14.397 57.6009 16.097 57.5009 16.497 56.9009C16.697 56.5009 16.797 55.3009 17.297 55.2009C17.697 55.1009 18.997 57.1009 19.397 57.4009C22.897 59.4009 24.697 57.5009 25.697 56.8009C26.297 56.3009 26.697 56.8009 27.297 57.3009C29.297 59.0009 31.297 58.8009 33.597 57.5009C33.997 57.3009 35.397 57.9009 35.797 58.0009C37.997 58.6009 38.597 58.0009 39.597 57.5009C40.097 57.2009 40.697 57.2009 41.297 57.5009C42.797 58.4009 44.297 58.4009 45.897 58.0009C46.797 57.8009 47.597 57.4009 47.797 58.3009C47.997 59.2009 47.497 60.1009 46.497 60.4009C44.297 60.9009 42.097 60.7009 40.097 59.8009C38.497 60.4009 36.597 60.5009 34.297 59.9009C31.297 61.3009 28.397 61.1009 25.697 59.3009C23.497 60.5009 20.897 60.4009 17.997 59.0009C16.897 59.9009 15.297 60.1009 13.097 59.7009C10.897 61.4009 8.29703 62.3009 5.49703 62.3009L5.69703 62.2009Z" fill="white"/>
<path d="M17.5988 58.4991C17.4988 58.4991 17.2988 58.4991 17.1988 58.4991C16.5988 58.1991 16.1988 57.1991 16.3988 56.2991C17.1988 53.0991 16.6988 49.4991 15.0988 45.5991C14.7988 44.7991 14.9988 43.6991 15.5988 43.2991C16.1988 42.7991 16.8988 43.0991 17.2988 43.8991C19.1988 48.5991 19.6988 53.0991 18.7988 57.2991C18.5988 57.9991 18.0988 58.4991 17.5988 58.4991Z" fill="white"/>
<path d="M33.7971 59.7005C33.6971 59.7005 33.5971 59.7005 33.3971 59.7005C32.7971 59.4005 32.4971 58.4005 32.5971 57.5005C33.8971 51.4005 33.9971 45.9005 32.8971 40.9005C32.6971 40.0005 32.9971 39.0005 33.5971 38.7005C34.1971 38.4005 34.8971 38.9005 35.0971 39.8005C36.3971 45.5005 36.2971 51.8005 34.7971 58.5005C34.5971 59.2005 34.1971 59.7005 33.6971 59.7005H33.7971Z" fill="white"/>
<path d="M41.5972 59.4004C41.3972 59.4004 41.0972 59.4004 40.8972 59.1004C40.2972 58.6004 40.0972 57.5004 40.4972 56.7004C45.8972 45.9004 45.9972 41.5004 45.4972 39.8004C45.2972 38.9004 45.4972 37.9004 46.2972 37.6004C46.9972 37.3004 47.6972 37.7004 47.9972 38.6004C49.1972 42.7004 47.3972 49.3004 42.6972 58.6004C42.4972 59.1004 41.9972 59.4004 41.5972 59.4004Z" fill="white"/>
<path d="M56.3976 59.9008C56.2976 59.9008 56.1976 59.9008 56.0976 59.9008C55.4976 59.6008 55.1976 58.6008 55.3976 57.7008C56.6976 52.9008 57.3976 46.8008 57.3976 39.6008C57.3976 38.7008 57.8976 37.9008 58.5976 37.8008C59.2976 37.8008 59.7976 38.5008 59.7976 39.4008C59.7976 47.0008 59.0976 53.6008 57.5976 58.8008C57.3976 59.5008 56.8976 60.0008 56.3976 59.9008Z" fill="white"/>
<path d="M67.9965 59.2996C67.9965 59.2996 67.8965 59.2996 67.7965 59.2996C67.0965 59.1996 66.6965 58.2996 66.7965 57.3996C67.4965 49.7996 67.4965 44.0996 66.9965 39.8996C66.8965 38.9996 67.2965 38.0996 67.8965 37.8996C68.4965 37.6996 69.1965 38.2996 69.2965 39.2996C69.8965 43.8996 69.8965 49.9996 69.1965 57.8996C69.1965 58.7996 68.5965 59.3996 67.9965 59.3996V59.2996Z" fill="white"/>
<path d="M80.0972 58.9007C79.8972 58.9007 79.6972 58.9007 79.4972 58.7007C78.8972 58.2007 78.6972 57.2007 78.9972 56.4007C81.2972 50.8007 81.7972 44.9007 80.5972 38.9007C80.3972 38.0007 80.7972 37.0007 81.4972 36.8007C82.1972 36.5007 82.7972 37.1007 82.9972 38.0007C84.3972 44.9007 83.7972 51.7007 81.1972 58.1007C80.9972 58.7007 80.5972 59.0007 80.0972 59.0007V58.9007Z" fill="white"/>
<path d="M89.6039 62.7999C89.6039 62.7999 89.4039 62.7999 89.3039 62.7999C88.6039 62.5999 88.1039 61.6999 88.3039 60.7999C88.3039 60.7999 88.3039 60.2999 87.7039 58.8999C87.3039 58.0999 87.5039 56.9999 88.2039 56.5999C88.8039 56.0999 89.7039 56.3999 90.1039 57.1999C90.9039 58.8999 91.2039 60.2999 91.0039 61.4999C90.9039 62.2999 90.3039 62.8999 89.7039 62.8999L89.6039 62.7999Z" fill="white"/>
<path d="M82.7971 63.7C82.6971 63.7 82.5971 63.7 82.4971 63.7C81.7971 63.5 81.3971 62.5 81.4971 61.6C81.6971 60.9 81.5971 60.2 81.3971 59.5C81.0971 58.6 81.3971 57.6 82.0971 57.2C82.7971 56.8 83.5971 57.2 83.8971 58.1C84.3971 59.4 84.4971 60.9 84.1971 62.4C83.9971 63.2 83.4971 63.7 82.8971 63.7H82.7971Z" fill="white"/>
<path d="M75.7007 64.4009C75.5007 64.4009 75.2007 64.4009 75.0007 64.2009C74.3007 63.7009 74.1007 62.7009 74.5007 61.9009C74.9007 61.2009 74.9007 60.5009 74.7007 59.8009C74.5007 58.9009 74.9007 57.9009 75.6007 57.6009C76.3007 57.3009 77.1007 57.8009 77.3007 58.7009C77.7007 60.4009 77.6007 62.1009 76.8007 63.6009C76.5007 64.1009 76.1007 64.4009 75.6007 64.4009H75.7007Z" fill="white"/>
<path d="M69.3003 65.0992C69.1003 65.0992 68.8003 65.0992 68.6003 64.7992C68.0003 64.2992 67.8003 63.1992 68.2003 62.3992C68.5003 61.6992 68.7003 60.6992 68.8003 59.3992C68.8003 58.4992 69.4003 57.6992 70.2003 57.6992C70.9003 57.6992 71.5003 58.4992 71.5003 59.4992C71.5003 61.4992 71.1003 62.9992 70.5003 64.1992C70.2003 64.6992 69.8003 64.9992 69.4003 64.9992L69.3003 65.0992Z" fill="white"/>
<path d="M61.9034 65.6C61.7034 65.6 61.5034 65.6 61.3034 65.3C60.7034 64.8 60.5034 63.8 60.9034 62.9C61.2034 62.2 61.3034 61.4 61.3034 60.3C61.3034 59.4 61.7034 58.5 62.4034 58.5C63.1034 58.5 63.7034 59.1 63.7034 60.1C63.8034 61.9 63.6034 63.5 63.0034 64.8C62.8034 65.3 62.4034 65.6 62.0034 65.6H61.9034Z" fill="white"/>
<path d="M53.8978 65.8991C53.6978 65.8991 53.3978 65.8991 53.1978 65.6991C52.5978 65.1991 52.2978 64.1991 52.6978 63.3991C53.0978 62.4991 53.1978 61.5991 53.0978 60.4991C52.9978 59.5991 53.4978 58.6991 54.1978 58.4991C54.8978 58.3991 55.5978 58.9991 55.6978 59.8991C55.8978 61.7991 55.6978 63.4991 54.9978 64.9991C54.7978 65.5991 54.2978 65.8991 53.7978 65.8991H53.8978Z" fill="white"/>
<path d="M45.6987 66.1004C45.3987 66.1004 45.1987 66.1004 44.9987 65.8004C44.3987 65.3004 44.1987 64.2004 44.5987 63.4004C44.9987 62.6004 45.1987 61.6004 45.2987 60.5004C45.2987 59.6004 45.9987 58.9004 46.6987 58.9004C47.3987 58.9004 47.9987 59.8004 47.8987 60.7004C47.7987 62.5004 47.3987 64.0004 46.6987 65.3004C46.3987 65.8004 45.9987 66.1004 45.5987 66.1004H45.6987Z" fill="white"/>
<path d="M38.8968 65C38.5968 65 38.1968 64.8 37.9968 64.3C37.5968 63.5 37.6968 62.5 38.1968 61.9C38.6968 61.3 38.8968 60.7 38.8968 59.8C38.8968 58.9 39.3968 58.1 39.9968 58C40.5968 58 41.0968 58.7 41.1968 59.6C41.1968 61.6 40.6968 63.3 39.5968 64.6C39.3968 64.8 39.1968 64.9 38.8968 64.9V65Z" fill="white"/>
<path d="M32.1987 65.6004C31.9987 65.6004 31.6987 65.6004 31.4987 65.3004C30.8987 64.8004 30.6987 63.7004 31.0987 62.9004C31.5987 62.0004 31.7987 61.1004 31.6987 60.2004C31.6987 59.3004 32.1987 58.5004 32.9987 58.4004C33.7987 58.4004 34.3987 59.1004 34.3987 60.0004C34.3987 61.6004 34.0987 63.2004 33.3987 64.7004C33.0987 65.2004 32.6987 65.5004 32.2987 65.5004L32.1987 65.6004Z" fill="white"/>
<path d="M24.7003 64.2998C24.5003 64.2998 24.3003 64.2998 24.1003 64.0998C23.5003 63.5998 23.3003 62.5998 23.7003 61.7998C24.1003 60.7998 24.3003 59.8998 24.4003 58.9998C24.4003 58.0998 25.0003 57.3998 25.7003 57.4998C26.3003 57.4998 26.8003 58.3998 26.7003 59.3998C26.7003 60.6998 26.3003 62.0998 25.7003 63.4998C25.5003 64.0998 25.1003 64.3998 24.7003 64.3998V64.2998Z" fill="white"/>
<path d="M18.2 64.2C18.1 64.2 17.9 64.2 17.8 64.1C17.2 63.7 17 62.7 17.2 61.8C17.4 61.1 17.5 60.3 17.5 59.2C17.5 58.1 18 57.5 18.6 57.5C19.2 57.5 19.7 58.3 19.7 59.2C19.7 60.8 19.5 62 19.2 63.1C19 63.7 18.6 64.1 18.2 64.1V64.2Z" fill="white"/>
<path d="M12.2009 65.2001C12.1009 65.2001 12.0009 65.2001 11.8009 65.2001C11.1009 64.9001 10.8009 64.0001 11.0009 63.1001C11.0009 62.7001 11.0009 62.1001 10.7009 61.6001C10.3009 60.8001 10.4009 59.8002 11.0009 59.2002C11.6009 58.7002 12.3009 58.8001 12.7009 59.6001C13.4009 61.0001 13.7009 62.6002 13.3009 64.0002C13.1009 64.7002 12.6009 65.2001 12.1009 65.2001H12.2009Z" fill="white"/>
</svg>
