<svg width="513" height="512" viewBox="0 0 513 512" fill="none" xmlns="http://www.w3.org/2000/svg">
<path d="M96.5 164C103.127 164 108.5 158.627 108.5 152C108.5 145.373 103.127 140 96.5 140C89.8726 140 84.5 145.373 84.5 152C84.5 158.627 89.8726 164 96.5 164Z" fill="white"/>
<path d="M464.247 200.248C466.679 170.36 435.543 149.096 407.951 137.408C403.831 121.776 395.239 112 384.503 112C373.223 112 364.527 113.104 358.719 114.16C354.551 102.576 346.647 96.008 336.503 96.008C324.519 96.008 315.111 97.432 308.623 98.896C305.399 81.536 292.759 80 288.503 80C269.063 80 251.871 83.336 242.375 85.624C238.831 76.264 232.143 72 224.503 72C198.559 72 175.695 81.552 163.711 87.656C161.303 83.16 157.759 80 152.503 80C125.767 80 48.5035 111.424 48.5035 160C48.5035 163.272 48.7995 166.2 49.2315 168.96C41.8155 173.904 29.4875 181.632 21.7355 184.496C11.7675 188.168 17.3915 203.208 27.2635 199.504C35.7995 196.36 47.3755 189.288 54.9675 184.344C55.1835 184.656 55.3755 185 55.6075 185.304C51.3835 192.264 42.3515 204.808 30.2715 208.312C20.1355 211.264 24.5435 226.6 34.7435 223.68C50.9835 218.96 62.4395 204.416 68.2875 195.24C69.4555 195.76 70.6475 196.224 71.8635 196.64C70.5035 204.656 66.2715 218.536 53.0955 224.76C43.5195 229.28 50.3595 243.736 59.9275 239.232C79.4715 230 85.6475 210.992 87.6075 199.664C97.4875 200.424 106.351 200 115.751 197.512C115.871 214.368 117.087 249.472 131.863 255.128L151.575 281.408C147.167 293.168 130.767 329.68 95.0955 336.128C84.7035 338 87.5035 353.84 97.9355 351.872C150.215 342.424 167.487 284.68 168.199 282.224C168.895 279.808 168.415 277.208 166.911 275.2L148.199 250.256C150.327 247.928 152.655 244.576 155.127 239.952C162.831 246.544 174.447 256.088 183.143 261.544L184.575 272.984C184.791 274.752 185.599 276.392 186.855 277.648L223.263 314.056C217.415 329.36 195.879 378.576 159.327 384.08C148.895 385.648 151.191 401.552 161.703 399.904C214.671 391.928 239.119 317.6 240.135 314.44C241.047 311.584 240.295 308.456 238.175 306.336L213.679 281.84L214.991 277.904C222.879 282.96 238.119 292.24 249.391 296.192L256.823 322.192C257.063 323.008 257.911 324.28 258.367 325.112L294.927 368.976C287.135 382.752 260.151 424 216.503 424C205.911 424 205.919 440 216.503 440C278.871 440 310.431 374.192 311.743 371.392C313.063 368.576 312.631 365.256 310.647 362.88L273.495 318.312L276.775 308.472C311.319 332.552 348.967 352 392.503 352C410.135 352 431.367 343.928 449.319 330.392C450.791 329.288 452.551 328.032 454.503 326.632C470.215 315.384 496.503 296.56 496.503 272C496.503 249.44 477.247 212.888 464.247 200.248ZM288.503 96C304.271 96 281.015 184 240.503 184C226.711 184 217.943 180.288 212.767 176.984C232.671 158.712 245.159 125.256 244.959 101.472C253.279 99.424 269.927 96 288.503 96ZM224.503 88C238.903 88 221.543 176 176.511 176C168.967 175.984 158.271 174.432 152.175 171.528C165.671 152.008 170.527 125 168.031 103.488C177.207 98.512 199.567 88 224.503 88ZM64.5035 160C64.5035 124.6 127.103 97.984 150.087 96.104C153.655 103.96 154.935 130.912 144.367 153.296C134.751 173.672 118.647 184 96.5035 184C70.2715 184 64.5035 176.048 64.5035 160ZM141.447 183.76C145.679 186.536 150.807 188.36 155.847 189.584C148.319 218.768 141.023 234.304 137.023 238.88C133.719 232.368 131.487 211.944 131.791 190.808C135.207 188.784 138.439 186.44 141.447 183.76ZM445.191 313.624C443.111 315.112 441.247 316.448 439.687 317.624C424.735 328.888 406.951 336.608 387.727 335.824C412.775 318.44 423.391 292.344 423.951 290.936C427.823 281.08 412.951 275.232 409.063 285.08C408.919 285.448 394.583 320.792 360.215 331.8C348.751 328.952 338.231 325.024 329.351 321.024C352.855 312.704 364.815 293.64 368.183 282.288C371.159 272.248 355.975 267.576 352.855 277.696C352.463 278.952 342.999 307.904 306.639 309.04C302.919 306.752 286.191 295.536 282.031 292.752L296.095 250.552C299.439 240.528 284.271 235.416 280.927 245.488L265.103 292.96L256.207 261.816C253.295 251.664 237.911 256.016 240.815 266.216L243.655 276.152C235.559 271.944 226.527 266.416 220.207 262.232L232.095 226.536C235.455 216.48 220.239 211.44 216.927 221.48L201.023 269.2L200.119 268.296L192.455 207.024C191.119 196.472 175.271 198.544 176.583 209.008L180.463 240.016C173.791 234.848 166.831 228.952 161.903 224.656C165.063 216.232 168.375 205.44 171.799 191.864C181.183 192.376 189.511 191.36 198.967 186.632C205.511 192.168 218.631 200 240.503 200C278.031 200 305.143 148.608 308.895 115.312C313.975 113.928 323.351 112.008 336.503 112.008C352.503 112.008 349.607 182.552 315.399 200.96C292.391 213.336 266.383 208.216 266.143 208.168C255.783 206.008 252.503 221.656 262.863 223.824C278.735 227.208 303.671 225.44 322.983 215.048C351.383 199.768 363.639 158.048 361.783 129.864C366.751 128.976 374.423 128 384.503 128C397.527 128 412.407 221.76 327.543 232.056C317.111 233.32 318.863 249.232 329.463 247.936C387.543 240.888 411.767 197.288 410.511 156.184C426.791 164.408 448.503 179.144 448.503 196.008C448.503 222.056 421.407 246.816 382.623 256.224C372.415 258.696 376.031 274.328 386.391 271.768C421.439 263.272 448.383 243.144 459.247 219.248C468.039 232.168 480.503 256.416 480.503 272C480.503 288.336 457.527 304.784 445.191 313.624Z" fill="white"/>
</svg>
