<svg width="513" height="512" viewBox="0 0 513 512" fill="none" xmlns="http://www.w3.org/2000/svg">
<path d="M256.499 479.999C298.083 479.999 320.499 422.679 320.499 375.999C320.499 363.639 318.922 348.151 315.242 334.263L344.499 348.935V391.999C344.499 394.807 345.971 397.415 348.379 398.855L428.379 446.855C437.443 452.295 445.699 438.583 436.611 433.135L360.499 387.471V343.999C360.499 340.975 358.795 338.207 356.083 336.847L307.547 312.503C301.835 299.839 295.539 291.103 291.371 286.095C292.411 284.191 293.338 282.191 294.066 279.999H347.555L369.346 323.575C369.97 324.823 370.906 325.879 372.066 326.655L420.066 358.655C428.866 364.527 437.755 351.215 428.939 345.343L382.707 314.519L359.659 268.415C358.299 265.711 355.531 263.999 352.499 263.999H296.499C296.499 262.919 299.587 253.231 300.867 247.999H336.499C339.947 247.999 343.003 245.799 344.091 242.527L367.491 172.319L406.155 133.655C413.643 126.167 402.322 114.863 394.842 122.343L354.842 162.343C353.962 163.223 353.306 164.295 352.906 165.471L330.73 231.999H303.634C303.994 228.719 304.243 225.159 304.371 221.303C319.123 214.047 320.499 192.543 320.499 175.999C320.499 165.303 319.091 155.487 316.371 146.551L338.387 112.303C347.827 97.6233 348.843 78.7993 341.035 63.1833L327.659 36.4233C322.923 26.9513 308.61 34.1113 313.346 43.5833L326.723 70.3433C332.019 80.9273 331.331 93.6953 324.931 103.655L308.618 129.023C307.778 127.639 306.938 126.255 306.01 124.927C312.17 112.679 313.443 101.151 309.779 90.5993C303.291 71.9113 283.514 64.1833 282.674 63.8633C277.05 61.7113 271.098 66.3673 271.898 72.3833C273.714 86.1753 269.619 93.9513 266.827 97.5513C258.595 95.5033 254.403 95.5033 246.155 97.5513C243.363 93.9513 239.275 86.1753 241.083 72.3833C241.883 66.3673 235.923 61.7113 230.307 63.8633C229.467 64.1833 209.69 71.9033 203.202 90.5993C199.538 101.143 200.811 112.671 206.971 124.927C206.043 126.247 205.203 127.631 204.363 129.023L188.051 103.655C181.651 93.6953 180.962 80.9353 186.258 70.3433L199.635 43.5833C204.371 34.1193 190.059 26.9593 185.323 36.4233L171.947 63.1833C164.139 78.7913 165.154 97.6153 174.594 112.303L196.611 146.551C193.907 155.487 192.499 165.303 192.499 175.999C192.499 192.543 193.875 214.047 208.627 221.303C208.755 225.159 209.003 228.727 209.363 231.999H182.267L160.09 165.471C159.698 164.295 159.035 163.223 158.155 162.343L118.155 122.343C110.675 114.863 99.3545 126.167 106.843 133.655L145.507 172.319L168.907 242.527C170.003 245.799 173.051 247.999 176.499 247.999H212.131C213.411 253.231 216.499 262.919 216.499 263.999H160.499C157.467 263.999 154.699 265.711 153.339 268.423L130.291 314.527L84.0585 345.351C75.2505 351.223 84.1385 364.535 92.9305 358.663L140.931 326.663C142.091 325.887 143.026 324.831 143.65 323.583L165.443 279.999H218.931C219.651 282.183 220.587 284.183 221.627 286.095C217.459 291.103 211.163 299.839 205.451 312.503L156.915 336.847C154.203 338.207 152.499 340.975 152.499 343.999V387.471L76.3785 433.143C67.2985 438.591 75.5465 452.303 84.6105 446.863L164.611 398.863C167.027 397.415 168.499 394.807 168.499 391.999V348.935L197.755 334.263C194.075 348.151 192.499 363.639 192.499 375.999C192.499 422.679 214.915 479.999 256.499 479.999ZM288.251 223.999C287.459 237.919 284.731 246.895 282.811 253.119C281.523 257.319 280.499 260.639 280.499 263.999C280.499 275.175 277.771 287.999 256.499 287.999C235.227 287.999 232.499 275.175 232.499 263.999C232.499 260.639 231.474 257.319 230.178 253.119C228.258 246.895 225.539 237.927 224.739 223.999H288.251ZM266.659 114.031C268.819 114.799 271.867 114.455 273.923 112.991C274.667 112.463 285.611 104.359 287.923 85.9193C290.707 88.5193 293.299 91.8393 294.699 95.9273C297.155 103.103 295.482 111.655 289.73 121.351C287.794 124.431 288.171 128.391 290.611 131.039C299.827 142.479 304.499 157.599 304.499 175.999C304.499 195.471 301.523 202.879 299.027 205.663C297.131 207.783 294.595 207.999 288.555 207.999C288.539 207.999 288.515 207.999 288.499 207.999H224.499C224.483 207.999 224.459 207.999 224.443 207.999C218.411 207.999 215.867 207.783 213.971 205.663C211.475 202.879 208.499 195.471 208.499 175.999C208.499 157.599 213.171 142.479 222.387 131.047C224.827 128.391 225.203 124.431 223.267 121.359C217.515 111.671 215.843 103.119 218.299 95.9352C219.699 91.8472 222.299 88.5193 225.075 85.9273C227.387 104.367 238.331 112.471 239.075 112.999C241.131 114.455 244.179 114.799 246.339 114.039C253.963 111.375 259.027 111.367 266.659 114.031ZM280.387 297.999C283.547 302.079 287.914 308.591 292.066 317.415C288.266 321.903 282.747 324.671 276.755 324.671C276.667 324.671 276.571 324.671 276.499 324.671C265.963 324.671 265.891 340.575 276.427 340.671H276.763C284.651 340.671 292.154 338.063 298.298 333.511C300.578 340.871 302.419 349.239 303.483 358.607C296.355 361.831 288.602 363.503 280.69 363.343C270.482 363.071 268.69 379.351 281.954 379.351C289.674 379.351 297.259 377.911 304.483 375.375C304.483 375.599 304.499 375.791 304.499 375.999C304.499 382.839 304.082 389.263 303.346 395.335C296.482 399.631 288.683 402.015 280.499 402.015C269.923 402.015 269.907 418.015 280.499 418.015C287.075 418.015 293.483 416.903 299.562 414.831C297.378 422.743 294.595 429.751 291.379 435.791C285.547 437.215 279.579 437.583 273.603 436.751C263.131 435.231 260.899 451.135 271.387 452.591C273.795 452.927 276.235 453.039 278.667 453.095C263.859 467.535 249.163 467.567 234.323 453.095C236.763 453.039 239.195 452.927 241.603 452.591C252.091 451.127 249.859 435.231 239.387 436.751C233.411 437.591 227.443 437.223 221.611 435.791C218.403 429.751 215.61 422.743 213.426 414.831C219.514 416.903 225.915 418.015 232.491 418.015C243.083 418.015 243.067 402.015 232.491 402.015C224.307 402.015 216.507 399.631 209.643 395.335C208.915 389.263 208.499 382.839 208.499 375.999C208.499 375.791 208.515 375.599 208.515 375.383C215.739 377.911 223.323 379.359 231.043 379.359C244.299 379.359 242.515 363.079 232.307 363.351C224.395 363.511 216.651 361.839 209.515 358.615C210.579 349.247 212.427 340.879 214.699 333.519C220.843 338.071 228.346 340.679 236.234 340.679H236.571C247.107 340.583 247.035 324.679 236.499 324.679C236.427 324.679 236.331 324.679 236.243 324.679C230.243 324.679 224.731 321.911 220.931 317.423C225.083 308.599 229.451 302.087 232.611 298.007C245.483 306.031 267.475 306.063 280.387 297.999Z" fill="white"/>
</svg>
