<svg width="513" height="512" viewBox="0 0 513 512" fill="none" xmlns="http://www.w3.org/2000/svg">
<path d="M256.498 275.279C260.482 287.543 264.498 300.175 264.498 311.999C264.498 335.159 256.498 345.847 256.498 399.999C256.498 427.831 303.386 471.999 321.842 471.999C343.618 471.999 352.498 460.407 352.498 431.999C352.498 394.655 351.674 362.079 350.218 333.655L377.61 380.071C377.954 380.647 378.37 381.183 378.842 381.663L426.842 429.663C434.33 437.151 445.634 425.831 438.154 418.351L390.874 371.063L347.89 298.239C344.49 255.975 339.474 224.951 333.706 202.343L361.714 194.279L368.554 248.991C368.746 250.543 369.386 251.999 370.402 253.191L421.634 313.191C428.53 321.247 440.666 310.839 433.802 302.799L384.122 244.623L376.418 182.999C375.81 178.135 371.01 174.951 366.266 176.303L329.242 186.967C325.162 174.495 318.538 158.247 308.65 149.575L338.01 143.847C340.042 143.455 341.842 142.279 343.034 140.583L364.426 110.031C376.65 131.519 387.37 157.431 397.01 180.815C413.042 219.663 426.882 253.215 444.61 262.999C453.874 268.103 461.57 254.087 452.346 248.991C439.53 241.919 425.434 207.751 411.802 174.711C400.61 147.567 388.698 118.847 374.546 95.5753L399.042 60.5913C405.122 51.8953 391.978 42.7513 385.93 51.4153L365.026 81.2793C340.77 48.4873 310.306 35.4553 278.562 63.1993L280.434 49.0473C281.818 38.5673 265.962 36.4313 264.578 46.9513L263.298 56.6393C258.834 55.7833 254.186 55.7833 249.714 56.6393L248.434 46.9513C247.042 36.4313 231.194 38.5673 232.578 49.0473L234.434 63.1993C202.682 35.4553 172.226 48.4953 147.946 81.2713L127.042 51.4073C120.994 42.7513 107.85 51.8873 113.93 60.5833L138.426 95.5673C124.274 118.839 112.37 147.567 101.17 174.703C87.5385 207.743 73.4345 241.911 60.6265 248.983C51.3945 254.079 59.0905 268.095 68.3625 262.991C86.0905 253.207 99.9305 219.655 115.962 180.807C125.61 157.423 136.33 131.519 148.546 110.023L169.938 140.575C171.122 142.271 172.93 143.439 174.962 143.839L204.322 149.567C194.426 158.239 187.802 174.495 183.73 186.959L146.706 176.295C141.962 174.943 137.162 178.119 136.554 182.991L128.85 244.615L79.1705 302.791C72.3065 310.831 84.4425 321.239 91.3385 313.183L142.57 253.183C143.586 251.991 144.226 250.527 144.418 248.983L151.258 194.271L179.266 202.335C173.498 224.943 168.482 255.967 165.082 298.231L122.098 371.055L74.8185 418.343C67.3385 425.823 78.6425 437.143 86.1305 429.655L134.13 381.655C134.61 381.175 135.018 380.647 135.362 380.063L162.754 333.647C161.322 362.079 160.498 394.655 160.498 431.999C160.498 460.407 169.378 471.999 191.154 471.999C209.61 471.999 256.498 427.831 256.498 399.999C256.498 345.847 248.498 335.159 248.498 311.999C248.498 300.175 252.514 287.543 256.498 275.279ZM272.482 119.999C274.986 120.071 285.57 126.855 287.97 144.599C272.314 146.631 262.394 154.007 256.506 160.703C250.594 153.999 240.674 146.631 225.018 144.599C227.418 126.855 238.002 120.071 240.506 119.999H272.482ZM272.498 87.9993C272.498 94.5833 269.938 100.519 268.042 103.999H244.946C243.058 100.519 240.498 94.5833 240.498 87.9993C240.498 66.4953 272.498 66.5353 272.498 87.9993ZM336.498 431.999C336.498 455.999 330.346 455.999 321.85 455.999C311.602 455.655 272.498 419.655 272.498 399.999C272.498 346.951 280.498 337.695 280.498 311.999C280.498 285.303 264.498 257.999 264.498 239.999V177.055C266.522 173.095 274.651 160.391 295.867 160.007C298.987 161.423 336.498 183.911 336.498 431.999ZM217.13 159.999C238.346 160.383 246.474 173.095 248.498 177.047V239.999C248.498 257.815 232.498 285.479 232.498 311.999C232.498 337.695 240.498 346.951 240.498 399.999C240.498 419.655 201.394 455.655 191.146 455.999C182.65 455.999 176.498 455.999 176.498 431.999C176.498 183.911 214.01 161.423 217.13 159.999ZM331.794 128.767L302.083 134.567C298.539 121.623 291.434 112.543 283.954 107.847C286.274 102.711 288.498 95.7673 288.498 87.9993C288.498 84.2073 287.811 80.6953 286.755 77.3993C305.347 59.8073 327.178 54.3193 355.266 95.2313L331.794 128.767ZM157.73 95.2393C185.826 54.3273 207.65 59.8073 226.242 77.4073C225.186 80.6953 224.498 84.2073 224.498 87.9993C224.498 95.7673 226.722 102.711 229.034 107.839C221.554 112.535 214.458 121.615 210.906 134.559L181.194 128.759L157.73 95.2393Z" fill="white"/>
</svg>
