<svg width="513" height="512" viewBox="0 0 513 512" fill="none" xmlns="http://www.w3.org/2000/svg">
<path d="M256.497 464C291.597 464 300.997 379.1 303.597 336.2C303.597 336.2 303.597 336.1 303.597 336C303.597 335.9 303.597 336 303.597 335.9C303.997 330 304.197 324.9 304.297 320.9L329.097 340.3C331.397 354.2 342.397 407.1 379.397 438.1C387.497 444.9 397.797 432.6 389.697 425.8C352.597 394.8 344.597 335.5 344.497 334.9C344.197 332.8 343.097 330.9 341.497 329.6L303.597 299.9C301.197 284 293.797 268.7 279.497 260.7C283.597 256 286.897 250.1 289.397 243.3L380.097 351.4C384.197 356.3 390.297 359.4 396.597 359.9C415.597 361.4 461.597 364.2 475.397 351.4C478.697 348.4 480.397 344.6 480.397 340.4C480.397 304.6 344.297 222.9 296.197 195.2C296.197 193.5 295.997 191.9 295.797 190.3L346.597 175.6C349.997 174.6 352.397 171.5 352.397 167.9V140.6L420.297 102.9C429.497 97.7999 421.797 83.7999 412.497 88.8999L340.497 128.9C337.997 130.3 336.397 133 336.397 135.9V161.9L292.297 174.7C291.297 172.3 290.197 170.1 288.997 168.1C298.597 154 301.097 133.6 283.397 124.9L294.697 101.2L348.997 62.3999C357.597 56.1999 348.297 43.1999 339.697 49.3999L283.697 89.3999C282.597 90.1999 281.697 91.1999 281.097 92.4999L267.697 120.6C260.497 119.7 252.197 119.7 244.997 120.6L231.597 92.4999C230.997 91.2999 230.097 90.1999 228.997 89.3999L172.997 49.3999C164.397 43.2999 155.097 56.2999 163.697 62.3999L217.997 101.2L229.297 124.9C211.597 133.6 214.197 154.1 223.697 168.1C222.497 170.1 221.397 172.3 220.397 174.7L176.297 161.9V135.9C176.297 133 174.697 130.3 172.197 128.9L100.197 88.8999C90.9969 83.6999 83.1969 97.7999 92.3969 102.9L160.297 140.6V167.9C160.297 171.5 162.697 174.6 166.097 175.6L216.897 190.3C216.697 191.9 216.597 193.5 216.497 195.2C168.497 222.9 32.2969 304.7 32.2969 340.4C32.2969 376.1 33.9969 348.4 37.2969 351.4C51.1969 364.2 97.0969 361.4 116.097 359.9C122.497 359.4 128.497 356.3 132.597 351.4L223.297 243.3C225.897 250.1 229.197 256 233.197 260.7C218.897 268.7 211.497 284 209.097 299.9L171.197 329.6C169.497 330.9 168.497 332.8 168.197 334.9C168.197 335.5 160.097 394.8 122.997 425.8C114.897 432.6 125.197 444.9 133.297 438.1C170.297 407.1 181.297 354.2 183.597 340.3L208.397 320.9C208.497 324.9 208.697 329.9 209.097 335.9C209.097 335.9 209.097 335.9 209.097 336C209.097 336 209.097 336.1 209.097 336.2C211.597 379.1 221.097 464 256.197 464H256.497ZM280.497 144C280.497 149.5 278.997 153.8 277.397 156.8C265.697 150.3 247.397 150.3 235.697 156.8C234.097 153.8 232.597 149.5 232.597 144C232.597 133.3 280.597 133.3 280.597 144H280.497ZM256.497 272C270.697 272 278.297 277.4 283.497 288H229.497C234.697 277.4 242.197 272 256.497 272ZM287.197 344C286.597 352 285.797 360 284.797 368H228.197C227.197 360 226.397 352 225.797 344H287.197ZM282.497 384C281.097 392.5 279.497 400.6 277.797 408H235.197C233.397 400.6 231.897 392.5 230.497 384H282.497ZM287.997 304C288.797 310.4 288.597 317.3 288.197 328H224.897C224.497 317.3 224.297 310.4 225.097 304H287.997ZM273.297 424C268.497 438.6 262.797 448 256.497 448C250.197 448 244.497 438.6 239.697 424H273.397H273.297ZM256.497 168C269.197 168 272.197 172.9 272.997 173.3C288.097 188.2 279.197 255.9 256.397 255.9C233.697 255.9 224.697 188.2 239.797 173.3C240.697 172.8 243.597 168 256.397 168H256.497ZM397.897 344.1C395.797 343.9 393.697 342.9 392.397 341.3L294.497 224.5C295.097 220.9 295.597 217.3 295.997 213.5C378.397 261.7 462.897 321.3 464.597 339.9C460.997 343.3 440.397 347.3 397.997 344.1H397.897ZM48.4969 340C50.1969 321.4 134.697 261.7 217.097 213.6C217.397 217.3 217.897 221 218.597 224.6L120.697 341.4C119.297 343 117.297 344.1 115.197 344.2C72.7969 347.5 52.1969 343.5 48.5969 340.1L48.4969 340Z" fill="white"/>
<path d="M394.803 178.301L373.103 200.001H306.403C295.803 200.001 295.803 216.001 306.403 216.001H376.403C378.503 216.001 380.603 215.201 382.103 213.701L404.503 191.301L434.303 183.801C444.603 181.201 440.703 165.701 430.403 168.301L398.403 176.301C397.003 176.701 395.703 177.401 394.703 178.401L394.803 178.301Z" fill="white"/>
<path d="M118.202 178.301L139.902 200.001H210.702C221.302 200.001 221.302 216.001 210.702 216.001H136.602C134.502 216.001 132.402 215.201 130.902 213.701L108.502 191.301L78.7018 183.801C68.4018 181.201 72.3018 165.701 82.6018 168.301L114.602 176.301C116.002 176.701 117.302 177.401 118.302 178.401L118.202 178.301Z" fill="white"/>
</svg>
