<?xml version="1.0" encoding="UTF-8"?>
<svg version="1.1" xmlns="http://www.w3.org/2000/svg" width="678" height="678">
<path d="M0 0 C1.45922799 -0.00961943 1.45922799 -0.00961943 2.94793534 -0.0194332 C6.21538513 -0.03606712 9.48210493 -0.02417358 12.74956703 -0.01244164 C15.11270971 -0.01848149 17.47584849 -0.02625886 19.83898032 -0.03562677 C24.98085614 -0.0519373 30.12258652 -0.05577654 35.26447678 -0.04862022 C42.91071859 -0.03800651 50.55680615 -0.05019634 58.2030312 -0.06678609 C72.65349032 -0.09727652 87.1038794 -0.10067517 101.55436395 -0.09574004 C112.71259645 -0.09207555 123.87080595 -0.09559103 135.02903557 -0.10418892 C136.63179825 -0.10539372 138.23456093 -0.10659611 139.83732361 -0.10779613 C142.25249674 -0.10961062 144.66766986 -0.11142795 147.08284298 -0.11326083 C169.53970645 -0.13012152 191.99656126 -0.13879014 214.45343018 -0.13044739 C215.72346495 -0.12997826 215.72346495 -0.12997826 217.019157 -0.12949965 C221.31057231 -0.12788807 225.60198759 -0.12619653 229.89340286 -0.12447305 C230.74570013 -0.12413087 231.59799741 -0.1237887 232.47612187 -0.12343615 C234.19967408 -0.12274284 235.92322629 -0.12204578 237.6467785 -0.12134498 C264.46743978 -0.1106297 291.28796958 -0.12649311 318.10860634 -0.16341209 C348.23810943 -0.20483715 378.36753106 -0.22630042 408.49706423 -0.21826112 C411.70918821 -0.21747042 414.9213122 -0.21674733 418.1334362 -0.21606636 C419.31980558 -0.21579417 419.31980558 -0.21579417 420.53014201 -0.21551647 C432.47352032 -0.21318382 444.41681641 -0.2264864 456.36017418 -0.2476902 C469.94198297 -0.27177817 483.52361056 -0.27493077 497.10542201 -0.25010987 C504.03716346 -0.23800921 510.96858178 -0.2354288 517.90029907 -0.26011467 C524.24396824 -0.28173584 530.5869851 -0.275742 536.93062313 -0.2475913 C539.22732831 -0.24227064 541.52408382 -0.24711404 543.82073979 -0.26306303 C546.94075676 -0.28322847 550.05849585 -0.26647773 553.17842102 -0.24050903 C554.51888984 -0.26243707 554.51888984 -0.26243707 555.88643885 -0.2848081 C562.63478938 -0.16821862 567.14305746 2.06982907 572.21505165 6.50895119 C577.05676707 12.45594136 577.33941198 19.13084177 577.3436861 26.51869202 C577.34543914 27.20363291 577.34719218 27.88857379 577.34899834 28.59427047 C577.35364835 30.88822858 577.35119542 33.18212303 577.34876442 35.47608376 C577.35063289 37.13785562 577.35293374 38.79962704 577.35562974 40.46139777 C577.3617496 45.02723602 577.36161393 49.59305598 577.36043537 54.1588974 C577.36023141 59.08332922 577.36574962 64.00775514 577.37049294 68.93218422 C577.37880088 78.57948739 577.38154783 88.22678445 577.38210531 97.8740909 C577.38258037 105.71474656 577.38463459 113.5554002 577.38780594 121.39605522 C577.3966126 143.62110599 577.40122525 165.84615194 577.40047546 188.07120447 C577.40041553 189.86860198 577.40041553 189.86860198 577.40035439 191.70231056 C577.40029306 193.50189995 577.40029306 193.50189995 577.4002305 195.33784468 C577.39982394 214.78661187 577.40939598 234.23535971 577.42349275 253.6841213 C577.43784986 273.64941035 577.44476332 293.61468996 577.44389898 313.57998431 C577.44356679 324.79084632 577.44632318 336.00168803 577.45707703 347.21254539 C577.46617323 356.75652101 577.46836449 366.30046714 577.4615676 375.84444521 C577.45829806 380.71423942 577.4582614 385.58397701 577.46692085 390.45376587 C577.47476747 394.91226541 577.47337324 399.37066328 577.46463672 403.82916029 C577.46309769 405.4414953 577.46493305 407.05383782 577.4704968 408.66616397 C577.5329417 428.04674102 577.5329417 428.04674102 573.02755165 434.25895119 C572.66274696 434.79004494 572.29794228 435.32113869 571.9220829 435.86832619 C566.21584282 441.35258439 561.01683414 442.09216242 553.4301033 442.01790237 C552.45728464 442.02431533 551.48446598 442.03072829 550.48216796 442.03733557 C547.21471817 442.05396949 543.94799837 442.04207595 540.68053627 442.03034401 C538.31739359 442.03638387 535.95425482 442.04416123 533.59112298 442.05352914 C528.44924716 442.06983967 523.30751679 442.07367891 518.16562653 442.0665226 C510.51938472 442.05590889 502.87329715 442.06809872 495.22707211 442.08468846 C480.77661298 442.11517889 466.3262239 442.11857755 451.87573935 442.11364241 C440.71750686 442.10997792 429.55929735 442.1134934 418.40106773 442.12209129 C416.79830505 442.12329609 415.19554237 442.12449849 413.59277969 442.1256985 C411.17760656 442.12751299 408.76243344 442.12933033 406.34726033 442.1311632 C383.89039685 442.1480239 361.43354204 442.15669251 338.97667313 442.14834976 C338.12998328 442.14803701 337.28329342 442.14772426 336.4109463 442.14740203 C332.11953099 442.14579045 327.82811571 442.14409891 323.53670044 442.14237542 C322.68440317 442.14203325 321.8321059 442.14169107 320.95398143 442.14133853 C319.23042922 442.14064522 317.50687701 442.13994816 315.78332481 442.13924736 C288.96266352 442.12853208 262.14213372 442.14439548 235.32149696 442.18131447 C205.19199387 442.22273952 175.06257224 442.2442028 144.93303907 442.2361635 C141.72091509 442.2353728 138.5087911 442.2346497 135.2966671 442.23396873 C134.50575418 442.23378727 133.71484127 442.23360581 132.89996129 442.23341885 C120.95658299 442.23108619 109.01328689 442.24438877 97.06992912 442.26559258 C83.48812033 442.28968055 69.90649274 442.29283315 56.3246813 442.26801224 C49.39293984 442.25591159 42.46152152 442.25333117 35.52980423 442.27801704 C29.18613506 442.29963821 22.8431182 442.29364438 16.49948017 442.26549368 C14.20277499 442.26017301 11.90601948 442.26501642 9.60936351 442.2809654 C6.48934655 442.30113085 3.37160745 442.28438011 0.25168228 442.25841141 C-1.08878654 442.28033945 -1.08878654 442.28033945 -2.45633554 442.30271047 C-9.20468608 442.18612099 -13.71295416 439.9480733 -18.78494835 435.50895119 C-23.62666377 429.56196102 -23.90930868 422.88706061 -23.9135828 415.49921036 C-23.91533584 414.81426947 -23.91708888 414.12932858 -23.91889504 413.42363191 C-23.92354505 411.1296738 -23.92109212 408.83577935 -23.91866112 406.54181862 C-23.92052959 404.88004676 -23.92283044 403.21827533 -23.92552644 401.55650461 C-23.9316463 396.99066635 -23.93151063 392.4248464 -23.93033206 387.85900497 C-23.93012811 382.93457316 -23.93564631 378.01014723 -23.94038963 373.08571815 C-23.94869757 363.43841499 -23.95144453 353.79111793 -23.95200201 344.14381148 C-23.95247707 336.30315582 -23.95453129 328.46250218 -23.95770264 320.62184715 C-23.9665093 298.39679638 -23.97112195 276.17175044 -23.97037216 253.94669791 C-23.97033221 252.74843289 -23.97029225 251.55016788 -23.97025108 250.31559181 C-23.9702102 249.11586555 -23.97016932 247.91613929 -23.9701272 246.68005769 C-23.96972064 227.2312905 -23.97929268 207.78254267 -23.99338945 188.33378108 C-24.00774656 168.36849203 -24.01466001 148.40321241 -24.01379567 128.43791807 C-24.01346349 117.22705606 -24.01621988 106.01621434 -24.02697372 94.80535698 C-24.03606993 85.26138136 -24.03826119 75.71743523 -24.0314643 66.17345716 C-24.02819476 61.30366295 -24.02815809 56.43392536 -24.03681755 51.56413651 C-24.04466417 47.10563696 -24.04326994 42.6472391 -24.03453342 38.18874209 C-24.03299439 36.57640708 -24.03482974 34.96406455 -24.04039349 33.35173841 C-24.10283839 13.97116135 -24.10283839 13.97116135 -19.59744835 7.75895119 C-19.05024132 6.96231056 -19.05024132 6.96231056 -18.4919796 6.14957619 C-12.78573951 0.66531798 -7.58673084 -0.07426004 0 0 Z M50.21505165 41.50895119 C54.86641524 47.01879605 54.86641524 47.01879605 59.8439579 52.05191994 C60.47946571 52.64424416 61.11497353 53.23656837 61.76973915 53.84684181 C62.76360634 54.76239845 62.76360634 54.76239845 63.77755165 55.69645119 C64.83136024 56.67581642 64.83136024 56.67581642 65.9064579 57.67496681 C68.00550161 59.62380721 70.10939218 61.56726326 72.21505165 63.50895119 C73.08105995 64.3087339 73.08105995 64.3087339 73.96456337 65.12467384 C76.06834633 67.06755319 78.17272083 69.00977666 80.27974892 70.94913673 C84.61581345 74.94331797 88.9180072 78.97285879 93.21505165 83.00895119 C98.57044281 88.03880984 103.94644041 93.04454729 109.3517704 98.02066994 C113.48956185 101.83233004 117.60520308 105.66719313 121.71505165 109.50895119 C126.3676363 113.85773232 131.03099639 118.19408254 135.71505165 122.50895119 C141.04145835 127.41554258 146.3384824 132.35289258 151.62911415 137.29801369 C155.64475116 141.04924662 159.67335918 144.78581576 163.71505165 148.50895119 C169.04221929 153.41624355 174.34012096 158.35417141 179.63131142 163.30021095 C183.62458251 167.0307871 187.63207925 170.74522225 191.65255165 174.44645119 C197.22431629 179.57688793 202.75040018 184.75492683 208.27120399 189.94010353 C212.94273022 194.32449633 217.63829047 198.68146137 222.3517704 203.02066994 C226.48956185 206.83233004 230.60520308 210.66719313 234.71505165 214.50895119 C239.88747724 219.3436288 245.07619796 224.15971246 250.28560829 228.95450783 C253.25210503 231.68773067 256.20629317 234.43332963 259.1486454 237.19254494 C259.81509071 237.81709572 260.48153603 238.4416465 261.16817665 239.08512306 C262.45207948 240.28941381 263.73471799 241.49505448 265.0158329 242.70231056 C268.64813671 246.10858674 272.3581849 249.35868598 276.21505165 252.50895119 C281.41886562 249.49621679 285.29740056 245.55714019 289.45723915 241.23941994 C292.24308285 238.48119792 295.14273549 235.92798815 298.10470009 233.36319923 C301.62204747 230.27270254 305.00646974 227.04390121 308.40255165 223.82145119 C313.52356887 218.98152662 318.65404622 214.15423174 323.84005165 209.38395119 C328.48372945 205.11205807 333.10575307 200.81792387 337.71505165 196.50895119 C342.3676174 192.16014898 347.03105294 187.82388136 351.71505165 183.50895119 C358.91350294 176.87629772 366.06442223 170.19307675 373.21505165 163.50895119 C380.89100679 156.33377192 388.57345287 149.16663206 396.30147743 142.04752541 C400.45513171 138.21815765 404.58776114 134.36670435 408.71505165 130.50895119 C413.89279816 125.66934322 419.08825408 120.84989279 424.30098915 116.04801369 C428.45476322 112.21843662 432.58759302 108.3668615 436.71505165 104.50895119 C441.36765622 100.16019018 446.03105262 95.82388166 450.71505165 91.50895119 C457.91350294 84.87629772 465.06442223 78.19307675 472.21505165 71.50895119 C474.12611265 69.72256695 476.03729838 67.93631739 477.94893837 66.15055275 C479.20091621 64.98100568 480.45254886 63.81108898 481.70382118 62.64078712 C484.76819426 59.77811346 487.84325587 56.92858667 490.94161415 54.10270119 C491.83179237 53.28889992 491.83179237 53.28889992 492.73995399 52.45865822 C493.85476125 51.44103767 494.97210627 50.4261872 496.09249306 49.41471291 C498.84748392 46.8979723 500.95071041 44.52807285 503.21505165 41.50895119 C353.72505165 41.50895119 204.23505165 41.50895119 50.21505165 41.50895119 Z M17.21505165 68.50895119 C17.21505165 158.59895119 17.21505165 248.68895119 17.21505165 341.50895119 C23.1478457 336.42648486 23.1478457 336.42648486 28.76815224 331.08283424 C30.01691391 329.83830231 30.01691391 329.83830231 31.29090309 328.56862831 C32.62524139 327.23125366 32.62524139 327.23125366 33.98653603 325.86686134 C34.95136195 324.90339307 35.9163999 323.94013709 36.88163185 322.97707558 C39.48517633 320.37806277 42.08558027 317.77592941 44.6852684 315.17305994 C47.41777255 312.43800932 50.15273253 309.70541616 52.88729286 306.97242165 C57.4786511 302.38287876 62.06790615 297.79124074 66.65596962 293.19840431 C71.94422303 287.90471276 77.23606463 282.61462866 82.5297904 277.32640994 C87.09066476 272.77008869 91.64956854 268.21180264 96.20686197 263.6518997 C98.92171185 260.93549869 101.63721395 258.21975895 104.35450172 255.50579643 C106.91114627 252.95206253 109.46529033 250.39585276 112.01760864 247.83779526 C113.38981896 246.46365404 114.76446085 245.09194227 116.13920021 243.72033119 C120.48795763 239.3568439 124.70110307 234.9393117 128.69871807 230.2505722 C131.33057087 227.22769504 134.17809724 224.42276653 137.0236454 221.60270119 C137.63523003 220.99253151 138.24681465 220.38236183 138.87693214 219.75370216 C140.79976968 217.83638954 142.72608259 215.92261417 144.65255165 214.00895119 C145.96984224 212.69668533 147.28690151 211.38418724 148.60372353 210.07145119 C151.80483775 206.88126613 155.0090703 203.69424468 158.21505165 200.50895119 C156.69949746 197.29528082 155.28308897 195.46476187 152.52755165 193.19645119 C149.80320001 190.89425133 147.20843294 188.55965159 144.71505165 186.00895119 C142.39808836 183.64672111 140.01719378 181.42704614 137.5080204 179.27066994 C133.24256516 175.56179144 129.12734433 171.71163328 125.02755165 167.82145119 C119.90653443 162.98152662 114.77605708 158.15423174 109.59005165 153.38395119 C104.94637385 149.11205807 100.32435023 144.81792387 95.71505165 140.50895119 C91.06248641 136.16014945 86.39910675 131.82381968 81.71505165 127.50895119 C76.38788401 122.60165883 71.08998234 117.66373096 65.79879189 112.71769142 C61.80552079 108.98711528 57.79802405 105.27268012 53.77755165 101.57145119 C48.89751236 97.07794966 44.05071713 92.55015179 39.21505165 88.00895119 C34.07705001 83.18804897 28.93865574 78.36762872 23.77755165 73.57145119 C22.95287392 72.79994728 22.95287392 72.79994728 22.11153603 72.01285744 C19.98112108 69.58550196 19.98112108 69.58550196 17.21505165 68.50895119 Z M533.6486454 70.01285744 C532.33586012 71.36674754 531.02335215 72.72090661 529.7111454 74.07535744 C527.66802174 76.06732307 525.59492332 77.94494265 523.44161415 79.81363869 C519.24086748 83.45981846 515.18829124 87.24442404 511.15255165 91.07145119 C509.65669388 92.48446146 508.16059548 93.89721703 506.6642704 95.30973244 C505.54737831 96.36474953 505.54737831 96.36474953 504.40792274 97.44108009 C496.03244123 105.33913491 487.59498149 113.17094813 479.12813759 120.97086525 C474.97460308 124.80002367 470.84217403 128.65135517 466.71505165 132.50895119 C461.53730514 137.34855915 456.34184922 142.16800958 451.12911415 146.96988869 C446.97534009 150.79946575 442.84251028 154.65104087 438.71505165 158.50895119 C433.54109019 163.34502129 428.3504574 168.16207865 423.14010048 172.95890236 C419.53462377 176.28146656 415.94975731 179.62531411 412.37154579 182.97721291 C406.73729862 188.25447306 401.09917354 193.50838754 395.21505165 198.50895119 C396.54074235 201.45137506 397.97497539 203.51156005 400.26851845 205.77359962 C400.88643761 206.38814003 401.50435677 207.00268044 402.14100075 207.63584328 C402.80867973 208.29006264 403.47635872 208.944282 404.1642704 209.61832619 C404.85511223 210.30396645 405.54595406 210.9896067 406.25773048 211.69602394 C408.46797303 213.88847196 410.68476157 216.07414029 412.90255165 218.25895119 C415.10166468 220.43028239 417.29924532 222.60310783 419.49381447 224.77903175 C420.85783398 226.13097575 422.22451559 227.48024139 423.59436989 228.82627296 C426.63064387 231.8312541 429.56065996 234.86650529 432.32966042 238.12058449 C436.69577253 243.13471199 441.37686451 247.8107525 446.08175087 252.50504494 C447.05672406 253.4813762 448.03148505 254.4579194 449.00605202 255.43465614 C451.62933314 258.06245903 454.25572223 260.68713409 456.8828578 263.31108284 C459.63719333 266.06287248 462.38907234 268.81711703 465.1413517 271.57096291 C469.75429254 276.18571681 474.3693245 280.79837154 478.98555946 285.40983009 C484.32770701 290.74651406 489.66621215 296.0868214 495.00288379 301.42898083 C499.59055013 306.02117603 504.18015072 310.61143124 508.77139294 315.20005131 C511.51159422 317.93869146 514.25111015 320.67800798 516.98888206 323.41907692 C519.55575707 325.98882809 522.12504196 328.55614461 524.69625473 331.12155533 C526.09441328 332.51774992 527.49009546 333.91642295 528.88572121 335.31514931 C529.709981 336.13658928 530.5342408 336.95802925 531.38347816 337.80436134 C532.10352468 338.52403084 532.82357121 339.24370033 533.56543732 339.98517799 C534.96319872 341.62204003 534.96319872 341.62204003 536.21505165 341.50895119 C536.21505165 251.41895119 536.21505165 161.32895119 536.21505165 68.50895119 C534.97336212 68.39352298 534.97336212 68.39352298 533.6486454 70.01285744 Z M184.16824895 232.29292917 C183.33203206 233.13686141 183.33203206 233.13686141 182.47892189 233.99784279 C181.58946909 234.88367397 181.58946909 234.88367397 180.68204755 235.78740072 C178.68214504 237.78163566 176.68951375 239.78298403 174.6967411 241.78434181 C173.26982081 243.21018991 171.84246785 244.63560512 170.41471291 246.06061745 C166.52558604 249.94488002 162.64276664 253.835393 158.76113725 257.72714615 C154.69975083 261.79729821 150.63311134 265.86219532 146.56714821 269.92777443 C139.73160619 276.76425447 132.89995551 283.60460373 126.07076454 290.44742775 C118.1841517 298.34972676 110.29236463 306.24682722 102.39753753 314.14091921 C93.99122135 322.54655842 85.58872564 330.95600877 77.18733382 339.36656952 C74.76962501 341.78640575 72.35120988 344.20553414 69.93263626 346.624506 C66.12100618 350.43714483 62.3119518 354.25233915 58.50482941 358.06947899 C57.11053997 359.4666763 55.71541842 360.86304383 54.31938362 362.25849724 C45.13516899 371.3931375 45.13516899 371.3931375 36.47830582 381.0225172 C34.69753786 383.11789442 32.77301247 385.04715571 30.8127079 386.97379494 C30.06827431 387.71049416 29.32384071 388.44719337 28.55684853 389.20621681 C27.80468056 389.94549416 27.05251259 390.6847715 26.27755165 391.44645119 C24.74536437 392.95329211 23.21528646 394.46228206 21.6877079 395.97379494 C21.02005409 396.62984718 20.35240028 397.28589943 19.66451454 397.96183205 C18.10110169 399.27724036 18.10110169 399.27724036 18.21505165 400.50895119 C188.82505165 400.50895119 359.43505165 400.50895119 535.21505165 400.50895119 C530.42939942 394.88414061 530.42939942 394.88414061 525.3752079 389.60660744 C524.70425087 388.94338478 524.03329384 388.28016212 523.34200478 387.59684181 C521.96964589 386.25044998 520.59725027 384.9040956 519.22481728 383.55777931 C518.55257118 382.89326759 517.88032509 382.22875587 517.1877079 381.54410744 C516.59224159 380.96024269 515.99677528 380.37637794 515.38326454 379.77482033 C513.65417689 377.96785462 512.05197248 376.13913129 510.43816566 374.23305702 C504.76580599 367.74129528 498.57834069 361.74133176 492.47701454 355.65738869 C491.08662217 354.26727875 489.69645068 352.87694786 488.30648232 351.48641396 C484.55098746 347.73063334 480.79242726 343.97793419 477.03329206 340.22579765 C473.09838332 336.29715919 469.16632453 332.36567037 465.23395729 328.4344883 C457.79530091 320.99893441 450.35410007 313.56593237 442.91197246 306.13385296 C434.43598795 297.66906319 425.96285797 289.20141852 417.48996174 280.73353767 C400.06815698 263.32217282 382.64278622 245.91438051 365.21505165 228.50895119 C362.40140112 229.86859093 360.26767049 231.18569892 358.0002079 233.34488869 C357.40345253 233.90812843 356.80669716 234.47136818 356.19185829 235.0516758 C355.2442765 235.95865211 355.2442765 235.95865211 354.27755165 236.88395119 C352.92372165 238.1642552 351.56954936 239.44419735 350.21505165 240.72379494 C349.5395829 241.36429787 348.86411415 242.0048008 348.16817665 242.66471291 C345.39435676 245.28389234 342.58763356 247.86631316 339.77755165 250.44645119 C334.89687383 254.93924555 330.05048043 259.46751831 325.21505165 264.00895119 C319.84031136 269.05659449 314.45552667 274.092251 309.01900673 279.07340431 C306.17312834 281.68392922 303.35978725 284.32193828 300.5783329 287.00113869 C299.96490028 287.58621193 299.35146767 288.17128517 298.71944618 288.77408791 C297.55029833 289.89044972 296.38790853 291.01395511 295.23409462 292.14615822 C289.99192813 297.1248835 284.19047344 301.09901651 276.71505165 301.00895119 C268.10842048 300.62907229 263.18587703 296.9952242 257.46505165 290.80191994 C254.88497624 288.17257225 252.13917008 285.80049658 249.35616493 283.38956642 C245.87224453 280.32951638 242.51684538 277.136757 239.15255165 273.94645119 C237.65669388 272.53344092 236.16059548 271.12068534 234.6642704 269.70816994 C233.54737831 268.65315285 233.54737831 268.65315285 232.40792274 267.57682228 C223.45181557 259.13123914 214.43387423 250.75030462 205.37130165 242.41910744 C203.17259618 240.3969855 200.98744174 238.36126354 198.80880165 236.31754494 C198.25796913 235.80409523 197.70713661 235.29064552 197.1396122 234.76163673 C196.08794784 233.78132564 195.03975458 232.79727361 193.99556923 231.80900002 C189.45768714 227.59631326 188.51517291 227.98533816 184.16824895 232.29292917 Z " fill="#000000" transform="translate(62.78494834899902,118.49104881286621)"/>
</svg>
