<?xml version="1.0" encoding="UTF-8"?>
<svg version="1.1" xmlns="http://www.w3.org/2000/svg" width="678" height="678">
<path d="M0 0 C7.52004791 5.71299162 12.91709117 12.78816916 18.1796875 20.55078125 C19.20896362 22.0510083 19.20896362 22.0510083 20.2590332 23.58154297 C93.46715906 130.79023582 93.46715906 130.79023582 89.6171875 161.98828125 C86.19751458 177.32304097 73.529906 187.98555019 61.765625 197.41015625 C57.30665361 201.01552831 53.0282042 204.83732227 48.74389648 208.6472168 C48.13618408 209.1812915 47.52847168 209.71536621 46.90234375 210.265625 C46.36488525 210.74249756 45.82742676 211.21937012 45.27368164 211.71069336 C43.48234257 213.09228177 41.66645749 214.04072735 39.6171875 214.98828125 C53.38027235 263.06481053 86.62673441 309.97225181 126.85644531 339.68505859 C128.68272082 341.03678608 130.49009829 342.41140714 132.296875 343.7890625 C140.72193549 350.15925701 149.38808982 355.85381174 158.6171875 360.98828125 C159.8861084 361.69452637 159.8861084 361.69452637 161.18066406 362.41503906 C175.5296531 370.31892782 190.56039685 378.19443334 206.6171875 381.98828125 C206.85308594 381.43269531 207.08898437 380.87710937 207.33203125 380.3046875 C208.9299627 377.42452534 210.9221925 375.32459049 213.1796875 372.92578125 C216.6125358 369.23464666 219.89656842 365.48417866 223.0546875 361.55078125 C245.20857439 334.24845586 245.20857439 334.24845586 262.0078125 331.61328125 C276.24172935 330.85916645 290.12986105 338.02441704 302.6171875 343.98828125 C303.38095703 344.34631836 304.14472656 344.70435547 304.93164062 345.07324219 C336.88290843 360.10992196 366.43256202 380.24506746 395.6171875 399.98828125 C396.51969238 400.59833008 397.42219727 401.20837891 398.35205078 401.83691406 C411.92512603 411.05967884 423.98760815 419.78649693 428.2890625 436.6171875 C430.10204226 449.7181246 425.1017058 458.48761378 417.6171875 468.98828125 C406.65313257 482.94253298 394.31150514 495.84372785 381.09277344 507.66552734 C379.70950848 508.90552231 378.33865646 510.15932517 376.96875 511.4140625 C371.03184017 516.83594072 364.89392145 521.96523358 358.6171875 526.98828125 C358.10736328 527.39771973 357.59753906 527.8071582 357.07226562 528.22900391 C338.90241828 542.79045745 320.18317675 556.51529236 299.9296875 568.05078125 C299.28233643 568.42114502 298.63498535 568.79150879 297.96801758 569.1730957 C278.68202746 579.91955579 253.18750757 571.33076919 233.26098633 565.82885742 C174.24782336 548.98116069 120.16294725 518.11082433 71.6171875 480.98828125 C70.65401611 480.25254883 70.65401611 480.25254883 69.67138672 479.50195312 C61.67609046 473.36617369 53.92073148 466.9689518 46.2734375 460.40625 C44.57033172 458.94816651 42.86009476 457.49881273 41.1484375 456.05078125 C33.66648194 449.70506281 26.3896722 443.17688094 19.22167969 436.47949219 C17.62537458 434.9958903 16.01802712 433.52535992 14.40625 432.05859375 C4.35471688 422.89731754 -5.6949119 413.56027386 -14.48828125 403.1640625 C-16.61458554 400.72210066 -18.82058422 398.36725025 -21.03735352 396.00756836 C-26.29469663 390.41003106 -31.35388037 384.74078375 -36.15625 378.7421875 C-38.14958864 376.27674233 -40.19236231 373.86299842 -42.26074219 371.46044922 C-72.53496387 336.21953138 -97.6654422 296.46977284 -118.3828125 254.98828125 C-119.03588379 253.69398193 -119.03588379 253.69398193 -119.70214844 252.37353516 C-135.19962342 221.52312773 -160.82523387 167.72511731 -151.6484375 132.140625 C-141.1737101 104.5495858 -118.93321047 79.07562291 -99.90234375 56.9453125 C-97.46466558 54.08434758 -95.10715863 51.17192071 -92.7578125 48.23828125 C-89.31339372 44.000416 -85.66513628 40.12406586 -81.71875 36.3515625 C-79.7411698 34.35083336 -77.9171595 32.31155788 -76.0859375 30.1796875 C-72.52454118 26.07745831 -68.73076766 22.3144851 -64.7578125 18.61328125 C-63.71729736 17.64273804 -63.71729736 17.64273804 -62.65576172 16.65258789 C-43.52294816 -0.9796558 -25.12940603 -14.73852707 0 0 Z M-23.3828125 34.98828125 C-41.78145325 51.83134084 -41.78145325 51.83134084 -58.75390625 70.078125 C-60.70518966 72.36632065 -62.73098937 74.57927185 -64.7578125 76.80078125 C-69.4849416 82.05226417 -73.98627533 87.4583862 -78.3828125 92.98828125 C-79.15866699 93.9632959 -79.15866699 93.9632959 -79.95019531 94.95800781 C-87.48759881 104.46358369 -94.8025902 114.08954473 -101.66796875 124.09375 C-103.34970224 126.54342551 -105.08317605 128.90830967 -106.94140625 131.2265625 C-110.72560287 136.17815427 -112.95006389 139.83917559 -112.7578125 146.17578125 C-112.38023184 148.82465479 -111.93148041 151.37557694 -111.3828125 153.98828125 C-111.20911133 154.85582031 -111.03541016 155.72335938 -110.85644531 156.6171875 C-98.96651263 214.39636448 -70.299429 267.93001042 -35.3828125 314.98828125 C-34.37231814 316.36192202 -33.36189987 317.73561876 -32.3515625 319.109375 C-19.2207088 336.8735073 -5.08903535 353.89352364 9.94921875 370.07421875 C11.32710598 371.57920246 12.70208333 373.08795694 14.02514648 374.64135742 C19.43831557 380.99682201 25.33199047 386.85427175 31.24145508 392.74291992 C33.05079683 394.5469021 34.85473069 396.3561679 36.65820312 398.16601562 C42.47755268 403.98872158 48.34176843 409.65365967 54.6171875 414.98828125 C56.39288971 416.60795942 58.16427057 418.23239843 59.9296875 419.86328125 C64.36215224 423.90107447 68.89460927 427.76135559 73.5625 431.5234375 C75.8003033 433.329133 78.02200649 435.14807437 80.234375 436.984375 C89.35269155 444.52408013 98.73692588 451.57901529 108.39550781 458.41064453 C110.53895102 459.93272475 112.66930925 461.47145647 114.796875 463.015625 C158.79189467 494.78430946 209.26739056 520.5631089 262.5546875 531.92578125 C263.54355957 532.13759033 264.53243164 532.34939941 265.55126953 532.56762695 C268.23402122 533.10827767 270.9120337 533.57559932 273.6171875 533.98828125 C274.31255615 534.10510254 275.0079248 534.22192383 275.72436523 534.34228516 C282.34847871 534.95844314 286.72729822 531.17192195 291.8046875 527.48828125 C292.75577393 526.81845215 293.70686035 526.14862305 294.68676758 525.45849609 C308.70459631 515.50469371 322.50947699 505.12112252 335.6171875 493.98828125 C336.15939941 493.52953613 336.70161133 493.07079102 337.26025391 492.59814453 C350.06454486 481.73676708 362.33676843 470.32657352 374.2421875 458.48828125 C374.797854 457.9372876 375.35352051 457.38629395 375.92602539 456.81860352 C379.69162629 453.03811203 383.19653221 449.08263222 386.6171875 444.98828125 C385.27029218 441.85710541 383.95166882 440.18849252 381.1875 438.2109375 C380.4855249 437.70449707 379.7835498 437.19805664 379.06030273 436.67626953 C378.29532471 436.1398584 377.53034668 435.60344727 376.7421875 435.05078125 C375.93918213 434.48085449 375.13617676 433.91092773 374.30883789 433.32373047 C347.30632197 414.31199487 318.70011661 397.7852731 289.4296875 382.55078125 C287.69066162 381.64477173 287.69066162 381.64477173 285.91650391 380.72045898 C282.82649085 379.12263558 279.72805236 377.54506835 276.6171875 375.98828125 C275.88677246 375.62202637 275.15635742 375.25577148 274.40380859 374.87841797 C271.96079004 373.73124449 270.10199035 372.95951459 267.37890625 373.12109375 C259.98926072 376.75856894 254.64741651 385.76114887 249.6171875 391.98828125 C243.6488478 399.34112608 237.45390299 406.36438473 230.8046875 413.11328125 C229.87148682 414.07282715 229.87148682 414.07282715 228.91943359 415.05175781 C223.86172298 420.10269047 219.22029764 423.33648094 211.85351562 424.01904297 C207.36918162 423.9573589 203.16582565 422.74165461 198.8671875 421.55078125 C197.86220215 421.27927246 196.8572168 421.00776367 195.82177734 420.72802734 C185.75720264 417.91057992 176.17329438 414.19450665 166.6171875 409.98828125 C165.89901855 409.67665039 165.18084961 409.36501953 164.44091797 409.04394531 C136.49355891 396.81414475 110.28093161 379.68303435 87.8359375 359.0234375 C85.84019651 357.19283705 83.80488139 355.42991642 81.7421875 353.67578125 C73.3699206 346.35216192 65.7018705 338.44044747 58.80078125 329.71875 C57.37616064 327.9373371 55.91097677 326.18741089 54.40234375 324.4765625 C41.84843728 310.16803349 31.49064856 293.56094385 22.57763672 276.77246094 C21.63304467 275.01773834 20.64296434 273.28774857 19.65234375 271.55859375 C10.95581135 256.25897923 4.56111639 239.54605032 -0.1328125 222.61328125 C-0.39723145 221.70578125 -0.66165039 220.79828125 -0.93408203 219.86328125 C-2.64926334 213.21342892 -2.48197023 207.55756846 -0.3828125 200.98828125 C1.359375 198.1484375 1.359375 198.1484375 3.4921875 196.05078125 C4.30042969 195.23609375 5.10867187 194.42140625 5.94140625 193.58203125 C6.82441406 192.72609375 7.70742187 191.87015625 8.6171875 190.98828125 C9.54423103 190.02323059 10.46730747 189.05435598 11.38671875 188.08203125 C16.9878628 182.2225336 22.8716212 177.07075517 29.30615234 172.1484375 C33.67606528 168.78565768 37.84898427 165.25937525 41.9296875 161.55078125 C42.76584595 160.80634766 42.76584595 160.80634766 43.61889648 160.046875 C46.39141515 157.48803035 48.19881007 155.78387478 48.6171875 151.98828125 C47.97685809 149.75742783 47.97685809 149.75742783 46.80078125 147.48046875 C46.16027832 146.14459717 46.16027832 146.14459717 45.50683594 144.78173828 C45.02762695 143.81864746 44.54841797 142.85555664 44.0546875 141.86328125 C43.3107373 140.34323486 43.3107373 140.34323486 42.55175781 138.79248047 C27.41226165 108.16238666 9.8631874 79.17653153 -9.3828125 50.98828125 C-10.22610107 49.74546387 -10.22610107 49.74546387 -11.08642578 48.47753906 C-12.46533785 46.45194339 -13.85675047 44.43609503 -15.2578125 42.42578125 C-16.33675781 40.87697266 -16.33675781 40.87697266 -17.4375 39.296875 C-19.38219237 36.98901718 -20.69940405 36.21070738 -23.3828125 34.98828125 Z " fill="#000000" transform="translate(201.3828125,56.01171875)"/>
<path d="M0 0 C3.78447484 2.77742495 7.44968181 5.68933386 11.09814453 8.64355469 C11.98115234 9.33449219 12.86416016 10.02542969 13.77392578 10.73730469 C19.53557261 15.31247906 24.96460876 20.19499203 30.34814453 25.20605469 C31.00983643 25.81924561 31.67152832 26.43243652 32.35327148 27.06420898 C36.90772862 31.35038753 41.06182268 35.86922661 45.09814453 40.64355469 C45.61715332 41.25110596 46.13616211 41.85865723 46.67089844 42.48461914 C82.37906633 84.59159061 104.90458564 138.20633901 107.09814453 193.64355469 C107.12537598 194.3296582 107.15260742 195.01576172 107.18066406 195.72265625 C107.25913685 197.9880028 107.30838852 200.25221787 107.34814453 202.51855469 C107.36965576 203.22077148 107.39116699 203.92298828 107.41333008 204.64648438 C107.45493788 211.24406907 105.57858971 215.50513388 101.84814453 220.89355469 C97.46326622 225.278433 93.27009695 226.79057459 87.16064453 227.08105469 C81.35112301 226.87798631 76.88389916 225.16703725 72.56298828 221.25292969 C68.0981939 216.30651026 66.90546941 211.0134084 66.60595703 204.52246094 C66.54311523 203.35134766 66.48027344 202.18023437 66.41552734 200.97363281 C66.35204102 199.73033203 66.28855469 198.48703125 66.22314453 197.20605469 C62.89383801 142.76849589 41.27738137 96.15359995 4.09814453 56.64355469 C3.48197266 55.98484375 2.86580078 55.32613281 2.23095703 54.64746094 C-17.61370159 34.09067342 -44.34377294 18.60070074 -70.90185547 8.64355469 C-71.62904785 8.36817871 -72.35624023 8.09280273 -73.10546875 7.80908203 C-92.90722142 0.43509602 -113.85562255 -3.70001726 -134.95654297 -4.58691406 C-135.80313477 -4.62333008 -136.64972656 -4.65974609 -137.52197266 -4.69726562 C-139.1341027 -4.75948819 -140.74684503 -4.80811003 -142.35986328 -4.83984375 C-148.44764195 -5.04445264 -154.0982087 -6.07239331 -158.92529297 -10.00488281 C-164.11098158 -16.6293752 -165.91421298 -21.85523803 -164.90185547 -30.35644531 C-163.05749949 -36.97511517 -158.79477687 -41.03016741 -152.90185547 -44.35644531 C-108.57328206 -60.45829036 -34.61738468 -24.68988309 0 0 Z " fill="#000000" transform="translate(503.90185546875,113.3564453125)"/>
<path d="M0 0 C0.83176758 0.00418945 1.66353516 0.00837891 2.52050781 0.01269531 C43.54632302 0.73786015 80.8243873 19.69980147 109.375 48.3125 C110.20386719 49.12976563 111.03273438 49.94703125 111.88671875 50.7890625 C137.12005765 77.15495701 151.06255156 115.14843472 151.75 151.25 C151.77610352 152.03093018 151.80220703 152.81186035 151.82910156 153.61645508 C151.84777108 159.85940772 150.27035011 165.17491144 145.96264648 169.84301758 C140.60431321 174.56661952 135.92331621 175.78498471 128.94140625 175.62890625 C123.65590913 174.97726962 119.83721256 172.7351933 116.0625 169.0625 C112.21339242 162.78988024 111.21553215 157.7702098 110.9375 150.5 C109.69069784 119.86525778 95.88773877 91.21389681 73.68359375 70.22265625 C55.08715127 53.43365551 29.51137489 41.82265118 4.30981445 41.07397461 C-12.51779391 40.5042165 -12.51779391 40.5042165 -18.5234375 34.375 C-23.30290954 28.27163665 -24.43356832 22.98820486 -23.625 15.3125 C-21.83022872 9.38462684 -18.64462539 5.79550537 -13.625 2.3125 C-9.19142257 0.0192703 -4.8894547 -0.03388534 0 0 Z " fill="#000000" transform="translate(362.625,164.6875)"/>
</svg>
